<svg width="1920" height="920" viewBox="0 0 1920 920" fill="none" xmlns="http://www.w3.org/2000/svg">
<g clip-path="url(#clip0)">
<rect width="1920" height="920" fill="black"/>
<path d="M878.772 611H882.204V597.992H886.86V594.992H874.092V597.992H878.772V611ZM889.045 611H900.373V608H892.453V604.376H900.205V601.376H892.453V597.992H900.373V594.992H889.045V611ZM901.957 608.744C903.445 610.256 905.653 611.288 908.725 611.288C913.045 611.288 915.133 609.08 915.133 606.152C915.133 602.528 911.773 601.736 909.133 601.112C907.405 600.704 905.941 600.368 905.941 599.336C905.941 598.376 906.757 597.728 908.221 597.728C909.853 597.728 911.581 598.28 912.877 599.48L914.773 596.984C913.189 595.52 911.077 594.752 908.533 594.752C904.765 594.752 902.461 596.96 902.461 599.624C902.461 603.272 905.821 603.992 908.437 604.592C910.189 605.024 911.677 605.36 911.677 606.536C911.677 607.448 910.765 608.312 908.893 608.312C906.685 608.312 904.933 607.328 903.805 606.152L901.957 608.744ZM920.96 611H924.392V597.992H929.048V594.992H916.28V597.992H920.96V611ZM948.005 607.76C948.941 606.56 949.661 605.192 950.237 603.92L947.789 602.792C947.525 603.728 947.021 604.856 946.325 605.888C945.869 605.36 945.437 604.832 944.981 604.256C944.573 603.776 944.069 603.176 943.613 602.528C945.581 601.616 947.525 600.584 947.525 598.136C947.525 596 945.581 594.752 943.325 594.752C940.661 594.752 938.741 596.432 938.741 598.592C938.741 599.672 939.173 600.848 939.821 602.024C937.973 602.96 936.365 604.208 936.365 606.656C936.365 609.752 938.717 611.288 941.645 611.288C943.373 611.288 944.813 610.712 946.013 609.8C946.469 610.256 946.877 610.688 947.213 611H951.101C949.997 609.872 948.965 608.816 948.005 607.76ZM941.789 598.664C941.789 597.68 942.533 596.96 943.469 596.96C944.261 596.96 944.885 597.464 944.885 598.304C944.885 599.48 943.853 600.176 942.485 600.8C942.077 600.056 941.789 599.312 941.789 598.664ZM942.077 608.888C940.757 608.888 939.605 607.928 939.605 606.368C939.605 605.264 940.157 604.52 940.997 603.92C941.525 604.664 942.077 605.384 942.605 606.032C942.989 606.512 943.661 607.256 944.381 608.048C943.685 608.552 942.893 608.888 942.077 608.888ZM963.517 611H967.789L973.957 594.992H970.069L965.653 607.304L961.213 594.992H957.325L963.517 611ZM985.351 611H989.239L983.071 594.992H978.799L972.607 611H976.495L977.503 608.288H984.367L985.351 611ZM980.935 598.4L983.431 605.288H978.439L980.935 598.4ZM990.717 611H1000.89V608H994.125V594.992H990.717V611ZM1003.28 611H1006.69V594.992H1003.28V611ZM1009.87 611H1016.18C1021.19 611 1024.67 607.832 1024.67 603.008C1024.67 598.184 1021.19 594.992 1016.18 594.992H1009.87V611ZM1013.27 608V597.992H1016.18C1019.47 597.992 1021.19 600.176 1021.19 603.008C1021.19 605.72 1019.35 608 1016.18 608H1013.27ZM1037.31 611H1041.2L1035.03 594.992H1030.76L1024.57 611H1028.46L1029.46 608.288H1036.33L1037.31 611ZM1032.9 598.4L1035.39 605.288H1030.4L1032.9 598.4ZM1044.83 611H1048.26V597.992H1052.91V594.992H1040.15V597.992H1044.83V611ZM1055.1 611H1066.43V608H1058.51V604.376H1066.26V601.376H1058.51V597.992H1066.43V594.992H1055.1V611ZM911.006 643H914.414V636.376H922.166V633.376H914.414V629.992H922.334V626.992H911.006V643ZM924.717 643H936.045V640H928.125V636.376H935.877V633.376H928.125V629.992H936.045V626.992H924.717V643ZM938.709 643H950.037V640H942.117V636.376H949.869V633.376H942.117V629.992H950.037V626.992H938.709V643ZM952.701 643H959.013C964.029 643 967.509 639.832 967.509 635.008C967.509 630.184 964.029 626.992 959.013 626.992H952.701V643ZM956.109 640V629.992H959.013C962.301 629.992 964.029 632.176 964.029 635.008C964.029 637.72 962.181 640 959.013 640H956.109ZM969.928 643H978.616C981.664 643 983.272 641.08 983.272 638.68C983.272 636.664 981.904 635.008 980.2 634.744C981.712 634.432 982.96 633.088 982.96 631.072C982.96 628.936 981.4 626.992 978.352 626.992H969.928V643ZM973.336 633.4V629.92H977.608C978.76 629.92 979.48 630.664 979.48 631.672C979.48 632.68 978.76 633.4 977.608 633.4H973.336ZM973.336 640.048V636.328H977.728C979.072 636.328 979.792 637.192 979.792 638.2C979.792 639.352 979.024 640.048 977.728 640.048H973.336ZM996.882 643H1000.77L994.602 626.992H990.33L984.138 643H988.026L989.034 640.288H995.898L996.882 643ZM992.466 630.4L994.962 637.288H989.97L992.466 630.4ZM1009.18 643.288C1012.71 643.288 1014.72 641.344 1015.88 639.352L1012.95 637.936C1012.28 639.256 1010.84 640.264 1009.18 640.264C1006.28 640.264 1004.16 638.032 1004.16 635.008C1004.16 631.984 1006.28 629.752 1009.18 629.752C1010.84 629.752 1012.28 630.784 1012.95 632.08L1015.88 630.64C1014.75 628.648 1012.71 626.728 1009.18 626.728C1004.38 626.728 1000.66 630.088 1000.66 635.008C1000.66 639.928 1004.38 643.288 1009.18 643.288ZM1027.41 643H1031.61L1024.82 634.504L1031.18 626.992H1026.98L1021.31 634.144V626.992H1017.9V643H1021.31V638.08L1022.56 636.592L1027.41 643ZM929.918 675H933.35V658.992H928.55L924.662 668.664L920.774 658.992H915.998V675H919.406V663.792L923.918 675H925.406L929.918 663.792V675ZM936.529 675H947.857V672H939.937V668.376H947.689V665.376H939.937V661.992H947.857V658.992H936.529V675ZM961.562 675H965.45L959.282 658.992H955.01L948.817 675H952.706L953.714 672.288H960.578L961.562 675ZM957.146 662.4L959.642 669.288H954.65L957.146 662.4ZM965.684 672.744C967.172 674.256 969.38 675.288 972.452 675.288C976.772 675.288 978.86 673.08 978.86 670.152C978.86 666.528 975.5 665.736 972.86 665.112C971.132 664.704 969.668 664.368 969.668 663.336C969.668 662.376 970.484 661.728 971.948 661.728C973.58 661.728 975.308 662.28 976.604 663.48L978.5 660.984C976.916 659.52 974.804 658.752 972.26 658.752C968.492 658.752 966.188 660.96 966.188 663.624C966.188 667.272 969.548 667.992 972.164 668.592C973.916 669.024 975.404 669.36 975.404 670.536C975.404 671.448 974.492 672.312 972.62 672.312C970.412 672.312 968.66 671.328 967.532 670.152L965.684 672.744ZM981.154 668.616C981.154 672.552 983.506 675.288 988.378 675.288C993.25 675.288 995.602 672.576 995.602 668.592V658.992H992.122V668.496C992.122 670.728 990.85 672.264 988.378 672.264C985.906 672.264 984.61 670.728 984.61 668.496V658.992H981.154V668.616ZM1007.8 675H1011.72L1008.12 668.904C1009.84 668.496 1011.62 666.984 1011.62 664.152C1011.62 661.176 1009.58 658.992 1006.24 658.992H998.756V675H1002.16V669.312H1004.66L1007.8 675ZM1008.14 664.152C1008.14 665.496 1007.11 666.312 1005.74 666.312H1002.16V661.992H1005.74C1007.11 661.992 1008.14 662.808 1008.14 664.152ZM1014.18 675H1025.51V672H1017.59V668.376H1025.34V665.376H1017.59V661.992H1025.51V658.992H1014.18V675ZM925.689 707H929.097V690.992H925.689V707ZM935.971 707H939.403V693.992H944.059V690.992H931.291V693.992H935.971V707ZM946.244 707H957.572V704H949.652V700.376H957.404V697.376H949.652V693.992H957.572V690.992H946.244V707ZM969.284 707H973.196L969.596 700.904C971.324 700.496 973.1 698.984 973.1 696.152C973.1 693.176 971.06 690.992 967.724 690.992H960.236V707H963.644V701.312H966.14L969.284 707ZM969.62 696.152C969.62 697.496 968.588 698.312 967.22 698.312H963.644V693.992H967.22C968.588 693.992 969.62 694.808 969.62 696.152ZM986.698 707H990.586L984.418 690.992H980.146L973.954 707H977.842L978.85 704.288H985.714L986.698 707ZM982.282 694.4L984.778 701.288H979.786L982.282 694.4ZM994.214 707H997.646V693.992H1002.3V690.992H989.534V693.992H994.214V707ZM1004.49 707H1015.81V704H1007.89V700.376H1015.65V697.376H1007.89V693.992H1015.81V690.992H1004.49V707Z" fill="white"/>
<path d="M1308.77 611H1312.2V597.992H1316.86V594.992H1304.09V597.992H1308.77V611ZM1319.04 611H1330.37V608H1322.45V604.376H1330.2V601.376H1322.45V597.992H1330.37V594.992H1319.04V611ZM1331.96 608.744C1333.45 610.256 1335.65 611.288 1338.73 611.288C1343.05 611.288 1345.13 609.08 1345.13 606.152C1345.13 602.528 1341.77 601.736 1339.13 601.112C1337.41 600.704 1335.94 600.368 1335.94 599.336C1335.94 598.376 1336.76 597.728 1338.22 597.728C1339.85 597.728 1341.58 598.28 1342.88 599.48L1344.77 596.984C1343.19 595.52 1341.08 594.752 1338.53 594.752C1334.77 594.752 1332.46 596.96 1332.46 599.624C1332.46 603.272 1335.82 603.992 1338.44 604.592C1340.19 605.024 1341.68 605.36 1341.68 606.536C1341.68 607.448 1340.77 608.312 1338.89 608.312C1336.69 608.312 1334.93 607.328 1333.81 606.152L1331.96 608.744ZM1350.96 611H1354.39V597.992H1359.05V594.992H1346.28V597.992H1350.96V611ZM1378.01 607.76C1378.94 606.56 1379.66 605.192 1380.24 603.92L1377.79 602.792C1377.53 603.728 1377.02 604.856 1376.33 605.888C1375.87 605.36 1375.44 604.832 1374.98 604.256C1374.57 603.776 1374.07 603.176 1373.61 602.528C1375.58 601.616 1377.53 600.584 1377.53 598.136C1377.53 596 1375.58 594.752 1373.33 594.752C1370.66 594.752 1368.74 596.432 1368.74 598.592C1368.74 599.672 1369.17 600.848 1369.82 602.024C1367.97 602.96 1366.37 604.208 1366.37 606.656C1366.37 609.752 1368.72 611.288 1371.65 611.288C1373.37 611.288 1374.81 610.712 1376.01 609.8C1376.47 610.256 1376.88 610.688 1377.21 611H1381.1C1380 609.872 1378.97 608.816 1378.01 607.76ZM1371.79 598.664C1371.79 597.68 1372.53 596.96 1373.47 596.96C1374.26 596.96 1374.89 597.464 1374.89 598.304C1374.89 599.48 1373.85 600.176 1372.49 600.8C1372.08 600.056 1371.79 599.312 1371.79 598.664ZM1372.08 608.888C1370.76 608.888 1369.61 607.928 1369.61 606.368C1369.61 605.264 1370.16 604.52 1371 603.92C1371.53 604.664 1372.08 605.384 1372.61 606.032C1372.99 606.512 1373.66 607.256 1374.38 608.048C1373.69 608.552 1372.89 608.888 1372.08 608.888ZM1393.52 611H1397.79L1403.96 594.992H1400.07L1395.65 607.304L1391.21 594.992H1387.33L1393.52 611ZM1415.35 611H1419.24L1413.07 594.992H1408.8L1402.61 611H1406.49L1407.5 608.288H1414.37L1415.35 611ZM1410.93 598.4L1413.43 605.288H1408.44L1410.93 598.4ZM1420.72 611H1430.89V608H1424.12V594.992H1420.72V611ZM1433.28 611H1436.69V594.992H1433.28V611ZM1439.87 611H1446.18C1451.19 611 1454.67 607.832 1454.67 603.008C1454.67 598.184 1451.19 594.992 1446.18 594.992H1439.87V611ZM1443.27 608V597.992H1446.18C1449.47 597.992 1451.19 600.176 1451.19 603.008C1451.19 605.72 1449.35 608 1446.18 608H1443.27ZM1467.31 611H1471.2L1465.03 594.992H1460.76L1454.57 611H1458.46L1459.46 608.288H1466.33L1467.31 611ZM1462.9 598.4L1465.39 605.288H1460.4L1462.9 598.4ZM1474.83 611H1478.26V597.992H1482.91V594.992H1470.15V597.992H1474.83V611ZM1485.1 611H1496.43V608H1488.51V604.376H1496.26V601.376H1488.51V597.992H1496.43V594.992H1485.1V611ZM1341.01 643H1344.41V636.376H1352.17V633.376H1344.41V629.992H1352.33V626.992H1341.01V643ZM1354.72 643H1366.04V640H1358.12V636.376H1365.88V633.376H1358.12V629.992H1366.04V626.992H1354.72V643ZM1368.71 643H1380.04V640H1372.12V636.376H1379.87V633.376H1372.12V629.992H1380.04V626.992H1368.71V643ZM1382.7 643H1389.01C1394.03 643 1397.51 639.832 1397.51 635.008C1397.51 630.184 1394.03 626.992 1389.01 626.992H1382.7V643ZM1386.11 640V629.992H1389.01C1392.3 629.992 1394.03 632.176 1394.03 635.008C1394.03 637.72 1392.18 640 1389.01 640H1386.11ZM1399.93 643H1408.62C1411.66 643 1413.27 641.08 1413.27 638.68C1413.27 636.664 1411.9 635.008 1410.2 634.744C1411.71 634.432 1412.96 633.088 1412.96 631.072C1412.96 628.936 1411.4 626.992 1408.35 626.992H1399.93V643ZM1403.34 633.4V629.92H1407.61C1408.76 629.92 1409.48 630.664 1409.48 631.672C1409.48 632.68 1408.76 633.4 1407.61 633.4H1403.34ZM1403.34 640.048V636.328H1407.73C1409.07 636.328 1409.79 637.192 1409.79 638.2C1409.79 639.352 1409.02 640.048 1407.73 640.048H1403.34ZM1426.88 643H1430.77L1424.6 626.992H1420.33L1414.14 643H1418.03L1419.03 640.288H1425.9L1426.88 643ZM1422.47 630.4L1424.96 637.288H1419.97L1422.47 630.4ZM1439.18 643.288C1442.71 643.288 1444.72 641.344 1445.88 639.352L1442.95 637.936C1442.28 639.256 1440.84 640.264 1439.18 640.264C1436.28 640.264 1434.16 638.032 1434.16 635.008C1434.16 631.984 1436.28 629.752 1439.18 629.752C1440.84 629.752 1442.28 630.784 1442.95 632.08L1445.88 630.64C1444.75 628.648 1442.71 626.728 1439.18 626.728C1434.38 626.728 1430.66 630.088 1430.66 635.008C1430.66 639.928 1434.38 643.288 1439.18 643.288ZM1457.41 643H1461.61L1454.82 634.504L1461.18 626.992H1456.98L1451.31 634.144V626.992H1447.9V643H1451.31V638.08L1452.56 636.592L1457.41 643ZM1349.77 675H1353.66L1347.49 658.992H1343.22L1337.03 675H1340.92L1341.92 672.288H1348.79L1349.77 675ZM1345.36 662.4L1347.85 669.288H1342.86L1345.36 662.4ZM1366.18 675H1369.47V658.992H1366.06V669.048L1358.64 658.992H1355.14V675H1358.55V664.56L1366.18 675ZM1383.66 675H1387.55L1381.38 658.992H1377.11L1370.92 675H1374.81L1375.82 672.288H1382.68L1383.66 675ZM1379.25 662.4L1381.74 669.288H1376.75L1379.25 662.4ZM1389.03 675H1399.21V672H1392.44V658.992H1389.03V675ZM1403.01 675H1406.42V668.448L1412.54 658.992H1408.65L1404.71 665.424L1400.73 658.992H1396.84L1403.01 668.448V675ZM1417.71 675H1421.14V661.992H1425.8V658.992H1413.03V661.992H1417.71V675ZM1427.98 675H1431.39V658.992H1427.98V675ZM1442.32 675.288C1445.85 675.288 1447.86 673.344 1449.02 671.352L1446.09 669.936C1445.42 671.256 1443.98 672.264 1442.32 672.264C1439.42 672.264 1437.3 670.032 1437.3 667.008C1437.3 663.984 1439.42 661.752 1442.32 661.752C1443.98 661.752 1445.42 662.784 1446.09 664.08L1449.02 662.64C1447.89 660.648 1445.85 658.728 1442.32 658.728C1437.52 658.728 1433.8 662.088 1433.8 667.008C1433.8 671.928 1437.52 675.288 1442.32 675.288ZM1449.96 672.744C1451.45 674.256 1453.66 675.288 1456.73 675.288C1461.05 675.288 1463.14 673.08 1463.14 670.152C1463.14 666.528 1459.78 665.736 1457.14 665.112C1455.41 664.704 1453.95 664.368 1453.95 663.336C1453.95 662.376 1454.76 661.728 1456.23 661.728C1457.86 661.728 1459.59 662.28 1460.88 663.48L1462.78 660.984C1461.2 659.52 1459.08 658.752 1456.54 658.752C1452.77 658.752 1450.47 660.96 1450.47 663.624C1450.47 667.272 1453.83 667.992 1456.44 668.592C1458.2 669.024 1459.68 669.36 1459.68 670.536C1459.68 671.448 1458.77 672.312 1456.9 672.312C1454.69 672.312 1452.94 671.328 1451.81 670.152L1449.96 672.744ZM1355.69 707H1359.1V690.992H1355.69V707ZM1365.97 707H1369.4V693.992H1374.06V690.992H1361.29V693.992H1365.97V707ZM1376.24 707H1387.57V704H1379.65V700.376H1387.4V697.376H1379.65V693.992H1387.57V690.992H1376.24V707ZM1399.28 707H1403.2L1399.6 700.904C1401.32 700.496 1403.1 698.984 1403.1 696.152C1403.1 693.176 1401.06 690.992 1397.72 690.992H1390.24V707H1393.64V701.312H1396.14L1399.28 707ZM1399.62 696.152C1399.62 697.496 1398.59 698.312 1397.22 698.312H1393.64V693.992H1397.22C1398.59 693.992 1399.62 694.808 1399.62 696.152ZM1416.7 707H1420.59L1414.42 690.992H1410.15L1403.95 707H1407.84L1408.85 704.288H1415.71L1416.7 707ZM1412.28 694.4L1414.78 701.288H1409.79L1412.28 694.4ZM1424.21 707H1427.65V693.992H1432.3V690.992H1419.53V693.992H1424.21V707ZM1434.49 707H1445.81V704H1437.89V700.376H1445.65V697.376H1437.89V693.992H1445.81V690.992H1434.49V707Z" fill="white"/>
<g style="mix-blend-mode:lighten" filter="url(#filter0_d)">
<path fill-rule="evenodd" clip-rule="evenodd" d="M300 570C449.117 570 570 449.117 570 300C570 150.883 449.117 30 300 30C150.883 30 30 150.883 30 300C30 449.117 150.883 570 300 570ZM300 410C360.751 410 410 360.751 410 300C410 239.249 360.751 190 300 190C239.249 190 190 239.249 190 300C190 360.751 239.249 410 300 410Z" fill="url(#paint0_linear)"/>
</g>
<path d="M232.791 308H240.155C246.007 308 250.067 304.304 250.067 298.676C250.067 293.048 246.007 289.324 240.155 289.324H232.791V308ZM236.767 304.5V292.824H240.155C243.991 292.824 246.007 295.372 246.007 298.676C246.007 301.84 243.851 304.5 240.155 304.5H236.767ZM252.889 308H256.865V289.324H252.889V308ZM259.313 305.368C261.049 307.132 263.625 308.336 267.209 308.336C272.249 308.336 274.685 305.76 274.685 302.344C274.685 298.116 270.765 297.192 267.685 296.464C265.669 295.988 263.961 295.596 263.961 294.392C263.961 293.272 264.913 292.516 266.621 292.516C268.525 292.516 270.541 293.16 272.053 294.56L274.265 291.648C272.417 289.94 269.953 289.044 266.985 289.044C262.589 289.044 259.901 291.62 259.901 294.728C259.901 298.984 263.821 299.824 266.873 300.524C268.917 301.028 270.653 301.42 270.653 302.792C270.653 303.856 269.589 304.864 267.405 304.864C264.829 304.864 262.785 303.716 261.469 302.344L259.313 305.368ZM286.406 308.336C290.522 308.336 292.874 306.068 294.218 303.744L290.802 302.092C290.018 303.632 288.338 304.808 286.406 304.808C283.018 304.808 280.554 302.204 280.554 298.676C280.554 295.148 283.018 292.544 286.406 292.544C288.338 292.544 290.018 293.748 290.802 295.26L294.218 293.58C292.902 291.256 290.522 289.016 286.406 289.016C280.806 289.016 276.466 292.936 276.466 298.676C276.466 304.416 280.806 308.336 286.406 308.336ZM295.688 298.676C295.688 304.304 299.804 308.336 305.432 308.336C311.088 308.336 315.204 304.304 315.204 298.676C315.204 293.048 311.088 289.016 305.432 289.016C299.804 289.016 295.688 293.048 295.688 298.676ZM311.116 298.676C311.116 302.148 308.876 304.808 305.432 304.808C301.988 304.808 299.776 302.148 299.776 298.676C299.776 295.176 301.988 292.544 305.432 292.544C308.876 292.544 311.116 295.176 311.116 298.676ZM322.684 308H327.668L334.864 289.324H330.328L325.176 303.688L319.996 289.324H315.46L322.684 308ZM336.588 308H349.804V304.5H340.564V300.272H349.608V296.772H340.564V292.824H349.804V289.324H336.588V308ZM363.468 308H368.032L363.832 300.888C365.848 300.412 367.92 298.648 367.92 295.344C367.92 291.872 365.54 289.324 361.648 289.324H352.912V308H356.888V301.364H359.8L363.468 308ZM363.86 295.344C363.86 296.912 362.656 297.864 361.06 297.864H356.888V292.824H361.06C362.656 292.824 363.86 293.776 363.86 295.344Z" fill="white"/>
<path d="M202.817 723H206.249V706.992H201.449L197.561 716.664L193.673 706.992H188.896V723H192.305V711.792L196.817 723H198.305L202.817 711.792V723ZM220.468 723H224.356L218.188 706.992H213.916L207.724 723H211.612L212.62 720.288H219.484L220.468 723ZM216.052 710.4L218.548 717.288H213.556L216.052 710.4ZM234.882 723H238.794L235.194 716.904C236.922 716.496 238.698 714.984 238.698 712.152C238.698 709.176 236.658 706.992 233.322 706.992H225.834V723H229.242V717.312H231.738L234.882 723ZM235.218 712.152C235.218 713.496 234.186 714.312 232.818 714.312H229.242V709.992H232.818C234.186 709.992 235.218 710.808 235.218 712.152ZM250.76 723H254.96L248.168 714.504L254.528 706.992H250.328L244.664 714.144V706.992H241.256V723H244.664V718.08L245.912 716.592L250.76 723ZM256.514 723H267.842V720H259.922V716.376H267.674V713.376H259.922V709.992H267.842V706.992H256.514V723ZM274.202 723H277.634V709.992H282.29V706.992H269.522V709.992H274.202V723ZM299.663 723H303.575L299.975 716.904C301.703 716.496 303.479 714.984 303.479 712.152C303.479 709.176 301.439 706.992 298.103 706.992H290.615V723H294.023V717.312H296.519L299.663 723ZM299.999 712.152C299.999 713.496 298.967 714.312 297.599 714.312H294.023V709.992H297.599C298.967 709.992 299.999 710.808 299.999 712.152ZM306.037 723H317.365V720H309.445V716.376H317.197V713.376H309.445V709.992H317.365V706.992H306.037V723ZM318.949 720.744C320.437 722.256 322.645 723.288 325.717 723.288C330.037 723.288 332.125 721.08 332.125 718.152C332.125 714.528 328.765 713.736 326.125 713.112C324.397 712.704 322.933 712.368 322.933 711.336C322.933 710.376 323.749 709.728 325.213 709.728C326.845 709.728 328.573 710.28 329.869 711.48L331.765 708.984C330.181 707.52 328.069 706.752 325.525 706.752C321.757 706.752 319.453 708.96 319.453 711.624C319.453 715.272 322.813 715.992 325.429 716.592C327.181 717.024 328.669 717.36 328.669 718.536C328.669 719.448 327.757 720.312 325.885 720.312C323.677 720.312 321.925 719.328 320.797 718.152L318.949 720.744ZM334.42 723H345.748V720H337.828V716.376H345.58V713.376H337.828V709.992H345.748V706.992H334.42V723ZM359.452 723H363.34L357.172 706.992H352.9L346.708 723H350.596L351.604 720.288H358.468L359.452 723ZM355.036 710.4L357.532 717.288H352.54L355.036 710.4ZM373.866 723H377.778L374.178 716.904C375.906 716.496 377.682 714.984 377.682 712.152C377.682 709.176 375.642 706.992 372.306 706.992H364.818V723H368.226V717.312H370.722L373.866 723ZM374.202 712.152C374.202 713.496 373.17 714.312 371.802 714.312H368.226V709.992H371.802C373.17 709.992 374.202 710.808 374.202 712.152ZM387.992 723.288C391.52 723.288 393.536 721.344 394.688 719.352L391.76 717.936C391.088 719.256 389.648 720.264 387.992 720.264C385.088 720.264 382.976 718.032 382.976 715.008C382.976 711.984 385.088 709.752 387.992 709.752C389.648 709.752 391.088 710.784 391.76 712.08L394.688 710.64C393.56 708.648 391.52 706.728 387.992 706.728C383.192 706.728 379.472 710.088 379.472 715.008C379.472 719.928 383.192 723.288 387.992 723.288ZM407.685 723H411.117V706.992H407.685V713.28H400.125V706.992H396.717V723H400.125V716.28H407.685V723ZM173.258 755.288C176.786 755.288 178.802 753.344 179.954 751.352L177.026 749.936C176.354 751.256 174.914 752.264 173.258 752.264C170.354 752.264 168.242 750.032 168.242 747.008C168.242 743.984 170.354 741.752 173.258 741.752C174.914 741.752 176.354 742.784 177.026 744.08L179.954 742.64C178.826 740.648 176.786 738.728 173.258 738.728C168.458 738.728 164.738 742.088 164.738 747.008C164.738 751.928 168.458 755.288 173.258 755.288ZM181.214 747.008C181.214 751.832 184.742 755.288 189.566 755.288C194.414 755.288 197.942 751.832 197.942 747.008C197.942 742.184 194.414 738.728 189.566 738.728C184.742 738.728 181.214 742.184 181.214 747.008ZM194.438 747.008C194.438 749.984 192.518 752.264 189.566 752.264C186.614 752.264 184.718 749.984 184.718 747.008C184.718 744.008 186.614 741.752 189.566 741.752C192.518 741.752 194.438 744.008 194.438 747.008ZM214.254 755H217.686V738.992H212.886L208.998 748.664L205.11 738.992H200.334V755H203.742V743.792L208.254 755H209.742L214.254 743.792V755ZM220.865 755H224.273V749.312H228.353C231.809 749.312 233.729 746.936 233.729 744.152C233.729 741.344 231.833 738.992 228.353 738.992H220.865V755ZM230.249 744.152C230.249 745.472 229.241 746.312 227.897 746.312H224.273V741.992H227.897C229.241 741.992 230.249 742.808 230.249 744.152ZM235.842 755H247.17V752H239.25V748.376H247.002V745.376H239.25V741.992H247.17V738.992H235.842V755ZM253.53 755H256.962V741.992H261.618V738.992H248.85V741.992H253.53V755ZM263.803 755H267.211V738.992H263.803V755ZM274.085 755H277.517V741.992H282.173V738.992H269.405V741.992H274.085V755ZM284.357 755H287.765V738.992H284.357V755ZM295.431 755H299.703L305.871 738.992H301.983L297.567 751.304L293.127 738.992H289.239L295.431 755ZM307.35 755H318.678V752H310.758V748.376H318.51V745.376H310.758V741.992H318.678V738.992H307.35V755ZM338.522 755H342.41L336.242 738.992H331.97L325.778 755H329.666L330.674 752.288H337.538L338.522 755ZM334.106 742.4L336.602 749.288H331.61L334.106 742.4ZM354.929 755H358.217V738.992H354.809V749.048L347.393 738.992H343.889V755H347.297V744.56L354.929 755ZM372.413 755H376.301L370.133 738.992H365.861L359.669 755H363.557L364.565 752.288H371.429L372.413 755ZM367.997 742.4L370.493 749.288H365.501L367.997 742.4ZM377.779 755H387.955V752H381.187V738.992H377.779V755ZM391.759 755H395.167V748.448L401.287 738.992H397.399L393.463 745.424L389.479 738.992H385.591L391.759 748.448V755ZM401.215 752.744C402.703 754.256 404.911 755.288 407.983 755.288C412.303 755.288 414.391 753.08 414.391 750.152C414.391 746.528 411.031 745.736 408.391 745.112C406.663 744.704 405.199 744.368 405.199 743.336C405.199 742.376 406.015 741.728 407.479 741.728C409.111 741.728 410.839 742.28 412.135 743.48L414.031 740.984C412.447 739.52 410.335 738.752 407.791 738.752C404.023 738.752 401.719 740.96 401.719 743.624C401.719 747.272 405.079 747.992 407.695 748.592C409.447 749.024 410.935 749.36 410.935 750.536C410.935 751.448 410.023 752.312 408.151 752.312C405.943 752.312 404.191 751.328 403.063 750.152L401.215 752.744ZM416.686 755H420.094V738.992H416.686V755ZM422.192 752.744C423.68 754.256 425.888 755.288 428.96 755.288C433.28 755.288 435.368 753.08 435.368 750.152C435.368 746.528 432.008 745.736 429.368 745.112C427.64 744.704 426.176 744.368 426.176 743.336C426.176 742.376 426.992 741.728 428.456 741.728C430.088 741.728 431.816 742.28 433.112 743.48L435.008 740.984C433.424 739.52 431.312 738.752 428.768 738.752C425 738.752 422.696 740.96 422.696 743.624C422.696 747.272 426.056 747.992 428.672 748.592C430.424 749.024 431.912 749.36 431.912 750.536C431.912 751.448 431 752.312 429.128 752.312C426.92 752.312 425.168 751.328 424.04 750.152L422.192 752.744ZM216.797 784.744C218.285 786.256 220.493 787.288 223.565 787.288C227.885 787.288 229.973 785.08 229.973 782.152C229.973 778.528 226.613 777.736 223.973 777.112C222.245 776.704 220.781 776.368 220.781 775.336C220.781 774.376 221.597 773.728 223.061 773.728C224.693 773.728 226.421 774.28 227.717 775.48L229.613 772.984C228.029 771.52 225.917 770.752 223.373 770.752C219.605 770.752 217.301 772.96 217.301 775.624C217.301 779.272 220.661 779.992 223.277 780.592C225.029 781.024 226.517 781.36 226.517 782.536C226.517 783.448 225.605 784.312 223.733 784.312C221.525 784.312 219.773 783.328 218.645 782.152L216.797 784.744ZM235.8 787H239.232V773.992H243.888V770.992H231.12V773.992H235.8V787ZM255.565 787H259.453L253.285 770.992H249.013L242.821 787H246.709L247.717 784.288H254.581L255.565 787ZM251.149 774.4L253.645 781.288H248.653L251.149 774.4ZM270.436 787H274.636L267.844 778.504L274.204 770.992H270.004L264.34 778.144V770.992H260.932V787H264.34V782.08L265.588 780.592L270.436 787ZM276.189 787H287.517V784H279.597V780.376H287.349V777.376H279.597V773.992H287.517V770.992H276.189V787ZM301.15 787H304.582V770.992H301.15V777.28H293.59V770.992H290.182V787H293.59V780.28H301.15V787ZM306.968 779.008C306.968 783.832 310.496 787.288 315.32 787.288C320.168 787.288 323.696 783.832 323.696 779.008C323.696 774.184 320.168 770.728 315.32 770.728C310.496 770.728 306.968 774.184 306.968 779.008ZM320.192 779.008C320.192 781.984 318.272 784.264 315.32 784.264C312.368 784.264 310.472 781.984 310.472 779.008C310.472 776.008 312.368 773.752 315.32 773.752C318.272 773.752 320.192 776.008 320.192 779.008ZM326.088 787H336.264V784H329.496V770.992H326.088V787ZM338.65 787H344.962C349.978 787 353.458 783.832 353.458 779.008C353.458 774.184 349.978 770.992 344.962 770.992H338.65V787ZM342.058 784V773.992H344.962C348.25 773.992 349.978 776.176 349.978 779.008C349.978 781.72 348.13 784 344.962 784H342.058ZM355.877 787H367.205V784H359.285V780.376H367.037V777.376H359.285V773.992H367.205V770.992H355.877V787ZM378.917 787H382.829L379.229 780.904C380.957 780.496 382.733 778.984 382.733 776.152C382.733 773.176 380.693 770.992 377.357 770.992H369.869V787H373.277V781.312H375.773L378.917 787ZM379.253 776.152C379.253 777.496 378.221 778.312 376.853 778.312H373.277V773.992H376.853C378.221 773.992 379.253 774.808 379.253 776.152ZM197.302 815.76C198.238 814.56 198.958 813.192 199.534 811.92L197.086 810.792C196.822 811.728 196.318 812.856 195.622 813.888C195.166 813.36 194.734 812.832 194.278 812.256C193.87 811.776 193.366 811.176 192.91 810.528C194.878 809.616 196.822 808.584 196.822 806.136C196.822 804 194.878 802.752 192.622 802.752C189.958 802.752 188.038 804.432 188.038 806.592C188.038 807.672 188.47 808.848 189.118 810.024C187.27 810.96 185.662 812.208 185.662 814.656C185.662 817.752 188.014 819.288 190.942 819.288C192.67 819.288 194.11 818.712 195.31 817.8C195.766 818.256 196.174 818.688 196.51 819H200.398C199.294 817.872 198.262 816.816 197.302 815.76ZM191.086 806.664C191.086 805.68 191.83 804.96 192.766 804.96C193.558 804.96 194.182 805.464 194.182 806.304C194.182 807.48 193.15 808.176 191.782 808.8C191.374 808.056 191.086 807.312 191.086 806.664ZM191.374 816.888C190.054 816.888 188.902 815.928 188.902 814.368C188.902 813.264 189.454 812.52 190.294 811.92C190.822 812.664 191.374 813.384 191.902 814.032C192.286 814.512 192.958 815.256 193.678 816.048C192.982 816.552 192.19 816.888 191.374 816.888ZM208.326 812.616C208.326 816.552 210.678 819.288 215.55 819.288C220.422 819.288 222.774 816.576 222.774 812.592V802.992H219.294V812.496C219.294 814.728 218.022 816.264 215.55 816.264C213.078 816.264 211.782 814.728 211.782 812.496V802.992H208.326V812.616ZM224.848 816.744C226.336 818.256 228.544 819.288 231.616 819.288C235.936 819.288 238.024 817.08 238.024 814.152C238.024 810.528 234.664 809.736 232.024 809.112C230.296 808.704 228.832 808.368 228.832 807.336C228.832 806.376 229.648 805.728 231.112 805.728C232.744 805.728 234.472 806.28 235.768 807.48L237.664 804.984C236.08 803.52 233.968 802.752 231.424 802.752C227.656 802.752 225.352 804.96 225.352 807.624C225.352 811.272 228.712 811.992 231.328 812.592C233.08 813.024 234.568 813.36 234.568 814.536C234.568 815.448 233.656 816.312 231.784 816.312C229.576 816.312 227.824 815.328 226.696 814.152L224.848 816.744ZM240.318 819H251.646V816H243.726V812.376H251.478V809.376H243.726V805.992H251.646V802.992H240.318V819ZM263.359 819H267.271L263.671 812.904C265.399 812.496 267.175 810.984 267.175 808.152C267.175 805.176 265.135 802.992 261.799 802.992H254.311V819H257.719V813.312H260.215L263.359 819ZM263.695 808.152C263.695 809.496 262.663 810.312 261.295 810.312H257.719V805.992H261.295C262.663 805.992 263.695 806.808 263.695 808.152ZM275.873 819H279.281V802.992H275.873V819ZM293.499 819H296.787V802.992H293.379V813.048L285.963 802.992H282.459V819H285.867V808.56L293.499 819ZM303.639 819H307.071V805.992H311.727V802.992H298.959V805.992H303.639V819ZM313.912 819H325.24V816H317.32V812.376H325.072V809.376H317.32V805.992H325.24V802.992H313.912V819ZM336.952 819H340.864L337.264 812.904C338.992 812.496 340.768 810.984 340.768 808.152C340.768 805.176 338.728 802.992 335.392 802.992H327.904V819H331.312V813.312H333.808L336.952 819ZM337.288 808.152C337.288 809.496 336.256 810.312 334.888 810.312H331.312V805.992H334.888C336.256 805.992 337.288 806.808 337.288 808.152ZM347.58 819H351.852L358.02 802.992H354.132L349.716 815.304L345.276 802.992H341.388L347.58 819ZM359.498 819H362.906V802.992H359.498V819ZM366.084 819H377.412V816H369.492V812.376H377.244V809.376H369.492V805.992H377.412V802.992H366.084V819ZM392.316 819H395.94L400.5 802.992H396.66L393.876 814.56L390.852 802.992H388.188L385.14 814.56L382.332 802.992H378.516L383.1 819H386.724L389.508 808.008L392.316 819ZM401.027 816.744C402.515 818.256 404.723 819.288 407.795 819.288C412.115 819.288 414.203 817.08 414.203 814.152C414.203 810.528 410.843 809.736 408.203 809.112C406.475 808.704 405.011 808.368 405.011 807.336C405.011 806.376 405.827 805.728 407.291 805.728C408.923 805.728 410.651 806.28 411.947 807.48L413.843 804.984C412.259 803.52 410.147 802.752 407.603 802.752C403.835 802.752 401.531 804.96 401.531 807.624C401.531 811.272 404.891 811.992 407.507 812.592C409.259 813.024 410.747 813.36 410.747 814.536C410.747 815.448 409.835 816.312 407.963 816.312C405.755 816.312 404.003 815.328 402.875 814.152L401.027 816.744Z" fill="white"/>
<rect x="299" y="498" width="2" height="182" rx="1" fill="white"/>
<circle cx="300" cy="490" r="8.5" stroke="white" stroke-width="3"/>
<g style="mix-blend-mode:lighten" filter="url(#filter1_d)">
<path fill-rule="evenodd" clip-rule="evenodd" d="M740 570C889.117 570 1010 449.117 1010 300C1010 150.883 889.117 30 740 30C590.883 30 470 150.883 470 300C470 449.117 590.883 570 740 570ZM740 410C800.751 410 850 360.751 850 300C850 239.249 800.751 190 740 190C679.249 190 630 239.249 630 300C630 360.751 679.249 410 740 410Z" fill="url(#paint1_linear)"/>
</g>
<path d="M693.436 308H700.8C706.652 308 710.712 304.304 710.712 298.676C710.712 293.048 706.652 289.324 700.8 289.324H693.436V308ZM697.412 304.5V292.824H700.8C704.636 292.824 706.652 295.372 706.652 298.676C706.652 301.84 704.496 304.5 700.8 304.5H697.412ZM713.534 308H726.75V304.5H717.51V300.272H726.554V296.772H717.51V292.824H726.75V289.324H713.534V308ZM729.858 308H733.834V300.272H742.878V296.772H733.834V292.824H743.074V289.324H729.858V308ZM745.854 308H749.83V289.324H745.854V308ZM766.417 308H770.253V289.324H766.277V301.056L757.625 289.324H753.537V308H757.513V295.82L766.417 308ZM773.936 308H787.152V304.5H777.912V300.272H786.956V296.772H777.912V292.824H787.152V289.324H773.936V308Z" fill="white"/>
<path d="M697.534 723H701.422L695.254 706.992H690.982L684.79 723H688.678L689.686 720.288H696.55L697.534 723ZM693.118 710.4L695.614 717.288H690.622L693.118 710.4ZM713.94 723H717.228V706.992H713.82V717.048L706.404 706.992H702.9V723H706.308V712.56L713.94 723ZM731.425 723H735.313L729.145 706.992H724.873L718.681 723H722.569L723.577 720.288H730.441L731.425 723ZM727.009 710.4L729.505 717.288H724.513L727.009 710.4ZM736.791 723H746.967V720H740.199V706.992H736.791V723ZM750.771 723H754.179V716.448L760.299 706.992H756.411L752.475 713.424L748.491 706.992H744.603L750.771 716.448V723ZM760.227 720.744C761.715 722.256 763.923 723.288 766.995 723.288C771.315 723.288 773.403 721.08 773.403 718.152C773.403 714.528 770.043 713.736 767.403 713.112C765.675 712.704 764.211 712.368 764.211 711.336C764.211 710.376 765.027 709.728 766.491 709.728C768.123 709.728 769.851 710.28 771.147 711.48L773.043 708.984C771.459 707.52 769.347 706.752 766.803 706.752C763.035 706.752 760.731 708.96 760.731 711.624C760.731 715.272 764.091 715.992 766.707 716.592C768.459 717.024 769.947 717.36 769.947 718.536C769.947 719.448 769.035 720.312 767.163 720.312C764.955 720.312 763.203 719.328 762.075 718.152L760.227 720.744ZM775.697 723H779.105V706.992H775.697V723ZM781.203 720.744C782.691 722.256 784.899 723.288 787.971 723.288C792.291 723.288 794.379 721.08 794.379 718.152C794.379 714.528 791.019 713.736 788.379 713.112C786.651 712.704 785.187 712.368 785.187 711.336C785.187 710.376 786.003 709.728 787.467 709.728C789.099 709.728 790.827 710.28 792.123 711.48L794.019 708.984C792.435 707.52 790.323 706.752 787.779 706.752C784.011 706.752 781.707 708.96 781.707 711.624C781.707 715.272 785.067 715.992 787.683 716.592C789.435 717.024 790.923 717.36 790.923 718.536C790.923 719.448 790.011 720.312 788.139 720.312C785.931 720.312 784.179 719.328 783.051 718.152L781.203 720.744ZM662.342 748.616C662.342 752.552 664.694 755.288 669.566 755.288C674.438 755.288 676.79 752.576 676.79 748.592V738.992H673.31V748.496C673.31 750.728 672.038 752.264 669.566 752.264C667.094 752.264 665.798 750.728 665.798 748.496V738.992H662.342V748.616ZM690.383 755H694.463L688.655 746.768L694.103 738.992H689.999L686.375 744.464L682.703 738.992H678.647L684.095 746.792L678.287 755H682.343L686.375 749.144L690.383 755ZM701.035 752.744C702.523 754.256 704.731 755.288 707.803 755.288C712.123 755.288 714.211 753.08 714.211 750.152C714.211 746.528 710.851 745.736 708.211 745.112C706.483 744.704 705.019 744.368 705.019 743.336C705.019 742.376 705.835 741.728 707.299 741.728C708.931 741.728 710.659 742.28 711.955 743.48L713.851 740.984C712.267 739.52 710.155 738.752 707.611 738.752C703.843 738.752 701.539 740.96 701.539 743.624C701.539 747.272 704.899 747.992 707.515 748.592C709.267 749.024 710.755 749.36 710.755 750.536C710.755 751.448 709.843 752.312 707.971 752.312C705.763 752.312 704.011 751.328 702.883 750.152L701.035 752.744ZM720.038 755H723.47V741.992H728.126V738.992H715.358V741.992H720.038V755ZM739.359 755H743.271L739.671 748.904C741.399 748.496 743.175 746.984 743.175 744.152C743.175 741.176 741.135 738.992 737.799 738.992H730.311V755H733.719V749.312H736.215L739.359 755ZM739.695 744.152C739.695 745.496 738.663 746.312 737.295 746.312H733.719V741.992H737.295C738.663 741.992 739.695 742.808 739.695 744.152ZM756.772 755H760.66L754.492 738.992H750.22L744.028 755H747.916L748.924 752.288H755.788L756.772 755ZM752.356 742.4L754.852 749.288H749.86L752.356 742.4ZM764.288 755H767.72V741.992H772.376V738.992H759.608V741.992H764.288V755ZM774.561 755H785.889V752H777.969V748.376H785.721V745.376H777.969V741.992H785.889V738.992H774.561V755ZM787.785 747.008C787.785 752.048 791.625 755.312 796.305 755.312C799.209 755.312 801.489 754.112 803.121 752.288V746.144H795.489V749.12H799.713V751.04C799.065 751.64 797.721 752.264 796.305 752.264C793.401 752.264 791.289 750.032 791.289 747.008C791.289 743.984 793.401 741.752 796.305 741.752C798.009 741.752 799.377 742.712 800.097 743.84L802.929 742.304C801.729 740.408 799.641 738.728 796.305 738.728C791.625 738.728 787.785 741.944 787.785 747.008ZM809.821 755H813.229V748.448L819.349 738.992H815.461L811.525 745.424L807.541 738.992H803.653L809.821 748.448V755ZM598.955 780.616C598.955 784.552 601.307 787.288 606.179 787.288C611.051 787.288 613.403 784.576 613.403 780.592V770.992H609.923V780.496C609.923 782.728 608.651 784.264 606.179 784.264C603.707 784.264 602.411 782.728 602.411 780.496V770.992H598.955V780.616ZM615.477 784.744C616.965 786.256 619.173 787.288 622.245 787.288C626.565 787.288 628.653 785.08 628.653 782.152C628.653 778.528 625.293 777.736 622.653 777.112C620.925 776.704 619.461 776.368 619.461 775.336C619.461 774.376 620.277 773.728 621.741 773.728C623.373 773.728 625.101 774.28 626.397 775.48L628.293 772.984C626.709 771.52 624.597 770.752 622.053 770.752C618.285 770.752 615.981 772.96 615.981 775.624C615.981 779.272 619.341 779.992 621.957 780.592C623.709 781.024 625.197 781.36 625.197 782.536C625.197 783.448 624.285 784.312 622.413 784.312C620.205 784.312 618.453 783.328 617.325 782.152L615.477 784.744ZM630.947 787H642.275V784H634.355V780.376H642.107V777.376H634.355V773.992H642.275V770.992H630.947V787ZM653.987 787H657.899L654.299 780.904C656.027 780.496 657.803 778.984 657.803 776.152C657.803 773.176 655.763 770.992 652.427 770.992H644.939V787H648.347V781.312H650.843L653.987 787ZM654.323 776.152C654.323 777.496 653.291 778.312 651.923 778.312H648.347V773.992H651.923C653.291 773.992 654.323 774.808 654.323 776.152ZM665.062 785.728C666.214 786.856 667.75 787.288 669.358 787.288C672.646 787.288 674.998 785.536 674.998 781.744V770.992H671.59V781.696C671.59 783.256 670.606 784.264 669.094 784.264C667.99 784.264 667.174 783.712 666.55 783.112L665.062 785.728ZM677.406 779.008C677.406 783.832 680.934 787.288 685.758 787.288C690.606 787.288 694.134 783.832 694.134 779.008C694.134 774.184 690.606 770.728 685.758 770.728C680.934 770.728 677.406 774.184 677.406 779.008ZM690.63 779.008C690.63 781.984 688.71 784.264 685.758 784.264C682.806 784.264 680.91 781.984 680.91 779.008C680.91 776.008 682.806 773.752 685.758 773.752C688.71 773.752 690.63 776.008 690.63 779.008ZM696.525 780.616C696.525 784.552 698.877 787.288 703.749 787.288C708.621 787.288 710.973 784.576 710.973 780.592V770.992H707.493V780.496C707.493 782.728 706.221 784.264 703.749 784.264C701.277 784.264 699.981 782.728 699.981 780.496V770.992H696.525V780.616ZM723.175 787H727.087L723.487 780.904C725.215 780.496 726.991 778.984 726.991 776.152C726.991 773.176 724.951 770.992 721.615 770.992H714.127V787H717.535V781.312H720.031L723.175 787ZM723.511 776.152C723.511 777.496 722.479 778.312 721.111 778.312H717.535V773.992H721.111C722.479 773.992 723.511 774.808 723.511 776.152ZM740.589 787H743.877V770.992H740.469V781.048L733.053 770.992H729.549V787H732.957V776.56L740.589 787ZM747.033 787H758.361V784H750.441V780.376H758.193V777.376H750.441V773.992H758.361V770.992H747.033V787ZM765.489 787H768.897V780.448L775.017 770.992H771.129L767.193 777.424L763.209 770.992H759.321L765.489 780.448V787ZM793.267 783.76C794.203 782.56 794.923 781.192 795.499 779.92L793.051 778.792C792.787 779.728 792.283 780.856 791.587 781.888C791.131 781.36 790.699 780.832 790.243 780.256C789.835 779.776 789.331 779.176 788.875 778.528C790.843 777.616 792.787 776.584 792.787 774.136C792.787 772 790.843 770.752 788.587 770.752C785.923 770.752 784.003 772.432 784.003 774.592C784.003 775.672 784.435 776.848 785.083 778.024C783.235 778.96 781.627 780.208 781.627 782.656C781.627 785.752 783.979 787.288 786.907 787.288C788.635 787.288 790.075 786.712 791.275 785.8C791.731 786.256 792.139 786.688 792.475 787H796.363C795.259 785.872 794.227 784.816 793.267 783.76ZM787.051 774.664C787.051 773.68 787.795 772.96 788.731 772.96C789.523 772.96 790.147 773.464 790.147 774.304C790.147 775.48 789.115 776.176 787.747 776.8C787.339 776.056 787.051 775.312 787.051 774.664ZM787.339 784.888C786.019 784.888 784.867 783.928 784.867 782.368C784.867 781.264 785.419 780.52 786.259 779.92C786.787 780.664 787.339 781.384 787.867 782.032C788.251 782.512 788.923 783.256 789.643 784.048C788.947 784.552 788.155 784.888 787.339 784.888ZM804.291 787H807.699V780.376H815.451V777.376H807.699V773.992H815.619V770.992H804.291V787ZM818.002 787H828.178V784H821.41V770.992H818.002V787ZM829.14 779.008C829.14 783.832 832.668 787.288 837.492 787.288C842.34 787.288 845.868 783.832 845.868 779.008C845.868 774.184 842.34 770.728 837.492 770.728C832.668 770.728 829.14 774.184 829.14 779.008ZM842.364 779.008C842.364 781.984 840.444 784.264 837.492 784.264C834.54 784.264 832.644 781.984 832.644 779.008C832.644 776.008 834.54 773.752 837.492 773.752C840.444 773.752 842.364 776.008 842.364 779.008ZM860.031 787H863.655L868.215 770.992H864.375L861.591 782.56L858.567 770.992H855.903L852.855 782.56L850.047 770.992H846.231L850.815 787H854.439L857.223 776.008L860.031 787ZM868.742 784.744C870.23 786.256 872.438 787.288 875.51 787.288C879.83 787.288 881.918 785.08 881.918 782.152C881.918 778.528 878.558 777.736 875.918 777.112C874.19 776.704 872.726 776.368 872.726 775.336C872.726 774.376 873.542 773.728 875.006 773.728C876.638 773.728 878.366 774.28 879.662 775.48L881.558 772.984C879.974 771.52 877.862 770.752 875.318 770.752C871.55 770.752 869.246 772.96 869.246 775.624C869.246 779.272 872.606 779.992 875.222 780.592C876.974 781.024 878.462 781.36 878.462 782.536C878.462 783.448 877.55 784.312 875.678 784.312C873.47 784.312 871.718 783.328 870.59 782.152L868.742 784.744Z" fill="white"/>
<rect x="739" y="498" width="2" height="182" rx="1" fill="white"/>
<circle cx="740" cy="490" r="8.5" stroke="white" stroke-width="3"/>
<g style="mix-blend-mode:lighten" filter="url(#filter2_d)">
<path fill-rule="evenodd" clip-rule="evenodd" d="M1180 570C1329.12 570 1450 449.117 1450 300C1450 150.883 1329.12 30 1180 30C1030.88 30 910 150.883 910 300C910 449.117 1030.88 570 1180 570ZM1180 410C1240.75 410 1290 360.751 1290 300C1290 239.249 1240.75 190 1180 190C1119.25 190 1070 239.249 1070 300C1070 360.751 1119.25 410 1180 410Z" fill="url(#paint2_linear)"/>
</g>
<path d="M1131.13 308H1138.49C1144.34 308 1148.4 304.304 1148.4 298.676C1148.4 293.048 1144.34 289.324 1138.49 289.324H1131.13V308ZM1135.1 304.5V292.824H1138.49C1142.33 292.824 1144.34 295.372 1144.34 298.676C1144.34 301.84 1142.19 304.5 1138.49 304.5H1135.1ZM1151.22 308H1164.44V304.5H1155.2V300.272H1164.24V296.772H1155.2V292.824H1164.44V289.324H1151.22V308ZM1166.29 305.368C1168.02 307.132 1170.6 308.336 1174.18 308.336C1179.22 308.336 1181.66 305.76 1181.66 302.344C1181.66 298.116 1177.74 297.192 1174.66 296.464C1172.64 295.988 1170.94 295.596 1170.94 294.392C1170.94 293.272 1171.89 292.516 1173.6 292.516C1175.5 292.516 1177.52 293.16 1179.03 294.56L1181.24 291.648C1179.39 289.94 1176.93 289.044 1173.96 289.044C1169.56 289.044 1166.88 291.62 1166.88 294.728C1166.88 298.984 1170.8 299.824 1173.85 300.524C1175.89 301.028 1177.63 301.42 1177.63 302.792C1177.63 303.856 1176.56 304.864 1174.38 304.864C1171.8 304.864 1169.76 303.716 1168.44 302.344L1166.29 305.368ZM1184.34 308H1188.31V289.324H1184.34V308ZM1191.12 298.676C1191.12 304.556 1195.6 308.364 1201.06 308.364C1204.45 308.364 1207.11 306.964 1209.02 304.836V297.668H1200.11V301.14H1205.04V303.38C1204.28 304.08 1202.72 304.808 1201.06 304.808C1197.68 304.808 1195.21 302.204 1195.21 298.676C1195.21 295.148 1197.68 292.544 1201.06 292.544C1203.05 292.544 1204.65 293.664 1205.49 294.98L1208.79 293.188C1207.39 290.976 1204.96 289.016 1201.06 289.016C1195.6 289.016 1191.12 292.768 1191.12 298.676ZM1225.05 308H1228.89V289.324H1224.91V301.056L1216.26 289.324H1212.17V308H1216.15V295.82L1225.05 308Z" fill="white"/>
<path d="M1120.79 720.744C1122.27 722.256 1124.48 723.288 1127.55 723.288C1131.87 723.288 1133.96 721.08 1133.96 718.152C1133.96 714.528 1130.6 713.736 1127.96 713.112C1126.23 712.704 1124.77 712.368 1124.77 711.336C1124.77 710.376 1125.59 709.728 1127.05 709.728C1128.68 709.728 1130.41 710.28 1131.71 711.48L1133.6 708.984C1132.02 707.52 1129.91 706.752 1127.36 706.752C1123.59 706.752 1121.29 708.96 1121.29 711.624C1121.29 715.272 1124.65 715.992 1127.27 716.592C1129.02 717.024 1130.51 717.36 1130.51 718.536C1130.51 719.448 1129.59 720.312 1127.72 720.312C1125.51 720.312 1123.76 719.328 1122.63 718.152L1120.79 720.744ZM1145.76 723H1149.96L1143.17 714.504L1149.53 706.992H1145.33L1139.66 714.144V706.992H1136.26V723H1139.66V718.08L1140.91 716.592L1145.76 723ZM1151.51 723H1162.84V720H1154.92V716.376H1162.67V713.376H1154.92V709.992H1162.84V706.992H1151.51V723ZM1169.2 723H1172.63V709.992H1177.29V706.992H1164.52V709.992H1169.2V723ZM1186.64 723.288C1190.17 723.288 1192.18 721.344 1193.34 719.352L1190.41 717.936C1189.74 719.256 1188.3 720.264 1186.64 720.264C1183.74 720.264 1181.62 718.032 1181.62 715.008C1181.62 711.984 1183.74 709.752 1186.64 709.752C1188.3 709.752 1189.74 710.784 1190.41 712.08L1193.34 710.64C1192.21 708.648 1190.17 706.728 1186.64 706.728C1181.84 706.728 1178.12 710.088 1178.12 715.008C1178.12 719.928 1181.84 723.288 1186.64 723.288ZM1206.33 723H1209.77V706.992H1206.33V713.28H1198.77V706.992H1195.37V723H1198.77V716.28H1206.33V723ZM1212.92 723H1224.25V720H1216.33V716.376H1224.08V713.376H1216.33V709.992H1224.25V706.992H1212.92V723ZM1225.83 720.744C1227.32 722.256 1229.53 723.288 1232.6 723.288C1236.92 723.288 1239.01 721.08 1239.01 718.152C1239.01 714.528 1235.65 713.736 1233.01 713.112C1231.28 712.704 1229.82 712.368 1229.82 711.336C1229.82 710.376 1230.63 709.728 1232.1 709.728C1233.73 709.728 1235.46 710.28 1236.75 711.48L1238.65 708.984C1237.06 707.52 1234.95 706.752 1232.41 706.752C1228.64 706.752 1226.34 708.96 1226.34 711.624C1226.34 715.272 1229.7 715.992 1232.31 716.592C1234.06 717.024 1235.55 717.36 1235.55 718.536C1235.55 719.448 1234.64 720.312 1232.77 720.312C1230.56 720.312 1228.81 719.328 1227.68 718.152L1225.83 720.744ZM1117.58 755H1121.21L1125.77 738.992H1121.93L1119.14 750.56L1116.12 738.992H1113.45L1110.41 750.56L1107.6 738.992H1103.78L1108.37 755H1111.99L1114.77 744.008L1117.58 755ZM1127.37 755H1130.78V738.992H1127.37V755ZM1143.01 755H1146.92L1143.32 748.904C1145.05 748.496 1146.82 746.984 1146.82 744.152C1146.82 741.176 1144.78 738.992 1141.45 738.992H1133.96V755H1137.37V749.312H1139.86L1143.01 755ZM1143.34 744.152C1143.34 745.496 1142.31 746.312 1140.94 746.312H1137.37V741.992H1140.94C1142.31 741.992 1143.34 742.808 1143.34 744.152ZM1149.38 755H1160.71V752H1152.79V748.376H1160.54V745.376H1152.79V741.992H1160.71V738.992H1149.38V755ZM1163.37 755H1166.78V748.376H1174.53V745.376H1166.78V741.992H1174.7V738.992H1163.37V755ZM1186.13 755H1190.04L1186.44 748.904C1188.17 748.496 1189.95 746.984 1189.95 744.152C1189.95 741.176 1187.91 738.992 1184.57 738.992H1177.08V755H1180.49V749.312H1182.99L1186.13 755ZM1186.47 744.152C1186.47 745.496 1185.44 746.312 1184.07 746.312H1180.49V741.992H1184.07C1185.44 741.992 1186.47 742.808 1186.47 744.152ZM1203.55 755H1207.43L1201.27 738.992H1196.99L1190.8 755H1194.69L1195.7 752.288H1202.56L1203.55 755ZM1199.13 742.4L1201.63 749.288H1196.63L1199.13 742.4ZM1222.83 755H1226.26V738.992H1221.46L1217.58 748.664L1213.69 738.992H1208.91V755H1212.32V743.792L1216.83 755H1218.32L1222.83 743.792V755ZM1229.44 755H1240.77V752H1232.85V748.376H1240.6V745.376H1232.85V741.992H1240.77V738.992H1229.44V755ZM1242.36 752.744C1243.84 754.256 1246.05 755.288 1249.12 755.288C1253.44 755.288 1255.53 753.08 1255.53 750.152C1255.53 746.528 1252.17 745.736 1249.53 745.112C1247.8 744.704 1246.34 744.368 1246.34 743.336C1246.34 742.376 1247.16 741.728 1248.62 741.728C1250.25 741.728 1251.98 742.28 1253.28 743.48L1255.17 740.984C1253.59 739.52 1251.48 738.752 1248.93 738.752C1245.16 738.752 1242.86 740.96 1242.86 743.624C1242.86 747.272 1246.22 747.992 1248.84 748.592C1250.59 749.024 1252.08 749.36 1252.08 750.536C1252.08 751.448 1251.16 752.312 1249.29 752.312C1247.08 752.312 1245.33 751.328 1244.2 750.152L1242.36 752.744ZM1136.71 787H1140.14V770.992H1135.34L1131.46 780.664L1127.57 770.992H1122.79V787H1126.2V775.792L1130.71 787H1132.2L1136.71 775.792V787ZM1142.55 779.008C1142.55 783.832 1146.08 787.288 1150.91 787.288C1155.75 787.288 1159.28 783.832 1159.28 779.008C1159.28 774.184 1155.75 770.728 1150.91 770.728C1146.08 770.728 1142.55 774.184 1142.55 779.008ZM1155.78 779.008C1155.78 781.984 1153.86 784.264 1150.91 784.264C1147.95 784.264 1146.06 781.984 1146.06 779.008C1146.06 776.008 1147.95 773.752 1150.91 773.752C1153.86 773.752 1155.78 776.008 1155.78 779.008ZM1169.43 787.288C1172.95 787.288 1174.97 785.344 1176.12 783.352L1173.19 781.936C1172.52 783.256 1171.08 784.264 1169.43 784.264C1166.52 784.264 1164.41 782.032 1164.41 779.008C1164.41 775.984 1166.52 773.752 1169.43 773.752C1171.08 773.752 1172.52 774.784 1173.19 776.08L1176.12 774.64C1174.99 772.648 1172.95 770.728 1169.43 770.728C1164.63 770.728 1160.91 774.088 1160.91 779.008C1160.91 783.928 1164.63 787.288 1169.43 787.288ZM1187.65 787H1191.85L1185.06 778.504L1191.42 770.992H1187.22L1181.56 778.144V770.992H1178.15V787H1181.56V782.08L1182.81 780.592L1187.65 787ZM1193.41 780.616C1193.41 784.552 1195.76 787.288 1200.63 787.288C1205.5 787.288 1207.86 784.576 1207.86 780.592V770.992H1204.38V780.496C1204.38 782.728 1203.1 784.264 1200.63 784.264C1198.16 784.264 1196.86 782.728 1196.86 780.496V770.992H1193.41V780.616ZM1211.01 787H1214.42V781.312H1218.5C1221.95 781.312 1223.87 778.936 1223.87 776.152C1223.87 773.344 1221.98 770.992 1218.5 770.992H1211.01V787ZM1220.39 776.152C1220.39 777.472 1219.39 778.312 1218.04 778.312H1214.42V773.992H1218.04C1219.39 773.992 1220.39 774.808 1220.39 776.152ZM1224.91 784.744C1226.39 786.256 1228.6 787.288 1231.67 787.288C1235.99 787.288 1238.08 785.08 1238.08 782.152C1238.08 778.528 1234.72 777.736 1232.08 777.112C1230.35 776.704 1228.89 776.368 1228.89 775.336C1228.89 774.376 1229.71 773.728 1231.17 773.728C1232.8 773.728 1234.53 774.28 1235.83 775.48L1237.72 772.984C1236.14 771.52 1234.03 770.752 1231.48 770.752C1227.71 770.752 1225.41 772.96 1225.41 775.624C1225.41 779.272 1228.77 779.992 1231.39 780.592C1233.14 781.024 1234.63 781.36 1234.63 782.536C1234.63 783.448 1233.71 784.312 1231.84 784.312C1229.63 784.312 1227.88 783.328 1226.75 782.152L1224.91 784.744ZM1083.4 819H1086.83V802.992H1082.03L1078.15 812.664L1074.26 802.992H1069.48V819H1072.89V807.792L1077.4 819H1078.89L1083.4 807.792V819ZM1094.5 819H1098.77L1104.94 802.992H1101.05L1096.64 815.304L1092.2 802.992H1088.31L1094.5 819ZM1106.42 819H1109.83V813.312H1113.91C1117.36 813.312 1119.28 810.936 1119.28 808.152C1119.28 805.344 1117.39 802.992 1113.91 802.992H1106.42V819ZM1115.8 808.152C1115.8 809.472 1114.8 810.312 1113.45 810.312H1109.83V805.992H1113.45C1114.8 805.992 1115.8 806.808 1115.8 808.152ZM1125.95 819.48H1128.16L1133.85 802.512H1131.64L1125.95 819.48ZM1141.58 819H1144.98V813.312H1149.06C1152.52 813.312 1154.44 810.936 1154.44 808.152C1154.44 805.344 1152.54 802.992 1149.06 802.992H1141.58V819ZM1150.96 808.152C1150.96 809.472 1149.95 810.312 1148.61 810.312H1144.98V805.992H1148.61C1149.95 805.992 1150.96 806.808 1150.96 808.152ZM1165.6 819H1169.51L1165.91 812.904C1167.64 812.496 1169.42 810.984 1169.42 808.152C1169.42 805.176 1167.38 802.992 1164.04 802.992H1156.55V819H1159.96V813.312H1162.46L1165.6 819ZM1165.94 808.152C1165.94 809.496 1164.9 810.312 1163.54 810.312H1159.96V805.992H1163.54C1164.9 805.992 1165.94 806.808 1165.94 808.152ZM1171.21 811.008C1171.21 815.832 1174.73 819.288 1179.56 819.288C1184.41 819.288 1187.93 815.832 1187.93 811.008C1187.93 806.184 1184.41 802.728 1179.56 802.728C1174.73 802.728 1171.21 806.184 1171.21 811.008ZM1184.43 811.008C1184.43 813.984 1182.51 816.264 1179.56 816.264C1176.61 816.264 1174.71 813.984 1174.71 811.008C1174.71 808.008 1176.61 805.752 1179.56 805.752C1182.51 805.752 1184.43 808.008 1184.43 811.008ZM1193.44 819H1196.87V805.992H1201.52V802.992H1188.76V805.992H1193.44V819ZM1202.36 811.008C1202.36 815.832 1205.88 819.288 1210.71 819.288C1215.56 819.288 1219.08 815.832 1219.08 811.008C1219.08 806.184 1215.56 802.728 1210.71 802.728C1205.88 802.728 1202.36 806.184 1202.36 811.008ZM1215.58 811.008C1215.58 813.984 1213.66 816.264 1210.71 816.264C1207.76 816.264 1205.86 813.984 1205.86 811.008C1205.86 808.008 1207.76 805.752 1210.71 805.752C1213.66 805.752 1215.58 808.008 1215.58 811.008ZM1224.58 819H1228.02V805.992H1232.67V802.992H1219.9V805.992H1224.58V819ZM1239.32 819H1242.73V812.448L1248.85 802.992H1244.96L1241.03 809.424L1237.04 802.992H1233.15L1239.32 812.448V819ZM1250.33 819H1253.73V813.312H1257.81C1261.27 813.312 1263.19 810.936 1263.19 808.152C1263.19 805.344 1261.29 802.992 1257.81 802.992H1250.33V819ZM1259.71 808.152C1259.71 809.472 1258.7 810.312 1257.36 810.312H1253.73V805.992H1257.36C1258.7 805.992 1259.71 806.808 1259.71 808.152ZM1265.3 819H1276.63V816H1268.71V812.376H1276.46V809.376H1268.71V805.992H1276.63V802.992H1265.3V819ZM1278.21 816.744C1279.7 818.256 1281.91 819.288 1284.98 819.288C1289.3 819.288 1291.39 817.08 1291.39 814.152C1291.39 810.528 1288.03 809.736 1285.39 809.112C1283.66 808.704 1282.2 808.368 1282.2 807.336C1282.2 806.376 1283.01 805.728 1284.48 805.728C1286.11 805.728 1287.84 806.28 1289.13 807.48L1291.03 804.984C1289.45 803.52 1287.33 802.752 1284.79 802.752C1281.02 802.752 1278.72 804.96 1278.72 807.624C1278.72 811.272 1282.08 811.992 1284.69 812.592C1286.45 813.024 1287.93 813.36 1287.93 814.536C1287.93 815.448 1287.02 816.312 1285.15 816.312C1282.94 816.312 1281.19 815.328 1280.06 814.152L1278.21 816.744Z" fill="white"/>
<rect x="1179" y="498" width="2" height="182" rx="1" fill="white"/>
<circle cx="1180" cy="490" r="8.5" stroke="white" stroke-width="3"/>
<g style="mix-blend-mode:lighten" filter="url(#filter3_d)">
<path fill-rule="evenodd" clip-rule="evenodd" d="M1620 570C1769.12 570 1890 449.117 1890 300C1890 150.883 1769.12 30 1620 30C1470.88 30 1350 150.883 1350 300C1350 449.117 1470.88 570 1620 570ZM1620 410C1680.75 410 1730 360.751 1730 300C1730 239.249 1680.75 190 1620 190C1559.25 190 1510 239.249 1510 300C1510 360.751 1559.25 410 1620 410Z" fill="url(#paint3_linear)"/>
</g>
<path d="M1543.32 308H1547.29V289.324H1543.32V308ZM1567.24 308H1571.24V289.324H1565.64L1561.11 300.608L1556.57 289.324H1551V308H1554.98V294.924L1560.24 308H1561.98L1567.24 294.924V308ZM1574.95 308H1578.93V301.364H1583.69C1587.72 301.364 1589.96 298.592 1589.96 295.344C1589.96 292.068 1587.75 289.324 1583.69 289.324H1574.95V308ZM1585.9 295.344C1585.9 296.884 1584.73 297.864 1583.16 297.864H1578.93V292.824H1583.16C1584.73 292.824 1585.9 293.776 1585.9 295.344ZM1592.43 308H1604.3V304.5H1596.4V289.324H1592.43V308ZM1607.08 308H1620.3V304.5H1611.06V300.272H1620.1V296.772H1611.06V292.824H1620.3V289.324H1607.08V308ZM1639.65 308H1643.65V289.324H1638.05L1633.51 300.608L1628.98 289.324H1623.41V308H1627.38V294.924L1632.65 308H1634.38L1639.65 294.924V308ZM1647.36 308H1660.58V304.5H1651.34V300.272H1660.38V296.772H1651.34V292.824H1660.58V289.324H1647.36V308ZM1676.56 308H1680.4V289.324H1676.42V301.056L1667.77 289.324H1663.68V308H1667.66V295.82L1676.56 308ZM1688.39 308H1692.4V292.824H1697.83V289.324H1682.93V292.824H1688.39V308Z" fill="white"/>
<path d="M1535.17 723H1541.48C1546.5 723 1549.98 719.832 1549.98 715.008C1549.98 710.184 1546.5 706.992 1541.48 706.992H1535.17V723ZM1538.58 720V709.992H1541.48C1544.77 709.992 1546.5 712.176 1546.5 715.008C1546.5 717.72 1544.65 720 1541.48 720H1538.58ZM1552.4 723H1563.72V720H1555.8V716.376H1563.56V713.376H1555.8V709.992H1563.72V706.992H1552.4V723ZM1570.88 723H1575.15L1581.32 706.992H1577.43L1573.01 719.304L1568.57 706.992H1564.68L1570.88 723ZM1582.79 723H1594.12V720H1586.2V716.376H1593.95V713.376H1586.2V709.992H1594.12V706.992H1582.79V723ZM1596.79 723H1606.96V720H1600.2V706.992H1596.79V723ZM1607.93 715.008C1607.93 719.832 1611.45 723.288 1616.28 723.288C1621.13 723.288 1624.65 719.832 1624.65 715.008C1624.65 710.184 1621.13 706.728 1616.28 706.728C1611.45 706.728 1607.93 710.184 1607.93 715.008ZM1621.15 715.008C1621.15 717.984 1619.23 720.264 1616.28 720.264C1613.33 720.264 1611.43 717.984 1611.43 715.008C1611.43 712.008 1613.33 709.752 1616.28 709.752C1619.23 709.752 1621.15 712.008 1621.15 715.008ZM1627.04 723H1630.45V717.312H1634.53C1637.99 717.312 1639.91 714.936 1639.91 712.152C1639.91 709.344 1638.01 706.992 1634.53 706.992H1627.04V723ZM1636.43 712.152C1636.43 713.472 1635.42 714.312 1634.08 714.312H1630.45V709.992H1634.08C1635.42 709.992 1636.43 710.808 1636.43 712.152ZM1655.94 723H1659.37V706.992H1654.57L1650.69 716.664L1646.8 706.992H1642.02V723H1645.43V711.792L1649.94 723H1651.43L1655.94 711.792V723ZM1662.55 723H1673.88V720H1665.96V716.376H1673.71V713.376H1665.96V709.992H1673.88V706.992H1662.55V723ZM1687.58 723H1690.87V706.992H1687.46V717.048L1680.05 706.992H1676.54V723H1679.95V712.56L1687.58 723ZM1697.73 723H1701.16V709.992H1705.81V706.992H1693.05V709.992H1697.73V723ZM1521.87 755H1528.18C1533.2 755 1536.68 751.832 1536.68 747.008C1536.68 742.184 1533.2 738.992 1528.18 738.992H1521.87V755ZM1525.28 752V741.992H1528.18C1531.47 741.992 1533.2 744.176 1533.2 747.008C1533.2 749.72 1531.35 752 1528.18 752H1525.28ZM1539.1 755H1550.42V752H1542.5V748.376H1550.26V745.376H1542.5V741.992H1550.42V738.992H1539.1V755ZM1552.01 752.744C1553.5 754.256 1555.7 755.288 1558.78 755.288C1563.1 755.288 1565.18 753.08 1565.18 750.152C1565.18 746.528 1561.82 745.736 1559.18 745.112C1557.46 744.704 1555.99 744.368 1555.99 743.336C1555.99 742.376 1556.81 741.728 1558.27 741.728C1559.9 741.728 1561.63 742.28 1562.93 743.48L1564.82 740.984C1563.24 739.52 1561.13 738.752 1558.58 738.752C1554.82 738.752 1552.51 740.96 1552.51 743.624C1552.51 747.272 1555.87 747.992 1558.49 748.592C1560.24 749.024 1561.73 749.36 1561.73 750.536C1561.73 751.448 1560.82 752.312 1558.94 752.312C1556.74 752.312 1554.98 751.328 1553.86 750.152L1552.01 752.744ZM1567.48 755H1570.89V738.992H1567.48V755ZM1573.3 747.008C1573.3 752.048 1577.14 755.312 1581.82 755.312C1584.72 755.312 1587 754.112 1588.63 752.288V746.144H1581V749.12H1585.22V751.04C1584.58 751.64 1583.23 752.264 1581.82 752.264C1578.91 752.264 1576.8 750.032 1576.8 747.008C1576.8 743.984 1578.91 741.752 1581.82 741.752C1583.52 741.752 1584.89 742.712 1585.61 743.84L1588.44 742.304C1587.24 740.408 1585.15 738.728 1581.82 738.728C1577.14 738.728 1573.3 741.944 1573.3 747.008ZM1602.38 755H1605.67V738.992H1602.26V749.048L1594.84 738.992H1591.34V755H1594.75V744.56L1602.38 755ZM1613.88 752.744C1615.37 754.256 1617.58 755.288 1620.65 755.288C1624.97 755.288 1627.06 753.08 1627.06 750.152C1627.06 746.528 1623.7 745.736 1621.06 745.112C1619.33 744.704 1617.87 744.368 1617.87 743.336C1617.87 742.376 1618.68 741.728 1620.15 741.728C1621.78 741.728 1623.51 742.28 1624.8 743.48L1626.7 740.984C1625.11 739.52 1623 738.752 1620.46 738.752C1616.69 738.752 1614.39 740.96 1614.39 743.624C1614.39 747.272 1617.75 747.992 1620.36 748.592C1622.11 749.024 1623.6 749.36 1623.6 750.536C1623.6 751.448 1622.69 752.312 1620.82 752.312C1618.61 752.312 1616.86 751.328 1615.73 750.152L1613.88 752.744ZM1633.65 755H1637.06V748.448L1643.18 738.992H1639.29L1635.36 745.424L1631.37 738.992H1627.49L1633.65 748.448V755ZM1643.11 752.744C1644.6 754.256 1646.81 755.288 1649.88 755.288C1654.2 755.288 1656.29 753.08 1656.29 750.152C1656.29 746.528 1652.93 745.736 1650.29 745.112C1648.56 744.704 1647.09 744.368 1647.09 743.336C1647.09 742.376 1647.91 741.728 1649.37 741.728C1651.01 741.728 1652.73 742.28 1654.03 743.48L1655.93 740.984C1654.34 739.52 1652.23 738.752 1649.69 738.752C1645.92 738.752 1643.61 740.96 1643.61 743.624C1643.61 747.272 1646.97 747.992 1649.59 748.592C1651.34 749.024 1652.83 749.36 1652.83 750.536C1652.83 751.448 1651.92 752.312 1650.05 752.312C1647.84 752.312 1646.09 751.328 1644.96 750.152L1643.11 752.744ZM1662.11 755H1665.54V741.992H1670.2V738.992H1657.43V741.992H1662.11V755ZM1672.38 755H1683.71V752H1675.79V748.376H1683.54V745.376H1675.79V741.992H1683.71V738.992H1672.38V755ZM1700.3 755H1703.73V738.992H1698.93L1695.04 748.664L1691.15 738.992H1686.38V755H1689.78V743.792L1694.3 755H1695.78L1700.3 743.792V755ZM1705.83 752.744C1707.32 754.256 1709.52 755.288 1712.6 755.288C1716.92 755.288 1719 753.08 1719 750.152C1719 746.528 1715.64 745.736 1713 745.112C1711.28 744.704 1709.81 744.368 1709.81 743.336C1709.81 742.376 1710.63 741.728 1712.09 741.728C1713.72 741.728 1715.45 742.28 1716.75 743.48L1718.64 740.984C1717.06 739.52 1714.95 738.752 1712.4 738.752C1708.64 738.752 1706.33 740.96 1706.33 743.624C1706.33 747.272 1709.69 747.992 1712.31 748.592C1714.06 749.024 1715.55 749.36 1715.55 750.536C1715.55 751.448 1714.64 752.312 1712.76 752.312C1710.56 752.312 1708.8 751.328 1707.68 750.152L1705.83 752.744ZM1518.92 787H1525.23C1530.24 787 1533.72 783.832 1533.72 779.008C1533.72 774.184 1530.24 770.992 1525.23 770.992H1518.92V787ZM1522.32 784V773.992H1525.23C1528.52 773.992 1530.24 776.176 1530.24 779.008C1530.24 781.72 1528.4 784 1525.23 784H1522.32ZM1535.37 779.008C1535.37 783.832 1538.9 787.288 1543.73 787.288C1548.57 787.288 1552.1 783.832 1552.1 779.008C1552.1 774.184 1548.57 770.728 1543.73 770.728C1538.9 770.728 1535.37 774.184 1535.37 779.008ZM1548.6 779.008C1548.6 781.984 1546.68 784.264 1543.73 784.264C1540.77 784.264 1538.88 781.984 1538.88 779.008C1538.88 776.008 1540.77 773.752 1543.73 773.752C1546.68 773.752 1548.6 776.008 1548.6 779.008ZM1562.25 787.288C1565.77 787.288 1567.79 785.344 1568.94 783.352L1566.01 781.936C1565.34 783.256 1563.9 784.264 1562.25 784.264C1559.34 784.264 1557.23 782.032 1557.23 779.008C1557.23 775.984 1559.34 773.752 1562.25 773.752C1563.9 773.752 1565.34 774.784 1566.01 776.08L1568.94 774.64C1567.81 772.648 1565.77 770.728 1562.25 770.728C1557.45 770.728 1553.73 774.088 1553.73 779.008C1553.73 783.928 1557.45 787.288 1562.25 787.288ZM1570.97 780.616C1570.97 784.552 1573.32 787.288 1578.19 787.288C1583.07 787.288 1585.42 784.576 1585.42 780.592V770.992H1581.94V780.496C1581.94 782.728 1580.67 784.264 1578.19 784.264C1575.72 784.264 1574.43 782.728 1574.43 780.496V770.992H1570.97V780.616ZM1602.49 787H1605.92V770.992H1601.12L1597.24 780.664L1593.35 770.992H1588.57V787H1591.98V775.792L1596.49 787H1597.98L1602.49 775.792V787ZM1609.1 787H1620.43V784H1612.51V780.376H1620.26V777.376H1612.51V773.992H1620.43V770.992H1609.1V787ZM1634.14 787H1637.42V770.992H1634.02V781.048L1626.6 770.992H1623.1V787H1626.5V776.56L1634.14 787ZM1644.28 787H1647.71V773.992H1652.36V770.992H1639.6V773.992H1644.28V787ZM1664.04 787H1667.93L1661.76 770.992H1657.49L1651.3 787H1655.19L1656.19 784.288H1663.06L1664.04 787ZM1659.63 774.4L1662.12 781.288H1657.13L1659.63 774.4ZM1671.56 787H1674.99V773.992H1679.65V770.992H1666.88V773.992H1671.56V787ZM1681.83 787H1685.24V770.992H1681.83V787ZM1687.65 779.008C1687.65 783.832 1691.18 787.288 1696 787.288C1700.85 787.288 1704.38 783.832 1704.38 779.008C1704.38 774.184 1700.85 770.728 1696 770.728C1691.18 770.728 1687.65 774.184 1687.65 779.008ZM1700.87 779.008C1700.87 781.984 1698.95 784.264 1696 784.264C1693.05 784.264 1691.15 781.984 1691.15 779.008C1691.15 776.008 1693.05 773.752 1696 773.752C1698.95 773.752 1700.87 776.008 1700.87 779.008ZM1717.81 787H1721.1V770.992H1717.69V781.048L1710.27 770.992H1706.77V787H1710.18V776.56L1717.81 787Z" fill="white"/>
<rect x="1620" y="498" width="2" height="182" rx="1" fill="white"/>
<circle cx="1621" cy="490" r="8.5" stroke="white" stroke-width="3"/>
<g style="mix-blend-mode:soft-light" opacity="0.6">
<rect opacity="0.1" y="30" width="1920" height="16" fill="white"/>
<rect opacity="0.1" y="54" width="1920" height="16" fill="white"/>
<rect opacity="0.1" y="78" width="1920" height="16" fill="white"/>
<rect opacity="0.1" y="102" width="1920" height="16" fill="white"/>
<rect opacity="0.1" y="126" width="1920" height="16" fill="white"/>
<rect opacity="0.1" y="150" width="1920" height="16" fill="white"/>
<rect opacity="0.1" y="174" width="1920" height="16" fill="white"/>
<rect opacity="0.1" y="198" width="1920" height="16" fill="white"/>
<rect opacity="0.1" y="222" width="1920" height="16" fill="white"/>
<rect opacity="0.1" y="246" width="1920" height="16" fill="white"/>
<rect opacity="0.1" y="270" width="1920" height="16" fill="white"/>
<rect opacity="0.1" y="294" width="1920" height="16" fill="white"/>
<rect opacity="0.1" y="318" width="1920" height="16" fill="white"/>
<rect opacity="0.1" y="342" width="1920" height="16" fill="white"/>
<rect opacity="0.1" y="366" width="1920" height="16" fill="white"/>
<rect opacity="0.1" y="390" width="1920" height="16" fill="white"/>
<rect opacity="0.1" y="414" width="1920" height="16" fill="white"/>
<rect opacity="0.1" y="438" width="1920" height="16" fill="white"/>
<rect opacity="0.1" y="462" width="1920" height="16" fill="white"/>
<rect opacity="0.1" y="486" width="1920" height="16" fill="white"/>
<rect opacity="0.1" y="510" width="1920" height="16" fill="white"/>
<rect opacity="0.1" y="534" width="1920" height="16" fill="white"/>
<rect opacity="0.1" y="558" width="1920" height="16" fill="white"/>
</g>
<circle cx="960" cy="300" r="70" fill="white"/>
<path d="M912.453 306H921.893V303.5H915.293V300.48H921.753V297.98H915.293V295.16H921.893V292.66H912.453V306ZM927.853 306H931.413L936.553 292.66H933.313L929.633 302.92L925.933 292.66H922.693L927.853 306ZM946.047 306H949.287L944.147 292.66H940.587L935.427 306H938.667L939.507 303.74H945.227L946.047 306ZM942.367 295.5L944.447 301.24H940.287L942.367 295.5ZM950.519 306H958.999V303.5H953.359V292.66H950.519V306ZM960.5 300.68C960.5 303.96 962.46 306.24 966.52 306.24C970.58 306.24 972.54 303.98 972.54 300.66V292.66H969.64V300.58C969.64 302.44 968.58 303.72 966.52 303.72C964.46 303.72 963.38 302.44 963.38 300.58V292.66H960.5V300.68ZM983.704 306H986.944L981.804 292.66H978.244L973.084 306H976.324L977.164 303.74H982.884L983.704 306ZM980.024 295.5L982.104 301.24H977.944L980.024 295.5ZM989.966 306H992.826V295.16H996.706V292.66H986.066V295.16H989.966V306ZM998.527 306H1007.97V303.5H1001.37V300.48H1007.83V297.98H1001.37V295.16H1007.97V292.66H998.527V306Z" fill="black"/>
<path fill-rule="evenodd" clip-rule="evenodd" d="M1043.66 280H1047.77C1038.68 239.92 1002.83 210 960 210C910.294 210 870 250.294 870 300H874C874 252.504 912.504 214 960 214C1000.61 214 1034.65 242.149 1043.66 280Z" fill="white"/>
<path d="M871.522 294H883L872 306L861 294H871.522Z" fill="white"/>
<path fill-rule="evenodd" clip-rule="evenodd" d="M876.338 320L872.23 320C881.325 360.08 917.168 390 960 390C1009.71 390 1050 349.706 1050 300L1046 300C1046 347.496 1007.5 386 960 386C919.389 386 885.353 357.851 876.338 320Z" fill="white"/>
<path d="M1048.48 306L1037 306L1048 294L1059 306L1048.48 306Z" fill="white"/>
<circle cx="1400" cy="300" r="70" fill="white"/>
<path d="M1352.45 306H1361.89V303.5H1355.29V300.48H1361.75V297.98H1355.29V295.16H1361.89V292.66H1352.45V306ZM1367.85 306H1371.41L1376.55 292.66H1373.31L1369.63 302.92L1365.93 292.66H1362.69L1367.85 306ZM1386.05 306H1389.29L1384.15 292.66H1380.59L1375.43 306H1378.67L1379.51 303.74H1385.23L1386.05 306ZM1382.37 295.5L1384.45 301.24H1380.29L1382.37 295.5ZM1390.52 306H1399V303.5H1393.36V292.66H1390.52V306ZM1400.5 300.68C1400.5 303.96 1402.46 306.24 1406.52 306.24C1410.58 306.24 1412.54 303.98 1412.54 300.66V292.66H1409.64V300.58C1409.64 302.44 1408.58 303.72 1406.52 303.72C1404.46 303.72 1403.38 302.44 1403.38 300.58V292.66H1400.5V300.68ZM1423.7 306H1426.94L1421.8 292.66H1418.24L1413.08 306H1416.32L1417.16 303.74H1422.88L1423.7 306ZM1420.02 295.5L1422.1 301.24H1417.94L1420.02 295.5ZM1429.97 306H1432.83V295.16H1436.71V292.66H1426.07V295.16H1429.97V306ZM1438.53 306H1447.97V303.5H1441.37V300.48H1447.83V297.98H1441.37V295.16H1447.97V292.66H1438.53V306Z" fill="black"/>
<path fill-rule="evenodd" clip-rule="evenodd" d="M1483.66 280H1487.77C1478.68 239.92 1442.83 210 1400 210C1350.29 210 1310 250.294 1310 300H1314C1314 252.504 1352.5 214 1400 214C1440.61 214 1474.65 242.149 1483.66 280Z" fill="white"/>
<path d="M1311.52 294H1323L1312 306L1301 294H1311.52Z" fill="white"/>
<path fill-rule="evenodd" clip-rule="evenodd" d="M1316.34 320L1312.23 320C1321.32 360.08 1357.17 390 1400 390C1449.71 390 1490 349.706 1490 300L1486 300C1486 347.496 1447.5 386 1400 386C1359.39 386 1325.35 357.851 1316.34 320Z" fill="white"/>
<path d="M1488.48 306L1477 306L1488 294L1499 306L1488.48 306Z" fill="white"/>
<rect x="959" y="432" width="2" height="136" rx="1" fill="white"/>
<circle cx="960" cy="424" r="8.5" stroke="white" stroke-width="3"/>
<rect x="1399" y="432" width="2" height="136" rx="1" fill="white"/>
<circle cx="1400" cy="424" r="8.5" stroke="white" stroke-width="3"/>
</g>
<defs>
<filter id="filter0_d" x="-152" y="-152" width="924" height="924" filterUnits="userSpaceOnUse" color-interpolation-filters="sRGB">
<feFlood flood-opacity="0" result="BackgroundImageFix"/>
<feColorMatrix in="SourceAlpha" type="matrix" values="0 0 0 0 0 0 0 0 0 0 0 0 0 0 0 0 0 0 127 0"/>
<feMorphology radius="64" operator="dilate" in="SourceAlpha" result="effect1_dropShadow"/>
<feOffset dx="10" dy="10"/>
<feGaussianBlur stdDeviation="64"/>
<feColorMatrix type="matrix" values="0 0 0 0 0 0 0 0 0 0 0 0 0 0 0 0 0 0 0.16 0"/>
<feBlend mode="normal" in2="BackgroundImageFix" result="effect1_dropShadow"/>
<feBlend mode="normal" in="SourceGraphic" in2="effect1_dropShadow" result="shape"/>
</filter>
<filter id="filter1_d" x="288" y="-152" width="924" height="924" filterUnits="userSpaceOnUse" color-interpolation-filters="sRGB">
<feFlood flood-opacity="0" result="BackgroundImageFix"/>
<feColorMatrix in="SourceAlpha" type="matrix" values="0 0 0 0 0 0 0 0 0 0 0 0 0 0 0 0 0 0 127 0"/>
<feMorphology radius="64" operator="dilate" in="SourceAlpha" result="effect1_dropShadow"/>
<feOffset dx="10" dy="10"/>
<feGaussianBlur stdDeviation="64"/>
<feColorMatrix type="matrix" values="0 0 0 0 0 0 0 0 0 0 0 0 0 0 0 0 0 0 0.16 0"/>
<feBlend mode="normal" in2="BackgroundImageFix" result="effect1_dropShadow"/>
<feBlend mode="normal" in="SourceGraphic" in2="effect1_dropShadow" result="shape"/>
</filter>
<filter id="filter2_d" x="728" y="-152" width="924" height="924" filterUnits="userSpaceOnUse" color-interpolation-filters="sRGB">
<feFlood flood-opacity="0" result="BackgroundImageFix"/>
<feColorMatrix in="SourceAlpha" type="matrix" values="0 0 0 0 0 0 0 0 0 0 0 0 0 0 0 0 0 0 127 0"/>
<feMorphology radius="64" operator="dilate" in="SourceAlpha" result="effect1_dropShadow"/>
<feOffset dx="10" dy="10"/>
<feGaussianBlur stdDeviation="64"/>
<feColorMatrix type="matrix" values="0 0 0 0 0 0 0 0 0 0 0 0 0 0 0 0 0 0 0.16 0"/>
<feBlend mode="normal" in2="BackgroundImageFix" result="effect1_dropShadow"/>
<feBlend mode="normal" in="SourceGraphic" in2="effect1_dropShadow" result="shape"/>
</filter>
<filter id="filter3_d" x="1168" y="-152" width="924" height="924" filterUnits="userSpaceOnUse" color-interpolation-filters="sRGB">
<feFlood flood-opacity="0" result="BackgroundImageFix"/>
<feColorMatrix in="SourceAlpha" type="matrix" values="0 0 0 0 0 0 0 0 0 0 0 0 0 0 0 0 0 0 127 0"/>
<feMorphology radius="64" operator="dilate" in="SourceAlpha" result="effect1_dropShadow"/>
<feOffset dx="10" dy="10"/>
<feGaussianBlur stdDeviation="64"/>
<feColorMatrix type="matrix" values="0 0 0 0 0 0 0 0 0 0 0 0 0 0 0 0 0 0 0.16 0"/>
<feBlend mode="normal" in2="BackgroundImageFix" result="effect1_dropShadow"/>
<feBlend mode="normal" in="SourceGraphic" in2="effect1_dropShadow" result="shape"/>
</filter>
<linearGradient id="paint0_linear" x1="300" y1="30" x2="300" y2="570" gradientUnits="userSpaceOnUse">
<stop stop-color="#D49066"/>
<stop offset="1" stop-color="#CC4844"/>
</linearGradient>
<linearGradient id="paint1_linear" x1="740" y1="30" x2="740" y2="570" gradientUnits="userSpaceOnUse">
<stop stop-color="#A4C08C"/>
<stop offset="1" stop-color="#60B8C8"/>
</linearGradient>
<linearGradient id="paint2_linear" x1="1180" y1="30" x2="1180" y2="570" gradientUnits="userSpaceOnUse">
<stop stop-color="#94D0D0"/>
<stop offset="1" stop-color="#14A0F8"/>
</linearGradient>
<linearGradient id="paint3_linear" x1="1620" y1="30" x2="1620" y2="570" gradientUnits="userSpaceOnUse">
<stop stop-color="#603CC8"/>
<stop offset="1" stop-color="#C84880"/>
</linearGradient>
<clipPath id="clip0">
<rect width="1920" height="920" fill="white"/>
</clipPath>
</defs>
</svg>
