<svg width="24" height="24" viewBox="0 0 24 24" fill="none" xmlns="http://www.w3.org/2000/svg">
<g clip-path="url(#clip0)">
<path d="M21.7777 0.00109863H2.2223C0.99462 0.00109863 0 0.995628 0 2.2232V21.7779C0 23.0044 0.995714 24 2.2223 24H21.7777C23.0043 24 24 23.0044 24 21.7779V2.2232C24.0011 0.995628 23.0054 0.00109863 21.7777 0.00109863ZM8.31148 17.7079H5.60117V9.30635H8.31148V17.7079ZM8.13313 7.52079C7.83113 7.80635 7.43175 7.95077 6.94046 7.95077H6.92842C6.45464 7.95077 6.07167 7.80744 5.77514 7.52079C5.47862 7.23523 5.32871 6.88184 5.32871 6.45952C5.32871 6.02626 5.48081 5.67287 5.78061 5.3895C6.0848 5.10941 6.4809 4.96937 6.9711 4.96937C7.45363 4.96937 7.83879 5.10941 8.13313 5.3895C8.42309 5.67287 8.57299 6.02736 8.58175 6.45952C8.58175 6.88184 8.43184 7.23523 8.13313 7.52079ZM18.3397 17.7079H15.6294V13.1018C15.6294 12.4595 15.4959 11.9814 15.2246 11.6707C14.9521 11.3589 14.5976 11.2035 14.1534 11.2035C13.7212 11.2035 13.3623 11.3446 13.0789 11.6247C12.79 11.907 12.6467 12.3074 12.6467 12.8304V17.709H9.93635V11.2035L9.89478 9.30635H12.5569L12.6478 10.4661C13.2824 9.51204 14.0965 9.03501 15.0878 9.03501C16.0605 9.03501 16.8473 9.3709 17.4425 10.0383C18.041 10.7057 18.3387 11.6368 18.3387 12.8304V17.7079H18.3397Z" fill="white"/>
</g>
<defs>
<clipPath id="clip0">
<rect width="24" height="24" fill="white"/>
</clipPath>
</defs>
</svg>
