<?xml version="1.0" encoding="utf-8"?>
<!-- Generator: Adobe Illustrator 16.0.4, SVG Export Plug-In . SVG Version: 6.00 Build 0)  -->
<!DOCTYPE svg PUBLIC "-//W3C//DTD SVG 1.1//EN" "http://www.w3.org/Graphics/SVG/1.1/DTD/svg11.dtd">
<svg version="1.1" id="Layer_1" xmlns="http://www.w3.org/2000/svg" xmlns:xlink="http://www.w3.org/1999/xlink" x="0px" y="0px"
	 width="21.934px" height="21.936px" viewBox="0 0 21.934 21.936" enable-background="new 0 0 21.934 21.936" xml:space="preserve">
<path fill="#FFFFFF" d="M19.802,0.001H2.198c-1.122,0-2.031,0.909-2.031,2.031v17.605c0,1.121,0.91,2.031,2.031,2.031h17.604
	c1.121,0,2.031-0.91,2.031-2.031V2.032C21.834,0.91,20.924,0.001,19.802,0.001z M7.763,16.185H5.286V8.506h2.477V16.185z M7.6,6.874
	C7.324,7.135,6.959,7.267,6.51,7.267H6.499c-0.433,0-0.783-0.131-1.054-0.393C5.174,6.613,5.037,6.29,5.037,5.904
	c0-0.396,0.139-0.719,0.413-0.978C5.728,4.67,6.09,4.542,6.538,4.542c0.441,0,0.793,0.128,1.062,0.384
	c0.265,0.259,0.402,0.583,0.41,0.978C8.01,6.29,7.873,6.613,7.6,6.874z M16.928,16.185h-2.477v-4.21c0-0.587-0.122-1.024-0.37-1.308
	c-0.249-0.285-0.573-0.427-0.979-0.427c-0.395,0-0.723,0.129-0.982,0.385c-0.264,0.258-0.395,0.624-0.395,1.102v4.459H9.248V10.24
	L9.21,8.506h2.433l0.083,1.06c0.58-0.872,1.324-1.308,2.23-1.308c0.889,0,1.608,0.307,2.152,0.917
	c0.547,0.61,0.819,1.461,0.819,2.552V16.185z"/>
</svg>
