<svg width="32" height="32" viewBox="0 0 32 32" fill="none" xmlns="http://www.w3.org/2000/svg">
<path d="M28.8896 0.00195312H3.20672C1.56981 0.00195312 0.243652 1.32799 0.243652 2.96475V28.6467C0.243652 30.282 1.57127 31.6095 3.20672 31.6095H28.8896C30.525 31.6095 31.8527 30.282 31.8527 28.6467V2.96475C31.8541 1.32799 30.5265 0.00195312 28.8896 0.00195312ZM11.3256 23.611H7.71187V12.409H11.3256V23.611ZM11.0878 10.0282C10.6852 10.409 10.1527 10.6015 9.4976 10.6015H9.48155C8.84983 10.6015 8.33921 10.4104 7.94384 10.0282C7.54848 9.64747 7.3486 9.17628 7.3486 8.61319C7.3486 8.0355 7.55139 7.56432 7.95114 7.18649C8.35672 6.81304 8.88485 6.62631 9.53845 6.62631C10.1818 6.62631 10.6954 6.81304 11.0878 7.18649C11.4744 7.56432 11.6743 8.03696 11.686 8.61319C11.686 9.17628 11.4861 9.64747 11.0878 10.0282ZM24.6966 23.611H21.0829V17.4695C21.0829 16.6132 20.9049 15.9757 20.5431 15.5614C20.1798 15.1456 19.7071 14.9385 19.1148 14.9385C18.5385 14.9385 18.06 15.1267 17.6821 15.5001C17.297 15.8765 17.1059 16.4104 17.1059 17.1077V23.6125H13.4921V14.9385L13.4367 12.409H16.9862L17.1073 13.9553C17.9535 12.6832 19.0389 12.0472 20.3607 12.0472C21.6577 12.0472 22.7067 12.495 23.5003 13.3849C24.2984 14.2747 24.6952 15.5162 24.6952 17.1077V23.611H24.6966Z" fill="white"/>
</svg>
