<svg width="40" height="40" viewBox="0 0 40 40" fill="none" xmlns="http://www.w3.org/2000/svg">
<path d="M36.1121 0.00195312H4.00853C1.96239 0.00195312 0.304688 1.6595 0.304688 3.70545V35.8079C0.304688 37.8521 1.96421 39.5114 4.00853 39.5114H36.1121C38.1564 39.5114 39.8159 37.8521 39.8159 35.8079V3.70545C39.8178 1.6595 38.1582 0.00195312 36.1121 0.00195312ZM14.1572 29.5133H9.63997V15.5107H14.1572V29.5133ZM13.8599 12.5348C13.3566 13.0107 12.6909 13.2514 11.8721 13.2514H11.8521C11.0624 13.2514 10.4241 13.0125 9.92993 12.5348C9.43572 12.0588 9.18588 11.4699 9.18588 10.766C9.18588 10.0439 9.43936 9.45491 9.93904 8.98262C10.446 8.51581 11.1062 8.2824 11.9232 8.2824C12.7274 8.2824 13.3693 8.51581 13.8599 8.98262C14.3432 9.45491 14.593 10.0457 14.6076 10.766C14.6076 11.4699 14.3578 12.0588 13.8599 12.5348ZM30.8709 29.5133H26.3537V21.8364C26.3537 20.766 26.1313 19.9691 25.679 19.4513C25.2249 18.9316 24.634 18.6726 23.8936 18.6726C23.1733 18.6726 22.5751 18.9079 22.1028 19.3747C21.6214 19.8451 21.3825 20.5125 21.3825 21.3842V29.5151H16.8653V18.6726L16.796 15.5107H21.2329L21.3843 17.4436C22.442 15.8535 23.7988 15.0585 25.451 15.0585C27.0723 15.0585 28.3835 15.6183 29.3755 16.7306C30.3731 17.8429 30.8691 19.3947 30.8691 21.3842V29.5133H30.8709Z" fill="white"/>
</svg>
