<svg width="32" height="32" viewBox="0 0 32 32" fill="none" xmlns="http://www.w3.org/2000/svg">
<g clip-path="url(#clip0)">
<path d="M29.0389 0.00195312L2.99409 0.00195503C1.35827 0.00195503 0.032998 1.32799 0.032998 2.96475L1.90608e-05 29.0372C1.90608e-05 30.6725 1.32675 32 2.96112 32H29.0059C30.6402 32 31.967 30.6725 31.967 29.0372L32 2.96475C32.0014 1.32799 30.6747 0.00195312 29.0389 0.00195312ZM11.3433 23.611H7.73193V12.409H11.3433V23.611ZM11.1056 10.0282C10.7033 10.409 10.1711 10.6015 9.51647 10.6015H9.50044C8.86914 10.6015 8.35886 10.4104 7.96375 10.0282C7.56865 9.64747 7.36891 9.17628 7.36891 8.61319C7.36891 8.0355 7.57156 7.56432 7.97104 7.18649C8.37635 6.81304 8.90413 6.62631 9.5573 6.62631C10.2002 6.62631 10.7135 6.81304 11.1056 7.18649C11.492 7.56432 11.6917 8.03696 11.7034 8.61319C11.7034 9.17628 11.5037 9.64747 11.1056 10.0282ZM24.7054 23.611H21.0941V17.4695C21.0941 16.6132 20.9162 15.9757 20.5546 15.5614C20.1916 15.1456 19.7192 14.9385 19.1273 14.9385C18.5514 14.9385 18.0732 15.1267 17.6955 15.5001C17.3107 15.8765 17.1197 16.4104 17.1197 17.1077V23.6125H13.5083V14.9385L13.453 12.409H17.0001L17.1211 13.9553C17.9667 12.6832 19.0514 12.0472 20.3723 12.0472C21.6685 12.0472 22.7168 12.495 23.5099 13.3849C24.3074 14.2747 24.704 15.5162 24.704 17.1077V23.611H24.7054Z" fill="white"/>
</g>
<defs>
<clipPath id="clip0">
<rect width="32" height="32" fill="white"/>
</clipPath>
</defs>
</svg>
