<?xml version="1.0" encoding="UTF-8" standalone="no"?><!DOCTYPE svg PUBLIC "-//W3C//DTD SVG 1.1//EN" "http://www.w3.org/Graphics/SVG/1.1/DTD/svg11.dtd"><svg width="100%" height="100%" viewBox="0 0 540 200" version="1.1" xmlns="http://www.w3.org/2000/svg" xmlns:xlink="http://www.w3.org/1999/xlink" xml:space="preserve" xmlns:serif="http://www.serif.com/" style="fill-rule:evenodd;clip-rule:evenodd;stroke-linejoin:round;stroke-miterlimit:1.41421;"><g id="bloomberg"><g><path d="M20,54l36.658,0c6.983,0 12.22,1.743 16.099,4.648c4.267,3.486 6.595,8.522 6.595,14.719c0,7.166 -2.91,11.621 -8.728,14.332l0,0.388c7.758,2.517 12.219,9.49 12.219,17.818c0,7.94 -3.103,14.138 -8.146,18.011c-4.267,3.099 -9.698,4.455 -17.069,4.455l-37.628,0l0,-74.371Zm32.973,29.051c3.879,0 6.789,-2.13 6.789,-6.585c0,-4.261 -2.91,-6.391 -6.983,-6.391l-12.607,0l0,12.782l12.801,0l0,0.194Zm1.746,28.858c4.461,0 7.758,-2.712 7.758,-7.554c0,-5.229 -3.491,-7.553 -7.758,-7.553l-14.353,0l0,15.3l14.353,0l0,-0.193Z" style="fill:#a0a0a0;fill-rule:nonzero;"/><rect x="86.14" y="54" width="19.202" height="74.565" style="fill:#a0a0a0;fill-rule:nonzero;"/><path d="M109.222,102.031c0,-16.849 10.861,-28.083 27.736,-28.083c16.874,0 27.542,11.427 27.542,28.083c0,16.85 -10.668,28.083 -27.542,28.083c-16.875,0 -27.736,-11.233 -27.736,-28.083Zm36.076,0c0,-9.296 -2.909,-15.106 -8.728,-15.106c-5.819,0 -8.534,5.81 -8.534,15.106c0,9.297 2.715,15.301 8.534,15.301c5.819,-0.194 8.728,-6.004 8.728,-15.301Z" style="fill:#a0a0a0;fill-rule:nonzero;"/><path d="M166.634,102.031c0,-16.849 10.861,-28.083 27.736,-28.083c16.874,0 27.348,11.234 27.348,28.083c0,16.85 -10.668,28.083 -27.542,28.083c-16.681,0 -27.542,-11.233 -27.542,-28.083Zm36.076,0c0,-9.296 -2.909,-15.106 -8.728,-15.106c-5.819,0 -8.534,5.81 -8.534,15.106c0,9.297 2.715,15.301 8.534,15.301c5.819,-0.194 8.728,-6.004 8.728,-15.301Z" style="fill:#a0a0a0;fill-rule:nonzero;"/><path d="M225.597,75.304l17.845,0l0,7.941l0.388,0c3.491,-6.198 8.34,-9.49 16.098,-9.49c6.789,0 11.832,3.292 14.353,9.102l0.388,0c4.267,-6.972 9.892,-9.102 16.487,-9.102c12.413,0 17.65,9.102 17.65,21.304l0,33.312l-18.62,0l0,-30.02c0,-5.422 -1.746,-8.909 -6.401,-8.909c-4.655,0 -6.982,4.261 -6.982,10.071l0,28.858l-18.62,0l0,-30.02c0,-5.422 -1.746,-8.909 -6.401,-8.909c-4.655,0 -6.983,4.261 -6.983,10.071l0,28.858l-19.202,0l0,-53.067Z" style="fill:#a0a0a0;fill-rule:nonzero;"/><path d="M332.275,121.399l-0.194,0l0,6.972l-17.844,0l0,-74.371l18.62,0l0,26.727l0.388,0c3.491,-4.648 8.34,-7.166 15.129,-7.166c13.383,0 21.142,12.008 21.142,28.083c0,18.012 -8.341,28.47 -22.306,28.47c-5.819,0 -11.831,-2.711 -14.935,-8.715Zm18.039,-19.949c0,-8.521 -3.104,-14.138 -8.729,-14.138c-5.818,0 -9.31,5.617 -9.31,14.138c0,8.522 3.686,14.138 9.31,14.138c5.625,0 8.729,-5.422 8.729,-14.138Z" style="fill:#a0a0a0;fill-rule:nonzero;"/><path d="M371.649,101.838c0,-16.656 11.056,-28.083 26.961,-28.083c7.952,0 13.965,2.518 18.62,6.972c6.207,6.004 8.922,15.3 8.728,26.146l-35.689,0c0.776,6.585 3.88,10.071 9.504,10.071c3.298,0 6.207,-1.549 7.371,-5.035l18.038,0c-3.103,12.201 -12.607,18.205 -25.99,18.205c-16.487,-0.194 -27.543,-11.427 -27.543,-28.276Zm18.62,-5.617l17.069,0c-0.388,-6.391 -3.879,-9.684 -8.34,-9.684c-5.237,-0.193 -8.147,3.486 -8.729,9.684Z" style="fill:#a0a0a0;fill-rule:nonzero;"/><path d="M447.1,84.407l0.388,0c3.879,-7.36 8.922,-10.265 15.322,-10.265c1.552,0 2.522,0.194 3.104,0.581l0,16.269l-0.388,0c-11.056,-1.937 -17.457,3.292 -17.457,15.3l0,22.273l-18.814,0l0,-53.261l17.845,0l0,9.103Z" style="fill:#a0a0a0;fill-rule:nonzero;"/><path d="M467.853,128.565l18.039,0c0.775,2.324 3.103,4.454 7.564,4.454c6.013,0 8.146,-3.68 8.146,-9.296l0,-3.874l-0.388,0c-2.909,3.486 -6.982,6.004 -12.801,6.004c-11.444,0 -21.529,-8.521 -21.529,-25.177c0,-15.301 8.146,-27.115 20.559,-27.115c7.177,0 11.444,2.905 14.353,7.36l0.388,0l0,-5.81l17.845,0l0,46.094c0,8.522 -2.91,15.107 -7.371,18.98c-4.655,4.067 -11.25,5.81 -18.814,5.81c-14.353,0.194 -24.245,-5.616 -25.991,-17.43Zm34.525,-28.664c0,-6.585 -3.103,-12.008 -8.534,-12.008c-5.237,0 -8.534,4.648 -8.534,12.008c0,7.166 3.297,12.201 8.534,12.201c5.237,0 8.534,-5.229 8.534,-12.201Z" style="fill:#a0a0a0;fill-rule:nonzero;"/></g></g></svg>