<?xml version="1.0" encoding="UTF-8" standalone="no"?><!DOCTYPE svg PUBLIC "-//W3C//DTD SVG 1.1//EN" "http://www.w3.org/Graphics/SVG/1.1/DTD/svg11.dtd"><svg width="100%" height="100%" viewBox="0 0 540 200" version="1.1" xmlns="http://www.w3.org/2000/svg" xmlns:xlink="http://www.w3.org/1999/xlink" xml:space="preserve" xmlns:serif="http://www.serif.com/" style="fill-rule:evenodd;clip-rule:evenodd;stroke-linejoin:round;stroke-miterlimit:1.41421;"><g id="bnotions"><g><path d="M88,86.416c0,-0.309 0,-0.617 0,-0.617c-0.306,-1.235 -0.612,-2.161 -1.531,-3.088l-26.947,-27.167c-0.307,-0.309 -0.613,-0.618 -1.225,-0.927l-0.307,0c-0.612,-0.308 -0.918,-0.308 -1.531,-0.617l-0.306,0l0,10.805l27.56,28.094l2.756,-3.087c0.306,-0.309 0.612,-0.617 0.919,-1.235l0.306,-0.309c0,-0.308 0.306,-0.926 0.306,-1.543l0,-0.309Z" style="fill:#a0a0a0;fill-rule:nonzero;"/><path d="M25.531,89.812l26.947,27.477c0.307,0.308 0.919,0.617 1.225,0.926l0.307,0c0.612,0.308 0.918,0.308 1.531,0.308l1.225,0c0.918,0 1.837,-0.617 2.756,-1.234l2.756,-3.088l-27.56,-27.785l21.435,-21.611l0,-10.805c-0.306,0 -0.612,0 -0.612,0c-0.613,0.309 -0.919,0.309 -1.531,0.617l-0.307,0c-0.306,0.309 -0.918,0.618 -1.225,0.927l-26.947,27.167c-0.919,0.927 -1.225,1.853 -1.531,3.088l0,1.235c0.306,1.234 0.612,2.161 1.531,2.778Z" style="fill:#a0a0a0;fill-rule:nonzero;"/><path d="M88,112.966c-0.306,-1.234 -0.612,-2.161 -1.531,-2.778l-26.947,-27.477c-0.307,-0.308 -0.613,-0.617 -1.225,-0.926l-0.307,0c-0.612,-0.308 -0.918,-0.308 -1.531,-0.308l-0.306,0c-0.306,0 -0.612,0 -0.919,0c-0.918,0 -1.837,0.617 -2.756,1.234l-2.756,3.088l27.56,27.785l-21.129,21.611l0,10.805l0.306,0c0.613,-0.309 0.919,-0.309 1.531,-0.617l0.307,0c0.612,-0.309 0.918,-0.618 1.225,-0.927l26.947,-27.167c0.919,-0.927 1.225,-1.853 1.531,-3.088c0,0 0,-0.308 0,-0.617c0,-0.309 0,-0.309 0,-0.618" style="fill:#a0a0a0;fill-rule:nonzero;"/><path d="M24,113.584c0,0.309 0,0.617 0,0.617c0.306,1.235 0.612,2.161 1.531,3.088l26.947,27.167c0.307,0.309 0.919,0.618 1.225,0.927l0.307,0c0.612,0.308 0.918,0.308 1.531,0.617c0,0 0.306,0 0.612,0l0,-10.805l-27.866,-28.094l-2.756,3.087c-0.306,0.309 -0.612,0.617 -0.919,1.235c0,0 -0.306,0 -0.306,0.309c0,0.308 -0.306,0.926 -0.306,1.543l0,0.309Z" style="fill:#a0a0a0;fill-rule:nonzero;"/></g><g><path d="M148.969,95.162c-6.245,-1.561 -11.865,-3.122 -11.865,-7.804c0,-4.37 4.059,-7.491 9.992,-7.491c5.308,0 9.992,1.873 13.427,5.306c0.312,0.313 0.937,0.313 1.249,0.313c0.625,0 0.937,-0.313 1.249,-0.625l2.498,-2.809c0.625,-0.624 0.312,-1.873 -0.312,-2.497c-4.372,-4.37 -10.305,-6.555 -17.799,-6.555c-10.617,0 -18.111,6.243 -18.111,14.983c0,10.3 9.368,12.797 17.487,14.982c6.869,1.873 12.802,3.434 12.802,9.052c0,1.249 -0.624,8.116 -11.553,8.116c-7.494,0 -12.491,-3.746 -14.676,-6.243c-0.313,-0.312 -0.937,-0.312 -1.249,-0.312c-0.625,0 -0.937,0.312 -1.249,0.624l-2.498,3.122c-0.625,0.624 -0.313,1.56 0,2.185c3.434,3.433 9.68,7.491 19.672,7.491c14.364,0 19.36,-8.116 19.36,-15.607c0,-11.237 -10.305,-14.046 -18.424,-16.231" style="fill:#a0a0a0;fill-rule:nonzero;"/><path d="M216.105,73.936l-4.997,0c-0.312,0 -0.936,0.313 -1.249,0.625l-14.988,22.474l-14.988,-22.474c-0.312,-0.312 -0.937,-0.625 -1.561,-0.625l-4.684,0c-0.625,0 -1.249,0.313 -1.562,0.937c-0.312,0.312 -0.312,1.248 0,1.561l18.736,27.468l0.312,0.312l0,20.289c0,0.936 0.625,1.561 1.561,1.561l4.372,0c0.937,0 1.561,-0.625 1.561,-1.561l0,-20.289l0,-0.312l18.736,-27.468c0.312,-0.313 0.312,-1.249 0.312,-1.561c-0.312,-0.624 -0.937,-0.937 -1.561,-0.937" style="fill:#a0a0a0;fill-rule:nonzero;"/><path d="M275.746,73.936l-7.495,0c-0.624,0 -1.249,0.313 -1.561,0.937l-14.676,35.272c0,0.312 -0.312,0.312 -0.312,0.312c0,0 -0.312,0 -0.312,-0.312l-14.676,-35.272c-0.313,-0.624 -0.937,-0.937 -1.562,-0.937l-7.182,0c-0.936,0 -1.873,0.625 -1.873,1.561l0,49.006c0,0.936 0.937,1.561 1.873,1.561l4.06,0c0.936,0 1.561,-0.625 1.561,-1.561l0,-37.769l15.925,38.393c0.312,0.624 0.937,0.937 1.561,0.937l1.249,0c0.625,0 1.249,-0.313 1.562,-0.937l15.925,-38.393l0,37.769c0,0.936 0.624,1.561 1.561,1.561l4.372,0c0.936,0 1.561,-0.625 1.561,-1.561l0,-49.006c0,-0.936 -0.625,-1.561 -1.561,-1.561" style="fill:#a0a0a0;fill-rule:nonzero;"/><path d="M323.833,111.081c0,4.994 -3.435,8.116 -8.743,8.116l-14.988,0l0,-16.232l14.988,0c5.933,0 8.743,4.058 8.743,8.116Zm-23.731,-14.983l0,-15.295l14.676,0c4.996,0 8.118,2.81 8.118,7.492c0,4.682 -3.122,7.803 -8.118,7.803l-14.676,0Zm24.043,3.434c-0.312,0 -0.312,-0.312 -0.312,-0.312c0,-0.312 0,-0.312 0.312,-0.625c4.06,-1.872 6.558,-6.242 6.558,-11.237c0,-8.115 -5.933,-13.422 -14.989,-13.422l-21.545,0c-0.937,0 -1.874,0.625 -1.874,1.561l0,49.006c0,0.936 0.937,1.561 1.874,1.561l22.17,0c9.368,0 15.3,-5.619 15.3,-14.359c0,-4.994 -3.122,-9.988 -7.494,-12.173Z" style="fill:#a0a0a0;fill-rule:nonzero;"/><path d="M351.312,73.936l-4.372,0c-0.937,0 -1.561,0.625 -1.561,1.561l0,49.006c0,0.936 0.624,1.561 1.561,1.561l4.372,0c0.936,0 1.561,-0.625 1.561,-1.561l0,-49.006c0,-0.936 -0.625,-1.561 -1.561,-1.561" style="fill:#a0a0a0;fill-rule:nonzero;"/><path d="M397.838,119.197l-22.17,0l0,-43.7c0,-0.936 -0.625,-1.561 -1.562,-1.561l-4.059,0c-0.937,0 -1.874,0.625 -1.874,1.561l0,49.006c0,0.936 0.937,1.561 1.874,1.561l27.791,0c0.937,0 1.561,-0.625 1.561,-1.561l0,-3.434c0,-0.936 -0.624,-1.872 -1.561,-1.872" style="fill:#a0a0a0;fill-rule:nonzero;"/><path d="M415.636,73.936l-4.371,0c-0.937,0 -1.561,0.625 -1.561,1.561l0,49.006c0,0.936 0.624,1.561 1.561,1.561l4.371,0c0.937,0 1.562,-0.625 1.562,-1.561l0,-49.006c0,-0.936 -0.625,-1.561 -1.562,-1.561" style="fill:#a0a0a0;fill-rule:nonzero;"/><path d="M464.348,73.936l-36.534,0c-0.936,0 -1.873,0.625 -1.873,1.561l0,3.434c0,0.936 0.937,1.872 1.873,1.872l14.364,0l0,43.7c0,0.936 0.625,1.561 1.561,1.561l4.372,0c0.937,0 1.561,-0.625 1.561,-1.561l0,-43.7l14.676,0c0.937,0 1.562,-0.936 1.562,-1.872l0,-3.434c0,-0.936 -0.625,-1.561 -1.562,-1.561" style="fill:#a0a0a0;fill-rule:nonzero;"/><path d="M515.871,74.873c-0.313,-0.624 -0.937,-0.937 -1.562,-0.937l-4.996,0c-0.312,0 -0.936,0.313 -1.249,0.625l-14.988,22.474l-14.988,-22.474c-0.313,-0.312 -0.937,-0.625 -1.562,-0.625l-4.683,0c-0.625,0 -1.25,0.313 -1.562,0.937c-0.312,0.312 -0.312,1.248 0,1.561l19.048,27.468l0,20.601c0,0.936 0.624,1.561 1.561,1.561l4.372,0c0.937,0 1.561,-0.625 1.561,-1.561l0,-20.289l0,-0.312l18.735,-27.468c0.313,-0.313 0.625,-1.249 0.313,-1.561" style="fill:#a0a0a0;fill-rule:nonzero;"/></g></g></svg>