<?xml version="1.0" encoding="UTF-8" standalone="no"?><!DOCTYPE svg PUBLIC "-//W3C//DTD SVG 1.1//EN" "http://www.w3.org/Graphics/SVG/1.1/DTD/svg11.dtd"><svg width="100%" height="100%" viewBox="0 0 540 200" version="1.1" xmlns="http://www.w3.org/2000/svg" xmlns:xlink="http://www.w3.org/1999/xlink" xml:space="preserve" xmlns:serif="http://www.serif.com/" style="fill-rule:evenodd;clip-rule:evenodd;stroke-linejoin:round;stroke-miterlimit:1.41421;"><g id="cbc"><text x="212.283px" y="153.562px" style="font-family:'OpenSans-Bold', 'Open Sans', sans-serif;font-weight:700;font-size:149.855px;fill:#a0a0a0;">C<tspan x="307.88px 408.677px " y="153.562px 153.562px ">BC</tspan></text><path d="M99.952,128.86c15.779,0 28.575,-12.796 28.575,-28.574c0,-15.779 -12.796,-28.575 -28.575,-28.575c-15.779,0 -28.575,12.796 -28.575,28.575c0,15.778 12.796,28.574 28.575,28.574Zm-33.001,0c-15.778,0 -28.575,-12.796 -28.575,-28.574c0,-15.779 12.797,-28.575 28.575,-28.575l0,57.149Zm66.098,31.558l0,-27.132l27.131,0c0,15.009 -12.218,27.132 -27.131,27.132Zm-66.098,-120.361l0,27.132l-27.228,0c0.097,-14.913 12.219,-27.132 27.228,-27.132m0,120.361l0,-27.132l-27.131,0c0,15.009 12.122,27.132 27.131,27.132Zm99.098,-35.598l0,-49.165c8.371,5.003 13.951,14.144 13.951,24.534c0,10.487 -5.58,19.628 -13.951,24.631Zm-90.631,-90.632l49.164,0c-5.003,-8.37 -14.143,-13.951 -24.534,-13.951c-10.487,0 -19.627,5.581 -24.63,13.951Zm48.779,132.099l-49.164,0c5.003,8.37 14.143,13.95 24.534,13.95c10.487,0 19.627,-5.58 24.63,-13.95Zm4.426,-33.001c0,15.779 -12.796,28.575 -28.575,28.575c-15.779,0 -28.575,-12.796 -28.575,-28.575l57.15,0Zm4.426,-4.426c15.778,0 28.575,-12.796 28.575,-28.574c0,-15.779 -12.797,-28.575 -28.575,-28.575l0,57.149Zm-4.426,-61.575c0,-15.779 -12.796,-28.575 -28.575,-28.575c-15.779,0 -28.575,12.796 -28.575,28.575l57.15,0Zm-94.672,57.535l0,-49.165c-8.371,5.003 -13.951,14.144 -13.951,24.631c0,10.39 5.58,19.531 13.951,24.534Zm126.229,-57.535l-27.131,0l0,-27.132c14.913,-0.096 27.131,12.123 27.131,27.132" style="fill:#a0a0a0;fill-rule:nonzero;"/></g></svg>