<?xml version="1.0" encoding="UTF-8" standalone="no"?><!DOCTYPE svg PUBLIC "-//W3C//DTD SVG 1.1//EN" "http://www.w3.org/Graphics/SVG/1.1/DTD/svg11.dtd"><svg width="100%" height="100%" viewBox="0 0 540 200" version="1.1" xmlns="http://www.w3.org/2000/svg" xmlns:xlink="http://www.w3.org/1999/xlink" xml:space="preserve" xmlns:serif="http://www.serif.com/" style="fill-rule:evenodd;clip-rule:evenodd;stroke-linejoin:round;stroke-miterlimit:1.41421;"><g id="cisco"><g><rect id="path268" x="203.988" y="126.336" width="13.331" height="52.76" style="fill:#a0a0a0;fill-rule:nonzero;"/><path id="use360" d="M324.807,141.454c-0.536,-0.278 -4.822,-2.817 -11.198,-2.817c-8.635,0 -14.61,5.993 -14.61,14.073c0,7.84 5.726,14.085 14.61,14.085c6.266,0 10.624,-2.484 11.198,-2.8l0,14.161c-1.655,0.468 -6.203,1.877 -12.157,1.877c-14.986,0 -28.13,-10.324 -28.13,-27.323c0,-15.755 11.907,-27.31 28.13,-27.31c6.275,0 10.903,1.522 12.157,1.893l0,14.161Z" style="fill:#a0a0a0;fill-rule:nonzero;"/><path id="path284" d="M185.66,141.454c-0.536,-0.278 -4.822,-2.817 -11.198,-2.817c-8.635,0 -14.61,5.993 -14.61,14.073c0,7.84 5.726,14.085 14.61,14.085c6.267,0 10.624,-2.484 11.198,-2.8l0,14.161c-1.655,0.468 -6.202,1.877 -12.156,1.877c-14.986,0 -28.131,-10.324 -28.131,-27.323c0,-15.755 11.908,-27.31 28.131,-27.31c6.274,0 10.902,1.522 12.156,1.893l0,14.161Z" style="fill:#a0a0a0;fill-rule:nonzero;"/><path id="path288" d="M366.744,138.835c-7.909,0 -13.783,6.216 -13.783,13.875c0,7.675 5.874,13.887 13.783,13.887c7.9,0 13.791,-6.212 13.791,-13.887c0,-7.659 -5.891,-13.875 -13.791,-13.875m27.915,13.875c0,15.093 -11.667,27.322 -27.915,27.322c-16.249,0 -27.899,-12.229 -27.899,-27.322c0,-15.068 11.65,-27.311 27.899,-27.311c16.248,0 27.915,12.243 27.915,27.311" style="fill:#a0a0a0;fill-rule:nonzero;"/><path id="path292" d="M267.873,138.329c-0.199,-0.064 -5.811,-1.611 -10.422,-1.611c-5.341,0 -8.246,1.788 -8.246,4.322c0,3.214 3.918,4.336 6.11,5.027l3.678,1.168c8.652,2.75 12.596,8.666 12.596,15.093c0,13.255 -11.672,17.708 -21.873,17.708c-7.09,0 -13.732,-1.303 -14.387,-1.442l0,-12.141c1.174,0.295 6.765,1.961 12.588,1.961c6.634,0 9.682,-1.936 9.682,-4.926c0,-2.674 -2.639,-4.217 -5.945,-5.254c-0.807,-0.27 -2.019,-0.65 -2.846,-0.92c-7.423,-2.344 -13.614,-6.701 -13.614,-15.434c0,-9.869 7.398,-16.494 19.686,-16.494c6.49,0 12.596,1.573 12.993,1.679l0,11.264Z" style="fill:#a0a0a0;fill-rule:nonzero;"/><g id="g383"><path id="path296" d="M131.238,69.636c0,-3.636 -2.973,-6.583 -6.617,-6.583c-3.644,0 -6.621,2.947 -6.621,6.583l0,13.849c0,3.656 2.977,6.608 6.621,6.608c3.644,0 6.617,-2.952 6.617,-6.608l0,-13.849Z" style="fill:#a0a0a0;fill-rule:nonzero;"/><path id="path300" d="M167.591,51.458c0,-3.636 -2.973,-6.592 -6.617,-6.592c-3.648,0 -6.621,2.956 -6.621,6.592l0,32.029c0,3.656 2.973,6.604 6.621,6.604c3.644,0 6.617,-2.948 6.617,-6.604l0,-32.029Z" style="fill:#a0a0a0;fill-rule:nonzero;"/><path id="path304" d="M203.945,26.587c0,-3.635 -2.973,-6.587 -6.617,-6.587c-3.648,0 -6.621,2.952 -6.621,6.587l0,70.059c0,3.656 2.973,6.608 6.621,6.608c3.644,0 6.617,-2.952 6.617,-6.608l0,-70.059Z" style="fill:#a0a0a0;fill-rule:nonzero;"/><path id="path308" d="M240.298,51.458c0,-3.636 -2.973,-6.592 -6.617,-6.592c-3.648,0 -6.621,2.956 -6.621,6.592l0,32.029c0,3.656 2.973,6.604 6.621,6.604c3.644,0 6.617,-2.948 6.617,-6.604l0,-32.029Z" style="fill:#a0a0a0;fill-rule:nonzero;"/><path id="path312" d="M276.61,69.636c0,-3.636 -2.951,-6.583 -6.578,-6.583c-3.644,0 -6.617,2.947 -6.617,6.583l0,13.849c0,3.656 2.973,6.608 6.617,6.608c3.627,0 6.578,-2.952 6.578,-6.608l0,-13.849Z" style="fill:#a0a0a0;fill-rule:nonzero;"/></g><g id="use385"><path id="path2961" serif:id="path296" d="M276.627,69.636c0,-3.636 -2.972,-6.583 -6.616,-6.583c-3.645,0 -6.621,2.947 -6.621,6.583l0,13.849c0,3.656 2.976,6.608 6.621,6.608c3.644,0 6.616,-2.952 6.616,-6.608l0,-13.849Z" style="fill:#a0a0a0;fill-rule:nonzero;"/><path id="path3001" serif:id="path300" d="M312.98,51.458c0,-3.636 -2.972,-6.592 -6.616,-6.592c-3.649,0 -6.621,2.956 -6.621,6.592l0,32.029c0,3.656 2.972,6.604 6.621,6.604c3.644,0 6.616,-2.948 6.616,-6.604l0,-32.029Z" style="fill:#a0a0a0;fill-rule:nonzero;"/><path id="path3041" serif:id="path304" d="M349.334,26.587c0,-3.635 -2.973,-6.587 -6.617,-6.587c-3.648,0 -6.621,2.952 -6.621,6.587l0,70.059c0,3.656 2.973,6.608 6.621,6.608c3.644,0 6.617,-2.952 6.617,-6.608l0,-70.059Z" style="fill:#a0a0a0;fill-rule:nonzero;"/><path id="path3081" serif:id="path308" d="M385.688,51.458c0,-3.636 -2.973,-6.592 -6.617,-6.592c-3.648,0 -6.621,2.956 -6.621,6.592l0,32.029c0,3.656 2.973,6.604 6.621,6.604c3.644,0 6.617,-2.948 6.617,-6.604l0,-32.029Z" style="fill:#a0a0a0;fill-rule:nonzero;"/><path id="path3121" serif:id="path312" d="M422,69.636c0,-3.636 -2.952,-6.583 -6.579,-6.583c-3.644,0 -6.616,2.947 -6.616,6.583l0,13.849c0,3.656 2.972,6.608 6.616,6.608c3.627,0 6.579,-2.952 6.579,-6.608l0,-13.849Z" style="fill:#a0a0a0;fill-rule:nonzero;"/></g></g></g></svg>