<?xml version="1.0" encoding="UTF-8" standalone="no"?><!DOCTYPE svg PUBLIC "-//W3C//DTD SVG 1.1//EN" "http://www.w3.org/Graphics/SVG/1.1/DTD/svg11.dtd"><svg width="100%" height="100%" viewBox="0 0 540 200" version="1.1" xmlns="http://www.w3.org/2000/svg" xmlns:xlink="http://www.w3.org/1999/xlink" xml:space="preserve" xmlns:serif="http://www.serif.com/" style="fill-rule:evenodd;clip-rule:evenodd;stroke-linejoin:round;stroke-miterlimit:1.41421;"><g id="mashable"><path id="path13736" d="M93.747,141.475l0,-55.86l-21.169,55.86l-9.585,0l-21.307,-55.86l0,55.86l-21.686,0l0,-84.475l30.133,0l17.653,46.611l17.514,-46.611l30.134,0l0,84.475l-21.687,0Z" style="fill:#a0a0a0;fill-rule:nonzero;"/><path id="path13748" d="M158.527,141.476l0,-6.08c-3.775,4.555 -11.102,7.604 -18.911,7.604c-9.326,0 -20.928,-6.461 -20.928,-20.145c0,-14.809 11.602,-19.763 20.928,-19.763c8.068,0 15.257,2.667 18.911,7.223l0,-6.08c0,-5.317 -4.534,-8.989 -12.36,-8.989c-6.051,0 -12.102,2.407 -17.015,6.582l-7.188,-13.546c7.826,-6.72 18.29,-9.492 27.616,-9.492c14.619,0 28.358,5.439 28.358,24.441l0,38.245l-19.411,0Zm0,-15.711l0,-5.438c-2.017,-2.91 -6.55,-4.313 -10.843,-4.313c-5.034,0 -9.705,2.286 -9.705,7.101c0,4.816 4.671,7.085 9.705,7.085c4.293,0 8.826,-1.507 10.843,-4.435" style="fill:#a0a0a0;fill-rule:nonzero;"/><path id="path13752" d="M179.317,133.498l8.068,-13.927c4.534,4.054 14.239,8.228 21.428,8.228c5.792,0 8.188,-1.646 8.188,-4.313c0,-7.587 -35.408,0.26 -35.408,-24.561c0,-10.774 9.326,-20.145 26.082,-20.145c10.343,0 18.911,3.291 25.462,8.106l-7.43,13.805c-3.655,-3.551 -10.585,-6.703 -17.894,-6.703c-4.551,0 -7.568,1.767 -7.568,4.174c0,6.704 35.288,-0.259 35.288,24.822c0,11.657 -10.206,20.006 -27.599,20.006c-10.964,0 -22.187,-3.672 -28.617,-9.492" style="fill:#a0a0a0;fill-rule:nonzero;"/><path id="path13756" d="M279.269,141.476l0,-35.595c0,-7.466 -3.913,-9.873 -10.084,-9.873c-5.672,0 -9.447,3.169 -11.723,5.958l0,39.51l-19.411,0l0,-84.476l19.411,0l0,30.78c3.655,-4.313 10.843,-8.99 21.049,-8.99c13.86,0 20.169,7.847 20.169,19.123l0,43.563l-19.411,0Z" style="fill:#a0a0a0;fill-rule:nonzero;"/><path id="path13760" d="M341.281,141.476l0,-6.08c-3.776,4.555 -11.102,7.604 -18.911,7.604c-9.327,0 -20.928,-6.461 -20.928,-20.145c0,-14.809 11.601,-19.763 20.928,-19.763c8.067,0 15.256,2.667 18.911,7.223l0,-6.08c0,-5.317 -4.534,-8.989 -12.361,-8.989c-6.05,0 -12.101,2.407 -17.014,6.582l-7.189,-13.546c7.827,-6.72 18.29,-9.492 27.617,-9.492c14.618,0 28.357,5.439 28.357,24.441l0,38.245l-19.41,0Zm0,-15.711l0,-5.438c-2.017,-2.91 -6.551,-4.313 -10.844,-4.313c-5.033,0 -9.705,2.286 -9.705,7.101c0,4.816 4.672,7.085 9.705,7.085c4.293,0 8.827,-1.507 10.844,-4.435" style="fill:#a0a0a0;fill-rule:nonzero;"/><path id="path13764" d="M367.363,141.476l0,-84.476l19.411,0l0,30.52c4.792,-6.079 11.343,-8.73 18.031,-8.73c15.257,0 26.841,12.021 26.841,32.045c0,20.768 -11.843,32.165 -26.841,32.165c-6.809,0 -12.98,-2.789 -18.031,-8.609l0,7.085l-19.411,0Zm31.012,-15.711c7.689,0 13.481,-5.698 13.481,-14.93c0,-9.129 -5.792,-14.827 -13.481,-14.827c-4.154,0 -9.205,2.286 -11.601,5.577l0,18.742c2.396,3.291 7.447,5.438 11.601,5.438" style="fill:#a0a0a0;fill-rule:nonzero;"/><rect id="path13766" x="434.42" y="57.002" width="19.411" height="84.475" style="fill:#a0a0a0;fill-rule:nonzero;"/><path id="path13778" d="M456.596,110.825c0,-17.737 13.239,-32.044 32.271,-32.044c18.032,0 31.133,13.303 31.133,34.071l0,4.434l-43.355,0c1.379,5.439 6.43,10.012 15.239,10.012c4.292,0 11.36,-1.906 14.877,-5.197l8.447,12.783c-6.051,5.457 -16.136,8.107 -25.462,8.107c-18.773,0 -33.15,-12.281 -33.15,-32.166m32.271,-16.334c-8.447,0 -11.723,5.058 -12.481,9.492l25.082,0c-0.5,-4.313 -3.654,-9.492 -12.601,-9.492" style="fill:#a0a0a0;fill-rule:nonzero;"/></g></svg>