<?xml version="1.0" encoding="UTF-8" standalone="no"?><!DOCTYPE svg PUBLIC "-//W3C//DTD SVG 1.1//EN" "http://www.w3.org/Graphics/SVG/1.1/DTD/svg11.dtd"><svg width="100%" height="100%" viewBox="0 0 540 200" version="1.1" xmlns="http://www.w3.org/2000/svg" xmlns:xlink="http://www.w3.org/1999/xlink" xml:space="preserve" xmlns:serif="http://www.serif.com/" style="fill-rule:evenodd;clip-rule:evenodd;stroke-linejoin:round;stroke-miterlimit:1.41421;"><g id="microsoft"><g><path d="M186.88,110.181l-3.07,8.691l-0.256,0c-0.511,-1.959 -1.449,-4.942 -2.984,-8.52l-16.455,-41.325l-16.115,0l0,65.864l10.658,0l0,-40.643c0,-2.556 0,-5.453 -0.085,-9.032c-0.086,-1.789 -0.256,-3.152 -0.342,-4.175l0.256,0c0.512,2.556 1.109,4.431 1.535,5.624l19.781,48.056l7.503,0l19.61,-48.482c0.427,-1.108 0.853,-3.323 1.279,-5.198l0.256,0c-0.256,4.857 -0.426,9.202 -0.512,11.844l0,41.75l11.34,0l0,-65.778l-15.517,0l-16.882,41.324Zm43.142,-22.749l11.085,0l0,47.203l-11.085,0l0,-47.203Zm5.628,-19.939c-1.876,0 -3.411,0.682 -4.69,1.875c-1.279,1.193 -1.961,2.727 -1.961,4.601c0,1.789 0.682,3.323 1.961,4.516c1.279,1.193 2.814,1.789 4.69,1.789c1.876,0 3.496,-0.681 4.689,-1.789c1.279,-1.193 1.961,-2.727 1.961,-4.516c0,-1.789 -0.682,-3.323 -1.961,-4.601c-1.108,-1.193 -2.728,-1.875 -4.689,-1.875m44.763,19.513c-2.047,-0.427 -4.178,-0.682 -6.225,-0.682c-5.03,0 -9.634,1.108 -13.471,3.323c-3.837,2.215 -6.906,5.283 -8.867,9.117c-2.047,3.919 -3.07,8.435 -3.07,13.633c0,4.516 1.023,8.52 2.984,12.184c1.961,3.579 4.69,6.476 8.356,8.436c3.496,1.959 7.588,2.982 12.193,2.982c5.286,0 9.805,-1.108 13.386,-3.153l0.085,-0.085l0,-10.225l-0.426,0.341c-1.62,1.193 -3.496,2.215 -5.372,2.812c-1.961,0.681 -3.751,1.022 -5.286,1.022c-4.434,0 -7.929,-1.278 -10.402,-4.09c-2.558,-2.726 -3.837,-6.475 -3.837,-11.161c0,-4.857 1.279,-8.691 3.922,-11.503c2.643,-2.812 6.139,-4.261 10.402,-4.261c3.581,0 7.248,1.193 10.573,3.579l0.426,0.341l0,-10.821l-0.085,-0.085c-1.45,-0.597 -3.07,-1.278 -5.286,-1.704m36.577,-0.341c-2.728,0 -5.286,0.852 -7.503,2.641c-1.876,1.534 -3.155,3.749 -4.263,6.39l-0.085,0l0,-8.264l-11.084,0l0,47.203l11.084,0l0,-24.113c0,-4.09 0.852,-7.498 2.728,-9.969c1.876,-2.556 4.263,-3.834 7.162,-3.834c1.023,0 2.046,0.256 3.325,0.426c1.194,0.341 2.047,0.682 2.643,1.108l0.427,0.34l0,-11.076l-0.256,-0.085c-0.767,-0.512 -2.302,-0.767 -4.178,-0.767m78.356,20.364c-3.495,-1.449 -5.712,-2.556 -6.735,-3.494c-0.853,-0.852 -1.279,-2.045 -1.279,-3.578c0,-1.278 0.511,-2.556 1.79,-3.408c1.279,-0.853 2.729,-1.279 4.86,-1.279c1.876,0 3.837,0.341 5.713,0.853c1.875,0.511 3.581,1.278 4.945,2.3l0.426,0.341l0,-10.395l-0.256,-0.085c-1.278,-0.512 -2.984,-1.023 -5.03,-1.449c-2.046,-0.341 -3.922,-0.511 -5.457,-0.511c-5.286,0 -9.634,1.278 -13.045,4.09c-3.41,2.641 -5.03,6.22 -5.03,10.395c0,2.215 0.341,4.175 1.108,5.794c0.767,1.619 1.876,3.152 3.41,4.43c1.535,1.193 3.752,2.557 6.821,3.835c2.558,1.107 4.519,1.959 5.713,2.641c1.194,0.682 1.961,1.449 2.558,2.045c0.426,0.682 0.682,1.534 0.682,2.641c0,3.153 -2.387,4.687 -7.247,4.687c-1.876,0 -3.837,-0.341 -6.139,-1.108c-2.302,-0.767 -4.434,-1.874 -6.224,-3.153l-0.427,-0.34l0,10.821l0.256,0.085c1.62,0.767 3.581,1.278 5.968,1.874c2.388,0.426 4.519,0.767 6.395,0.767c5.713,0 10.402,-1.278 13.727,-4.09c3.411,-2.726 5.201,-6.22 5.201,-10.735c0,-3.153 -0.852,-5.965 -2.728,-8.095c-2.473,-2.045 -5.542,-4.175 -9.976,-5.879m102.315,13.803c0,9.969 4.69,14.996 14.069,14.996c1.534,0 3.154,-0.255 4.689,-0.511c1.62,-0.341 2.814,-0.767 3.496,-1.108l0.085,-0.085l0,-9.117l-0.426,0.341c-0.682,0.426 -1.279,0.767 -2.302,1.022c-0.853,0.256 -1.62,0.341 -2.217,0.341c-2.217,0 -3.752,-0.511 -4.86,-1.789c-1.023,-1.193 -1.535,-3.153 -1.535,-6.05l0,-25.135l0.171,0l0,-20.279l-0.341,0.085l-10.573,3.153l-0.256,0.085l0,44.051Zm-16.711,-39.365c0,-2.726 0.682,-4.857 1.876,-6.22c1.193,-1.363 2.984,-2.045 5.201,-2.045c1.534,0 3.154,0.341 4.945,1.108l0.426,0.255l0,-9.628l-0.256,-0.085c-1.534,-0.511 -3.581,-0.852 -6.224,-0.852c-3.325,0 -6.224,0.767 -8.867,2.045c-2.643,1.448 -4.604,3.408 -6.054,6.05c-1.449,2.556 -2.217,5.453 -2.217,8.776l0,53.764l11.17,0l0,-53.168Zm-6.906,15.082l45.956,0l0,-9.117l-57.978,0l0,9.031l12.022,0l0,0.086Z" style="fill:#a0a0a0;fill-rule:nonzero;"/><path id="o" d="M352.174,86.179c-7.534,0 -13.578,2.235 -17.801,6.623c-4.305,4.388 -6.375,10.433 -6.375,18.05c0,7.12 2.153,12.916 6.292,17.138c4.14,4.14 9.77,6.293 16.808,6.293c7.369,0 13.247,-2.236 17.47,-6.707c4.305,-4.471 6.375,-10.432 6.375,-17.801c0,-7.286 -1.987,-13.081 -6.044,-17.304c-3.892,-4.222 -9.604,-6.292 -16.725,-6.292m8.611,35.27c-1.987,2.567 -5.133,3.809 -9.025,3.809c-3.891,0 -7.037,-1.242 -9.273,-3.974c-2.235,-2.567 -3.312,-6.293 -3.312,-11.012c0,-4.885 1.159,-8.611 3.312,-11.26c2.236,-2.649 5.299,-3.974 9.19,-3.974c3.809,0 6.79,1.242 8.942,3.808c2.153,2.567 3.312,6.293 3.312,11.178c-0.165,4.967 -1.076,8.859 -3.146,11.425" style="fill:#a0a0a0;fill-rule:nonzero;"/><path id="o1" serif:id="o" d="M439.689,86.179c-7.535,0 -13.579,2.235 -17.801,6.623c-4.306,4.388 -6.375,10.433 -6.375,18.05c0,7.12 2.152,12.916 6.292,17.138c4.14,4.14 9.77,6.293 16.807,6.293c7.369,0 13.248,-2.236 17.47,-6.707c4.305,-4.471 6.375,-10.432 6.375,-17.801c0,-7.286 -1.987,-13.081 -6.044,-17.304c-3.891,-4.222 -9.604,-6.292 -16.724,-6.292m8.61,35.27c-1.987,2.567 -5.133,3.809 -9.024,3.809c-3.892,0 -7.038,-1.242 -9.273,-3.974c-2.236,-2.567 -3.312,-6.293 -3.312,-11.012c0,-4.885 1.159,-8.611 3.312,-11.26c2.235,-2.649 5.299,-3.974 9.19,-3.974c3.808,0 6.789,1.242 8.942,3.808c2.152,2.567 3.312,6.293 3.312,11.178c-0.166,4.967 -1.077,8.859 -3.147,11.425" style="fill:#a0a0a0;fill-rule:nonzero;"/><rect x="20" y="46" width="50" height="50" style="fill:#a0a0a0;fill-rule:nonzero;"/><rect x="78" y="46" width="50" height="50" style="fill:#a0a0a0;fill-rule:nonzero;"/><rect x="20" y="104" width="50" height="50" style="fill:#a0a0a0;fill-rule:nonzero;"/><rect x="78" y="104" width="50" height="50" style="fill:#a0a0a0;fill-rule:nonzero;"/></g></g></svg>