<?xml version="1.0" encoding="UTF-8" standalone="no"?><!DOCTYPE svg PUBLIC "-//W3C//DTD SVG 1.1//EN" "http://www.w3.org/Graphics/SVG/1.1/DTD/svg11.dtd"><svg width="100%" height="100%" viewBox="0 0 540 200" version="1.1" xmlns="http://www.w3.org/2000/svg" xmlns:xlink="http://www.w3.org/1999/xlink" xml:space="preserve" xmlns:serif="http://www.serif.com/" style="fill-rule:evenodd;clip-rule:evenodd;stroke-linejoin:round;stroke-miterlimit:1.41421;"><g id="pbs"><path id="path21" d="M101.609,94.47c4.391,0 7.953,-3.578 7.953,-7.969c0,-4.39 -3.562,-7.952 -7.953,-7.952c-4.39,0 -7.952,3.562 -7.952,7.952c0,4.391 3.562,7.969 7.952,7.969m-17.936,-38.929c-19.937,0 -36.333,13.921 -36.333,34.57c0,17.361 10.444,29.762 26.053,32.132l0,24.148l32.465,0l0,-23.214l4.511,0c5.262,-0.512 8.829,-3.995 8.882,-8.876l0,-13.425l8.849,0l-20.126,-45.335l-24.301,0Zm62.506,45.335l8.845,0l-19.858,-45.335l-13.119,0l19.937,45.335l-9.087,0l0,12.016c0.026,7.303 -3.018,10.417 -12.923,10.28l0,23.213l12.997,0l0,-23.213l4.259,0c3.773,0.11 8.886,-2.961 8.949,-8.913l0,-13.383Zm-126.179,-0.876c0,-44.179 35.821,-80 80,-80c44.179,0 79.995,35.821 79.995,80c0,44.179 -35.816,80 -79.995,80c-44.179,0 -80,-35.821 -80,-80" style="fill:#a0a0a0;fill-rule:nonzero;"/><g><path d="M225.257,96.698l0,-34.372l19.626,0c2.896,0 5.684,0.214 8.366,0.642c2.681,0.429 5.04,1.259 7.078,2.49c2.038,1.231 3.673,2.971 4.907,5.22c1.233,2.249 1.85,5.193 1.85,8.834c0,3.641 -0.617,6.585 -1.85,8.834c-1.234,2.249 -2.869,3.989 -4.907,5.22c-2.038,1.231 -4.397,2.061 -7.078,2.49c-2.682,0.428 -5.47,0.642 -8.366,0.642l-19.626,0Zm-25.257,-53.967l0,114.681l25.257,0l0,-41.119l26.544,0c7.185,0 13.298,-1.044 18.339,-3.132c5.041,-2.088 9.143,-4.845 12.307,-8.271c3.164,-3.427 5.469,-7.362 6.917,-11.806c1.448,-4.444 2.172,-8.968 2.172,-13.572c0,-4.711 -0.724,-9.262 -2.172,-13.653c-1.448,-4.39 -3.753,-8.298 -6.917,-11.725c-3.164,-3.426 -7.266,-6.183 -12.307,-8.271c-5.041,-2.088 -11.154,-3.132 -18.339,-3.132l-51.801,0Z" style="fill:#a0a0a0;fill-rule:nonzero;"/><path d="M332.558,89.149l0,-26.823l23.649,0c2.252,0 4.424,0.187 6.515,0.562c2.091,0.375 3.941,1.044 5.55,2.008c1.609,0.963 2.896,2.302 3.861,4.015c0.965,1.713 1.448,3.909 1.448,6.586c0,4.818 -1.448,8.298 -4.344,10.44c-2.896,2.141 -6.596,3.212 -11.1,3.212l-25.579,0Zm-25.256,-46.418l0,114.681l55.661,0c5.148,0 10.162,-0.643 15.042,-1.928c4.879,-1.285 9.223,-3.266 13.03,-5.943c3.808,-2.677 6.837,-6.13 9.09,-10.36c2.252,-4.229 3.378,-9.235 3.378,-15.017c0,-7.175 -1.743,-13.305 -5.228,-18.391c-3.486,-5.086 -8.768,-8.647 -15.846,-10.681c5.148,-2.463 9.035,-5.622 11.663,-9.477c2.627,-3.854 3.941,-8.673 3.941,-14.455c0,-5.354 -0.885,-9.851 -2.654,-13.492c-1.77,-3.641 -4.263,-6.559 -7.481,-8.754c-3.217,-2.195 -7.078,-3.774 -11.582,-4.738c-4.505,-0.964 -9.492,-1.445 -14.962,-1.445l-54.052,0Zm25.256,95.085l0,-31.481l27.509,0c5.47,0 9.867,1.258 13.192,3.775c3.325,2.516 4.987,6.719 4.987,12.608c0,2.998 -0.509,5.461 -1.528,7.389c-1.019,1.927 -2.387,3.453 -4.103,4.577c-1.716,1.125 -3.7,1.928 -5.952,2.409c-2.252,0.482 -4.611,0.723 -7.078,0.723l-27.027,0Z" style="fill:#a0a0a0;fill-rule:nonzero;"/><path d="M437.769,119.345l-24.453,0c-0.107,7.067 1.18,13.171 3.861,18.311c2.681,5.139 6.301,9.369 10.859,12.688c4.558,3.32 9.813,5.756 15.765,7.309c5.953,1.552 12.092,2.328 18.42,2.328c7.829,0 14.72,-0.91 20.672,-2.73c5.952,-1.82 10.939,-4.363 14.961,-7.629c4.022,-3.266 7.052,-7.148 9.089,-11.645c2.038,-4.497 3.057,-9.37 3.057,-14.616c0,-6.425 -1.367,-11.699 -4.102,-15.821c-2.735,-4.123 -5.979,-7.415 -9.733,-9.878c-3.754,-2.463 -7.534,-4.257 -11.341,-5.381c-3.808,-1.124 -6.784,-1.901 -8.929,-2.329c-7.185,-1.82 -13.004,-3.319 -17.454,-4.497c-4.451,-1.178 -7.937,-2.356 -10.457,-3.534c-2.52,-1.178 -4.21,-2.463 -5.068,-3.855c-0.858,-1.392 -1.287,-3.212 -1.287,-5.461c0,-2.462 0.537,-4.497 1.609,-6.103c1.073,-1.606 2.44,-2.945 4.102,-4.016c1.663,-1.07 3.513,-1.82 5.551,-2.248c2.037,-0.428 4.075,-0.643 6.113,-0.643c3.11,0 5.979,0.268 8.606,0.803c2.628,0.536 4.96,1.446 6.998,2.731c2.038,1.285 3.673,3.052 4.907,5.3c1.233,2.249 1.957,5.087 2.172,8.513l24.452,0c0,-6.639 -1.26,-12.287 -3.78,-16.945c-2.521,-4.658 -5.926,-8.486 -10.216,-11.484c-4.29,-2.998 -9.196,-5.167 -14.72,-6.505c-5.523,-1.339 -11.287,-2.008 -17.293,-2.008c-5.148,0 -10.296,0.696 -15.444,2.088c-5.148,1.392 -9.76,3.534 -13.835,6.425c-4.075,2.891 -7.373,6.505 -9.894,10.841c-2.52,4.337 -3.78,9.45 -3.78,15.339c0,5.247 0.992,9.718 2.976,13.412c1.984,3.694 4.585,6.773 7.802,9.236c3.218,2.462 6.864,4.47 10.94,6.023c4.075,1.552 8.258,2.864 12.548,3.935c4.182,1.178 8.311,2.249 12.387,3.212c4.075,0.964 7.722,2.088 10.939,3.373c3.218,1.285 5.818,2.891 7.802,4.819c1.984,1.927 2.976,4.443 2.976,7.549c0,2.891 -0.75,5.273 -2.252,7.147c-1.501,1.874 -3.378,3.346 -5.63,4.417c-2.252,1.071 -4.666,1.794 -7.239,2.169c-2.574,0.374 -4.987,0.562 -7.24,0.562c-3.324,0 -6.542,-0.402 -9.652,-1.205c-3.11,-0.803 -5.818,-2.034 -8.124,-3.694c-2.306,-1.66 -4.156,-3.828 -5.55,-6.505c-1.394,-2.677 -2.091,-5.943 -2.091,-9.798Z" style="fill:#a0a0a0;fill-rule:nonzero;"/></g></g></svg>