<?xml version="1.0" encoding="UTF-8" standalone="no"?><!DOCTYPE svg PUBLIC "-//W3C//DTD SVG 1.1//EN" "http://www.w3.org/Graphics/SVG/1.1/DTD/svg11.dtd"><svg width="100%" height="100%" viewBox="0 0 540 200" version="1.1" xmlns="http://www.w3.org/2000/svg" xmlns:xlink="http://www.w3.org/1999/xlink" xml:space="preserve" xmlns:serif="http://www.serif.com/" style="fill-rule:evenodd;clip-rule:evenodd;stroke-linejoin:round;stroke-miterlimit:1.41421;"><g id="redbull"><g id="redbull1" serif:id="redbull"><path id="path3623" d="M401.199,128.019l0,-39.907l-21.974,0l0,44.151c0,14.933 15.46,27.055 34.542,27.055c19.069,0 34.542,-12.122 34.542,-27.055l-0.013,-44.151l-21.799,0l-0.013,39.907c0,6.649 -5.649,12.041 -12.636,12.041c-6.987,0 -12.649,-5.392 -12.649,-12.041" style="fill:#a0a0a0;"/><rect id="path3625" x="497.877" y="40.682" width="22.123" height="116.154" style="fill:#a0a0a0;"/><rect id="path3627" x="460.457" y="40.682" width="22.136" height="116.154" style="fill:#a0a0a0;"/><path id="path3631" d="M55.603,65.049l-12.027,0l0,91.788l-23.555,0l0,-110.829l40.475,0c18.419,0 33.352,14.663 33.352,32.731c0,15.393 -10.824,28.298 -25.406,31.799l32.515,46.299l-27.745,0l-23.514,-36.285l0,-26.502l5.459,-0.013c8.704,0 15.744,-6.487 15.744,-14.501c0,-8 -6.608,-14.487 -15.298,-14.487" style="fill:#a0a0a0;"/><path id="path3635" d="M121.689,114.261c0,-7.474 6.054,-13.514 13.514,-13.514c7.473,0 13.527,6.04 13.527,13.514l-27.041,0Zm48.826,12.73c0.149,-1.514 0.216,-3.068 0.203,-4.649c0.338,-23.96 -15.514,-37.096 -35.704,-37.096c-20.204,0 -36.57,16.582 -36.57,37.029c0,20.446 16.38,37.042 36.57,37.042c15.433,0 27.447,-6.974 33.65,-17.906l-17.961,-8.285c-2.297,4.947 -7.649,8.42 -13.879,8.406c-8.608,-0.013 -14.973,-6.324 -15.054,-13.784c0,-0.527 0,-0.757 0,-0.757l48.745,0Z" style="fill:#a0a0a0;fill-rule:nonzero;"/><path id="path3639" d="M220.559,139.856c-8.973,0 -16.244,-7.959 -16.244,-17.784c0,-9.811 7.271,-17.771 16.244,-17.771c8.973,0 16.244,7.96 16.244,17.771c0,9.825 -7.271,17.784 -16.244,17.784m38.042,16.988l-0.027,-116.154l-22.055,0l0,54.962c-5.865,-5.811 -13.69,-9.338 -22.244,-9.338c-18.271,0 -33.082,16.203 -33.082,36.204c0,19.987 14.811,36.191 33.082,36.191c8.635,0 16.447,-3.663 22.339,-9.595l0,7.73l21.987,0Z" style="fill:#a0a0a0;fill-rule:nonzero;"/><path id="path3643" d="M333.625,137.591l-21.163,0l0,-72.543l14.757,0c6.487,0 11.744,5.933 11.744,12.419c0,6.487 -5.257,11.744 -11.744,11.744l-7.69,0l0,19.92l14.096,0c7.865,0 13.797,6.338 13.797,14.203c-0.283,8.122 -5.256,13.73 -13.797,14.257m18.527,-41.082c6.055,-5.649 9.758,-13.217 9.758,-21.528c0,-7.541 -2.906,-14.46 -7.974,-19.893c-5.284,-5.811 -14.622,-9.081 -27.244,-9.081l-37.826,0l0,110.829l48.853,0c18.717,-0.311 33.799,-14.434 33.799,-31.786c0,-12.608 -4.446,-21.609 -19.366,-28.541" style="fill:#a0a0a0;fill-rule:nonzero;"/></g></g></svg>