<?xml version="1.0" encoding="UTF-8" standalone="no"?><!DOCTYPE svg PUBLIC "-//W3C//DTD SVG 1.1//EN" "http://www.w3.org/Graphics/SVG/1.1/DTD/svg11.dtd"><svg width="100%" height="100%" viewBox="0 0 540 200" version="1.1" xmlns="http://www.w3.org/2000/svg" xmlns:xlink="http://www.w3.org/1999/xlink" xml:space="preserve" xmlns:serif="http://www.serif.com/" style="fill-rule:evenodd;clip-rule:evenodd;stroke-linejoin:round;stroke-miterlimit:1.41421;"><g id="samsung"><path d="M510.703,58.099c-6.555,-37.629 -119.541,-49.388 -252.578,-26.217c-49.779,8.222 -98.548,21.689 -145.492,40.174c4.786,-0.316 9.517,1.201 13.226,4.241c2.202,2.335 3.359,5.47 3.201,8.675l0,3.856l-13.034,0l0,-3.316c0.009,-0.11 0.013,-0.221 0.013,-0.332c0,-2.263 -1.862,-4.125 -4.126,-4.125c-0.146,0 -0.292,0.008 -0.437,0.023c-0.204,-0.033 -0.409,-0.049 -0.615,-0.049c-1.917,0 -3.557,1.428 -3.82,3.326c-0.179,0.852 -0.179,1.732 0,2.583c1.388,5.707 20.746,9.254 22.867,19.779c0.473,2.782 0.473,5.623 0,8.405c-1.195,8.482 -8.676,11.759 -18.162,11.759c-13.265,0 -18.625,-6.284 -18.625,-14.92l0,-4.241l13.959,0l0,5.089c-0.001,0.024 -0.001,0.048 -0.001,0.072c0,2.411 1.985,4.395 4.396,4.395c0.181,0 0.361,-0.011 0.541,-0.033c2.217,0.334 4.34,-1.126 4.82,-3.316c0.354,-1.195 0.354,-2.468 0,-3.663c-2.584,-6.477 -20.669,-9.523 -22.906,-20.01c-0.456,-2.278 -0.456,-4.623 0,-6.901c0.211,-1.257 0.6,-2.478 1.157,-3.624c-43.69,20.28 -69.179,42.834 -65.786,62.189c6.556,37.629 119.541,49.35 252.578,26.217c58.421,-10.179 110.98,-25.408 150.968,-42.41l-1.735,0c-9.1,0 -17.237,-3.393 -18.085,-12.723c0,-1.697 0,-2.391 0,-3.355l0,-21.205c0,-0.925 0,-2.545 0.193,-3.393c1.079,-8.983 8.175,-12.684 18.046,-12.684c7.713,0 16.968,2.197 18.009,12.684c0.055,1.066 0.055,2.134 0,3.2l0,2.005l-13.188,0l0,-3.007c0.048,-0.629 0.048,-1.26 0,-1.889c-0.446,-2.272 -2.6,-3.832 -4.898,-3.547c-2.284,-0.229 -4.403,1.305 -4.897,3.547c-0.146,0.775 -0.211,1.563 -0.193,2.352l0,23.132c-0.056,0.629 -0.056,1.261 0,1.89c0.754,2.114 2.768,3.535 5.013,3.535c2.245,0 4.26,-1.421 5.013,-3.535c0.054,-0.629 0.054,-1.261 0,-1.89l0,-7.171l-5.167,0l0,-7.711l18.355,0l0,13.803c0.058,1.117 0.058,2.237 0,3.354c-0.172,2.251 -0.93,4.417 -2.198,6.285c42.225,-20.203 66.904,-42.256 63.588,-61.303Zm-344.701,66.7l-6.671,-45.34l-0.232,0l-6.709,45.34l-14.191,0l9.448,-51.162l22.944,0l9.409,51.162l-13.998,0Zm67.598,0l-0.231,-44.453l-0.232,0l-8.329,44.453l-13.188,0l-8.252,-44.453l-0.231,0l-0.309,44.415l-13.072,0l1.195,-51.124l21.016,0l5.977,37.938l0.309,0l6.131,-38.015l21.016,0l1.118,51.162l-12.918,0.077Zm61.699,-9.908c-1.389,9.908 -11.106,11.566 -17.97,11.566c-11.569,0 -18.433,-4.858 -18.433,-14.766l0,-3.971l13.805,0l0,5.012c0,0.024 0,0.048 0,0.072c0,2.39 1.967,4.357 4.357,4.357c0.181,0 0.362,-0.012 0.541,-0.034c2.171,0.316 4.247,-1.102 4.743,-3.239c0.345,-1.183 0.345,-2.441 0,-3.624c-2.699,-6.4 -20.708,-9.484 -22.867,-19.817c-0.455,-2.252 -0.455,-4.572 0,-6.824c1.504,-9.369 10.489,-11.297 17.738,-11.297c5.035,-0.49 10.066,1.021 13.998,4.203c2.192,2.307 3.336,5.42 3.162,8.597l0,3.856l-13.034,0l0,-3.239c0.009,-0.11 0.014,-0.221 0.014,-0.332c0,-2.242 -1.845,-4.086 -4.088,-4.086c-0.146,0 -0.292,0.007 -0.437,0.023c-0.205,-0.033 -0.413,-0.05 -0.621,-0.05c-1.902,0 -3.534,1.407 -3.814,3.289c-0.18,0.851 -0.18,1.731 0,2.583c1.427,5.513 20.63,8.983 22.674,19.393c0.465,2.756 0.465,5.571 0,8.328l0.232,0Zm47.816,-4.665c0,0.963 0,2.891 0,3.354c-0.771,8.443 -6.826,12.723 -17.893,12.723c-11.067,0 -17.121,-4.28 -17.931,-12.723c0,-0.501 0,-2.391 0,-3.354l0,-36.628l12.841,0l0,37.977c-0.061,0.628 -0.061,1.261 0,1.889c0.581,2.122 2.524,3.605 4.724,3.605c2.2,0 4.143,-1.483 4.724,-3.605c0.05,-0.641 0.05,-1.286 0,-1.928l0,-37.783l13.149,0l0.386,36.473Zm56.917,14.034l-18.51,0l-12.34,-40.522l-0.192,0l0.694,40.522l-12.918,0l0,-50.623l19.28,0l11.569,38.94l-0.694,-38.94l12.918,0l0.193,50.623Z" style="fill:#a0a0a0;fill-rule:nonzero;"/></g></svg>