<?xml version="1.0" encoding="UTF-8" standalone="no"?><!DOCTYPE svg PUBLIC "-//W3C//DTD SVG 1.1//EN" "http://www.w3.org/Graphics/SVG/1.1/DTD/svg11.dtd"><svg width="100%" height="100%" viewBox="0 0 540 200" version="1.1" xmlns="http://www.w3.org/2000/svg" xmlns:xlink="http://www.w3.org/1999/xlink" xml:space="preserve" xmlns:serif="http://www.serif.com/" style="fill-rule:evenodd;clip-rule:evenodd;stroke-linejoin:round;stroke-miterlimit:1.41421;"><g id="student-price-card"><path d="M162.01,116.002c-3.563,1.68 -7.489,2.45 -11.423,2.24c-5.315,0.219 -10.579,-1.128 -15.136,-3.872c-3.934,-2.63 -7.423,-5.871 -10.336,-9.6l-23.615,18.112c2.191,2.788 4.621,5.379 7.264,7.743c3.199,2.873 6.759,5.315 10.591,7.264c4.585,2.331 9.415,4.145 14.4,5.408c6.036,1.515 12.241,2.247 18.464,2.176c7.062,0.137 14.102,-0.835 20.863,-2.88c5.331,-1.617 10.26,-4.344 14.463,-8c3.708,-3.34 6.561,-7.521 8.32,-12.191c1.797,-4.963 2.675,-10.211 2.592,-15.488c0.06,-4.072 -0.501,-8.129 -1.664,-12.031c-1.141,-3.646 -2.978,-7.037 -5.408,-9.984c-2.846,-3.334 -6.258,-6.14 -10.079,-8.288c-4.92,-2.763 -10.109,-5.015 -15.488,-6.72l-16.319,-5.44c-2.355,-0.667 -4.539,-1.835 -6.4,-3.423c-1.445,-1.481 -2.2,-3.504 -2.08,-5.568c-0.02,-2.355 1.072,-4.587 2.944,-6.016c2.555,-1.77 5.634,-2.627 8.735,-2.432c4.097,-0.176 8.175,0.66 11.872,2.432c3.081,1.686 5.877,3.846 8.288,6.4l18.719,-19.616c-1.908,-2.27 -4.053,-4.33 -6.399,-6.144c-2.622,-2.043 -5.466,-3.782 -8.48,-5.183c-3.59,-1.598 -7.346,-2.789 -11.2,-3.552c-4.783,-0.95 -9.651,-1.401 -14.527,-1.344c-5.315,-0.016 -10.601,0.771 -15.68,2.336c-4.847,1.474 -9.381,3.828 -13.376,6.943c-3.907,3.055 -7.078,6.948 -9.279,11.392c-2.351,4.931 -3.513,10.346 -3.392,15.808c-0.085,4.569 0.674,9.114 2.24,13.407c1.474,3.812 3.644,7.317 6.4,10.336c2.774,3.068 6.013,5.681 9.599,7.744c3.899,2.26 8.029,4.095 12.32,5.472l14.399,4.863c3.208,0.955 6.243,2.413 8.992,4.32c1.957,1.448 3.073,3.776 2.976,6.208c0.116,2.988 -1.508,5.786 -4.16,7.168Zm119.709,-2.592c5.959,-2.245 11.402,-5.674 15.999,-10.08c4.381,-4.265 7.787,-9.429 9.984,-15.135c2.312,-6.056 3.463,-12.494 3.392,-18.976c0.071,-6.482 -1.08,-12.919 -3.392,-18.975c-2.214,-5.716 -5.618,-10.897 -9.984,-15.2c-4.622,-4.359 -10.089,-7.725 -16.063,-9.887c-6.995,-2.571 -14.404,-3.829 -21.856,-3.712l-46.302,0l0,122.428l32.639,0l0,-26.559l13.663,0c7.439,0.125 14.837,-1.123 21.824,-3.68l0.096,-0.224Zm-35.583,-23.711l0,-40.895l12.159,0c3.206,-0.094 6.399,0.427 9.408,1.536c2.439,0.91 4.631,2.378 6.4,4.288c1.639,1.841 2.842,4.029 3.52,6.4c0.751,2.686 1.118,5.466 1.088,8.255c0.232,5.264 -1.4,10.444 -4.608,14.624c-3.072,3.669 -8.299,5.504 -15.68,5.504l-12.287,0l0,0.288Zm156.817,22.399c-5.45,3.495 -11.874,5.165 -18.336,4.768c-8.475,0.175 -16.588,-3.499 -22.047,-9.984c-2.658,-3.209 -4.669,-6.904 -5.92,-10.88c-1.41,-4.361 -2.112,-8.92 -2.08,-13.503c-0.032,-4.576 0.637,-9.13 1.984,-13.504c1.198,-3.965 3.154,-7.66 5.76,-10.879c5.17,-6.387 13.033,-10.011 21.247,-9.792c3.435,-0.045 6.859,0.386 10.176,1.28c2.716,0.705 5.322,1.782 7.744,3.2c2.099,1.282 4.006,2.855 5.663,4.672c1.5,1.67 2.88,3.446 4.128,5.311l24.64,-16.735c-2.579,-3.741 -5.539,-7.205 -8.832,-10.336c-3.432,-3.293 -7.297,-6.102 -11.488,-8.351c-4.624,-2.412 -9.538,-4.219 -14.623,-5.376c-5.936,-1.386 -12.017,-2.052 -18.112,-1.984c-24.615,-0.091 -47.01,14.62 -56.702,37.247c-3.467,8.006 -5.222,16.65 -5.152,25.375c-0.259,25.596 15.404,48.822 39.231,58.174c7.78,3.084 16.079,4.648 24.447,4.608c10.976,0.318 21.862,-2.09 31.679,-7.008c9.262,-5.24 16.912,-12.922 22.112,-22.207l-25.088,-16.192c-2.523,4.802 -6.1,8.97 -10.463,12.192l0.032,-0.096Zm-284.398,56.798c-0.507,-0.591 -1.113,-1.089 -1.791,-1.472c-0.894,-0.501 -1.838,-0.909 -2.816,-1.216l-2.848,-0.96c-0.444,-0.155 -0.848,-0.406 -1.184,-0.736c-0.251,-0.266 -0.378,-0.626 -0.352,-0.992c-0.003,-0.428 0.2,-0.833 0.544,-1.087c0.469,-0.321 1.032,-0.479 1.6,-0.448c0.73,-0.026 1.455,0.128 2.112,0.448c0.546,0.293 1.043,0.671 1.472,1.119l3.199,-3.519c-0.334,-0.401 -0.709,-0.766 -1.119,-1.088c-0.476,-0.357 -0.992,-0.658 -1.536,-0.896c-0.661,-0.248 -1.349,-0.42 -2.048,-0.512c-0.854,-0.163 -1.723,-0.238 -2.592,-0.224c-0.944,-0.002 -1.882,0.138 -2.784,0.416c-0.87,0.264 -1.684,0.688 -2.4,1.248c-0.702,0.548 -1.271,1.248 -1.664,2.048c-0.419,0.889 -0.627,1.864 -0.608,2.847c-0.011,0.819 0.13,1.633 0.416,2.4c0.255,0.683 0.635,1.312 1.12,1.856c0.498,0.558 1.081,1.033 1.728,1.408c0.7,0.398 1.44,0.72 2.208,0.96l2.592,0.864c0.579,0.157 1.13,0.405 1.632,0.736c0.358,0.258 0.562,0.68 0.544,1.12c0.041,0.553 -0.248,1.081 -0.736,1.344c-0.646,0.275 -1.35,0.385 -2.048,0.32c-0.913,0.013 -1.812,-0.231 -2.592,-0.704c-0.779,-0.425 -1.482,-0.976 -2.08,-1.632l-4.224,3.2c0.385,0.505 0.814,0.976 1.28,1.408c0.579,0.521 1.224,0.962 1.92,1.312c0.826,0.415 1.695,0.737 2.592,0.96c1.046,0.262 2.121,0.391 3.2,0.384c1.267,0.026 2.53,-0.147 3.744,-0.512c0.953,-0.283 1.836,-0.762 2.592,-1.408c0.672,-0.604 1.188,-1.361 1.503,-2.208c0.33,-0.891 0.493,-1.834 0.48,-2.784c0.003,-0.727 -0.105,-1.449 -0.32,-2.144c-0.125,-0.66 -0.374,-1.289 -0.736,-1.856Zm2.24,-6.399l5.792,0l0,16.959l5.856,0l0,-16.959l5.792,0l0,-4.896l-17.536,0l0.096,4.896Zm32.543,8.447c0.026,0.176 0.039,0.353 0.039,0.531c0,2.001 -1.646,3.648 -3.648,3.648c-1.075,0 -2.098,-0.476 -2.79,-1.299c-0.629,-0.822 -0.936,-1.847 -0.864,-2.88l0,-13.343l-5.824,0l0,13.407c-0.035,1.326 0.204,2.644 0.704,3.872c0.444,1.047 1.123,1.977 1.984,2.72c0.877,0.756 1.901,1.322 3.008,1.664c2.475,0.726 5.108,0.726 7.583,0c1.107,-0.343 2.13,-0.909 3.008,-1.664c0.85,-0.746 1.517,-1.676 1.952,-2.72c0.471,-1.245 0.679,-2.574 0.608,-3.904l0,-13.375l-5.728,0l0,13.375l-0.032,-0.032Zm26.08,-10.335c-1.019,-1.02 -2.24,-1.816 -3.584,-2.336c-1.399,-0.482 -2.873,-0.709 -4.352,-0.672l-8.384,0l0,21.887l8.48,0c1.494,0.02 2.979,-0.229 4.384,-0.736c1.308,-0.481 2.505,-1.221 3.52,-2.176c1.013,-0.962 1.809,-2.129 2.336,-3.424c1.119,-2.936 1.119,-6.184 0,-9.12c-0.523,-1.305 -1.319,-2.484 -2.336,-3.455l-0.064,0.032Zm-4.32,12.383c-1.098,1.119 -2.626,1.714 -4.192,1.632l-1.92,0l0,-12.127l1.952,0c1.535,-0.103 3.045,0.443 4.16,1.503c2.041,2.543 2.041,6.194 0,8.736l0,0.256Zm16.223,-0.736l7.936,0l0,-4.704l-7.904,0l0,-5.151l9.6,0l0,-4.8l-15.423,0l0,21.887l15.807,0l0,-4.992l-9.984,0l-0.032,-2.24Zm27.328,-3.68l-13.728,-11.327c-0.109,-0.063 -0.243,-0.063 -0.352,0c-0.034,0.07 -0.034,0.153 0,0.224l0,22.175l5.504,0l0,-11.136l13.727,11.296c0.081,0.116 0.211,0.187 0.352,0.192c0.035,-0.071 0.035,-0.153 0,-0.224l0,-22.175l-5.439,0l0,10.975l-0.064,0Zm7.647,-6.047l5.792,0l0,16.959l5.856,0l0,-17.023l5.792,0l0,-4.864l-17.44,0l0,4.992l0,-0.064Zm42.975,-2.464c-0.827,-0.789 -1.807,-1.399 -2.88,-1.792c-1.228,-0.456 -2.53,-0.683 -3.84,-0.672l-8.256,0l0,21.887l5.856,0l0,-4.768l2.464,0c1.34,0.032 2.675,-0.185 3.936,-0.64c1.072,-0.395 2.052,-1.005 2.88,-1.792c0.773,-0.728 1.384,-1.611 1.792,-2.592c0.825,-2.185 0.825,-4.598 0,-6.783c-0.377,-1.081 -0.989,-2.065 -1.792,-2.88l-0.16,0.032Zm-4.288,8.735c-0.752,0.688 -1.774,1.005 -2.784,0.864l-2.176,0l0,-7.199l2.176,0c0.568,-0.011 1.133,0.087 1.664,0.288c0.427,0.167 0.81,0.429 1.12,0.767c0.286,0.334 0.494,0.728 0.608,1.152c0.135,0.479 0.2,0.975 0.192,1.472c0.044,0.931 -0.24,1.848 -0.8,2.592l0,0.064Zm25.791,1.568c0.731,-1.298 1.106,-2.766 1.088,-4.256c0.012,-1.158 -0.194,-2.309 -0.608,-3.391c-0.444,-1.039 -1.11,-1.967 -1.952,-2.72c-0.826,-0.789 -1.807,-1.399 -2.879,-1.792c-1.233,-0.434 -2.534,-0.64 -3.84,-0.608l-8.288,0l0,21.887l5.856,0l0,-5.088l2.208,0l3.2,4.992l6.399,0l-3.904,-6.208c1.232,-0.65 2.254,-1.638 2.944,-2.848l-0.224,0.032Zm-5.663,-1.6c-0.73,0.735 -1.755,1.1 -2.784,0.992l-2.208,0l0,-7.295l2.176,0c0.567,-0.009 1.132,0.088 1.664,0.288c0.424,0.157 0.806,0.409 1.12,0.735c0.282,0.324 0.49,0.707 0.608,1.12c0.134,0.479 0.199,0.975 0.192,1.472c0.053,0.942 -0.23,1.873 -0.8,2.624l0.032,0.064Zm9.791,10.688l5.856,0l0,-21.855l-5.728,0l0,21.919l-0.128,-0.064Zm23.488,-5.664c-0.951,0.614 -2.07,0.916 -3.2,0.864c-1.516,0.036 -2.968,-0.625 -3.936,-1.792c-0.472,-0.566 -0.83,-1.218 -1.056,-1.92c-0.246,-0.786 -0.365,-1.607 -0.352,-2.432c-0.005,-0.813 0.113,-1.622 0.352,-2.4c0.216,-0.699 0.564,-1.35 1.024,-1.92c0.925,-1.146 2.335,-1.798 3.808,-1.759c0.604,-0.007 1.207,0.068 1.792,0.224c0.495,0.135 0.969,0.339 1.408,0.607c0.368,0.23 0.702,0.51 0.992,0.832c0.267,0.303 0.513,0.623 0.736,0.96l4.351,-3.199c-0.458,-0.671 -0.983,-1.293 -1.568,-1.856c-0.622,-0.593 -1.322,-1.098 -2.079,-1.504c-0.819,-0.44 -1.69,-0.773 -2.592,-0.992c-1.049,-0.244 -2.124,-0.362 -3.2,-0.352c-4.389,0.083 -8.326,2.783 -9.984,6.847c-0.612,1.436 -0.917,2.984 -0.896,4.544c-0.073,4.59 2.731,8.765 7.008,10.432c1.394,0.556 2.883,0.839 4.384,0.832c1.962,0.06 3.908,-0.369 5.664,-1.248c1.651,-0.936 3.013,-2.309 3.935,-3.968l-4.607,-2.912c-0.447,0.856 -1.082,1.6 -1.856,2.176l-0.128,-0.064Zm14.431,-1.568l8.032,0l0,-4.672l-7.936,0l0,-5.151l9.6,0l0,-4.8l-15.36,0l0,21.887l15.808,0l0,-4.992l-9.92,0l-0.224,-2.272Zm34.271,1.6c-0.95,0.614 -2.069,0.916 -3.2,0.864c-0.773,0.01 -1.539,-0.154 -2.24,-0.48c-0.642,-0.313 -1.209,-0.76 -1.664,-1.312c-0.471,-0.567 -0.829,-1.218 -1.056,-1.92c-0.246,-0.786 -0.364,-1.607 -0.352,-2.432c-0.005,-0.813 0.113,-1.622 0.352,-2.4c0.217,-0.699 0.565,-1.35 1.024,-1.92c0.926,-1.146 2.335,-1.798 3.808,-1.759c0.605,-0.007 1.208,0.068 1.792,0.224c0.496,0.134 0.97,0.339 1.408,0.607c0.368,0.23 0.702,0.51 0.992,0.832c0.268,0.303 0.514,0.623 0.736,0.96l4.32,-3.199c-0.458,-0.671 -0.983,-1.293 -1.568,-1.856c-0.623,-0.593 -1.322,-1.098 -2.08,-1.504c-0.818,-0.44 -1.689,-0.773 -2.592,-0.992c-1.049,-0.244 -2.123,-0.362 -3.2,-0.352c-4.485,-0.038 -8.564,2.668 -10.271,6.815c-0.611,1.436 -0.917,2.984 -0.896,4.544c-0.046,4.582 2.749,8.742 7.007,10.432c1.433,0.525 2.955,0.764 4.48,0.704c1.962,0.06 3.909,-0.369 5.664,-1.248c1.651,-0.936 3.013,-2.309 3.936,-3.968l-4.48,-2.88c-0.452,0.871 -1.098,1.627 -1.888,2.208l-0.032,0.032Zm17.248,-16.767c-0.06,-0.035 -0.133,-0.035 -0.192,0l-10.656,22.399l5.728,0l0.8,-1.856l8.192,0l0.832,1.856l6.175,0l-10.591,-22.399c0.002,-0.012 0.003,-0.023 0.003,-0.035c0,-0.094 -0.07,-0.175 -0.163,-0.189l-0.128,0.224Zm-2.464,16.191l2.208,-5.152l2.24,5.152l-4.448,0Zm31.583,-2.848c0.686,-1.288 1.027,-2.732 0.992,-4.192c0.011,-1.158 -0.196,-2.309 -0.608,-3.391c-0.398,-1.024 -1.009,-1.951 -1.792,-2.72c-0.827,-0.789 -1.807,-1.399 -2.88,-1.792c-1.259,-0.467 -2.594,-0.695 -3.936,-0.672l-8.32,0l0,21.887l5.856,0l0,-5.12l2.208,0l3.2,5.024l6.4,0l-3.904,-6.208c1.213,-0.668 2.211,-1.667 2.88,-2.88l-0.096,0.064Zm-5.664,-1.6c-0.73,0.735 -1.754,1.1 -2.784,0.992l-2.176,0l0,-7.327l2.176,0c0.568,-0.009 1.132,0.088 1.664,0.288c0.424,0.157 0.807,0.409 1.12,0.735c0.283,0.324 0.49,0.707 0.608,1.12c0.135,0.479 0.199,0.975 0.192,1.472c0.051,0.942 -0.233,1.872 -0.8,2.624l0,0.096Zm26.047,-8.255c-1.014,-0.956 -2.212,-1.696 -3.52,-2.176c-1.405,-0.507 -2.89,-0.757 -4.384,-0.736l-8.479,0l0,21.887l8.479,0c1.494,0.02 2.979,-0.229 4.384,-0.736c1.308,-0.481 2.506,-1.221 3.52,-2.176c1.013,-0.962 1.81,-2.129 2.336,-3.424c1.12,-2.936 1.12,-6.184 0,-9.12c-0.486,-1.32 -1.25,-2.52 -2.24,-3.519l-0.096,0Zm-4.32,12.351c-1.098,1.119 -2.626,1.714 -4.192,1.632l-1.952,0l0,-12.031l1.952,0c1.566,-0.078 3.092,0.516 4.192,1.631c2.042,2.543 2.042,6.194 0,8.736l0,0.032Z" style="fill:#a0a0a0;fill-rule:nonzero;"/></g></svg>