<?xml version="1.0" encoding="UTF-8" standalone="no"?><!DOCTYPE svg PUBLIC "-//W3C//DTD SVG 1.1//EN" "http://www.w3.org/Graphics/SVG/1.1/DTD/svg11.dtd"><svg width="100%" height="100%" viewBox="0 0 540 200" version="1.1" xmlns="http://www.w3.org/2000/svg" xmlns:xlink="http://www.w3.org/1999/xlink" xml:space="preserve" xmlns:serif="http://www.serif.com/" style="fill-rule:evenodd;clip-rule:evenodd;stroke-linejoin:round;stroke-miterlimit:1.41421;"><g id="starz"><path id="path3887" d="M114.583,76.618l9.36,-18.827c0,0 -14.364,-13.771 -39.57,-13.771c-22.824,0 -37.567,13.516 -37.567,32.683c0,41.273 58.951,26.341 58.951,47.682c0,8.602 -8.656,12.105 -17.119,12.105c-20.849,0 -35.424,-16.477 -35.424,-16.477l-9.214,19.637c0,0 15.891,16.37 43.834,16.37c22.79,0 39.5,-11.184 39.5,-33.658c0,-40.455 -58.893,-25.934 -58.893,-47.615c0,-6.473 6.259,-11.104 15.561,-11.104c16.191,0 30.581,12.975 30.581,12.975Z" style="fill:#a0a0a0;fill-rule:nonzero;"/><path id="path3889" d="M162.924,154.215l0,-88.244l-31.954,0l0,-20.323l86.011,0l0,20.323l-31.955,0l0,88.244l-22.102,0Z" style="fill:#a0a0a0;fill-rule:nonzero;"/><path id="path3891" d="M252.131,45.058l-54.589,109.152l22.751,0l8.405,-16.897l46.6,0l8.521,16.897l22.984,0l-54.672,-109.152Zm-0.067,45.994l13.232,26.256l-26.546,0l13.314,-26.256Z" style="fill:#a0a0a0;fill-rule:nonzero;"/><path id="path3895" d="M311.779,45.643l0,108.567l22.102,0l0,-39.576l15.445,0l22.568,39.576l25.364,0l-25.614,-44.841c11.027,-5.339 18.491,-15.152 18.491,-30.434c0,-16.712 -11.573,-33.292 -38.679,-33.292l-39.677,0Zm22.102,20.323l18.108,0c9.946,0 15.927,5.652 15.927,13.537c0,8.645 -6.981,13.738 -15.927,13.738l-18.108,0l0,-27.275Z" style="fill:#a0a0a0;fill-rule:nonzero;"/><path id="path3899" d="M406.578,65.971l0,-20.323l89.422,0l-55.603,88.779l54.322,0l0,19.788l-92.668,0l55.304,-88.244l-50.777,0Z" style="fill:#a0a0a0;fill-rule:nonzero;"/></g></svg>