<?xml version="1.0" encoding="UTF-8" standalone="no"?><!DOCTYPE svg PUBLIC "-//W3C//DTD SVG 1.1//EN" "http://www.w3.org/Graphics/SVG/1.1/DTD/svg11.dtd"><svg width="100%" height="100%" viewBox="0 0 540 200" version="1.1" xmlns="http://www.w3.org/2000/svg" xmlns:xlink="http://www.w3.org/1999/xlink" xml:space="preserve" xmlns:serif="http://www.serif.com/" style="fill-rule:evenodd;clip-rule:evenodd;stroke-linejoin:round;stroke-miterlimit:1.41421;"><g id="twitch"><path id="path3373" d="M500.468,75.17l-19.317,-19.306l-35.886,0l0,-24.832l-30.366,0l0,113.107l30.366,0l0,-57.936l24.837,0l0,57.936l30.366,0l0,-68.969Zm-96.602,-19.306l-46.921,0l-19.322,19.306l0,49.654l19.322,19.315l46.921,0l0,-30.342l-35.885,0l0,-27.594l35.885,0l0,-30.339Zm-77.283,0l-24.837,0l0,-24.832l-30.366,0l0,93.792l19.322,19.315l35.881,0l0,-30.342l-24.837,0l0,-27.594l24.837,0l0,-30.339Zm-66.243,-24.832l-30.358,0l0,13.798l30.358,0l0,-13.798Zm0,24.832l-30.358,0l0,88.274l30.358,0l0,-88.274Zm-41.398,0l-30.36,0l0,57.933l-11.038,0l0,-57.933l-30.361,0l0,57.933l-11.037,0l0,-57.933l-30.366,0l0,88.275l93.845,0l19.317,-19.315l0,-68.96Zm-124.202,0l-24.838,0l0,-24.832l-30.36,0l0,93.792l19.32,19.315l35.878,0l0,-30.342l-24.838,0l0,-27.594l24.838,0l0,-30.339Zm416.76,13.788l0,82.759l-41.398,27.589l-27.598,0l0,-13.798l-19.32,13.798l-24.837,0l0,-13.798l-13.797,13.798l-44.162,0l-13.805,-13.798l-2.763,13.798l-38.635,0l-15.799,-13.798l-0.885,13.798l-43.792,0l-1.548,-13.798l-11.855,13.798l-66.887,0l-13.802,-5.518l0,5.518l-35.877,0l-41.402,-24.834l-24.838,-24.816l0,-110.35l52.444,0l24.836,24.83l113.162,0l0,-24.83l93.84,0l0,24.83l24.841,0l0,13.79l13.805,-13.79l27.594,0l24.844,-24.83l52.44,0l0,24.83l30.362,0l24.832,24.822Z" style="fill:#a0a0a0;"/></g></svg>