<?xml version="1.0" encoding="UTF-8" standalone="no"?><!DOCTYPE svg PUBLIC "-//W3C//DTD SVG 1.1//EN" "http://www.w3.org/Graphics/SVG/1.1/DTD/svg11.dtd"><svg width="100%" height="100%" viewBox="0 0 540 200" version="1.1" xmlns="http://www.w3.org/2000/svg" xmlns:xlink="http://www.w3.org/1999/xlink" xml:space="preserve" xmlns:serif="http://www.serif.com/" style="fill-rule:evenodd;clip-rule:evenodd;stroke-linejoin:round;stroke-miterlimit:1.41421;"><g id="dell"><path d="M238.269,26.039l-74.984,57.679c-7.691,-28.835 -32.68,-49.999 -63.447,-49.999l-53.838,0l0,132.641l53.838,0c30.764,0 57.679,-21.141 63.446,-49.975l74.979,57.654l75.004,-57.654l0,49.975l84.586,0l0,-26.913l-55.741,0l0,-105.728l-30.771,0l0,49.975l-71.148,57.707l-15.387,-13.457l34.623,-26.937l36.525,-28.814l-21.138,-17.285l-71.147,55.729l-15.387,-13.457l71.151,-53.826l-21.164,-17.285l0,-0.023l0,-0.007Zm-163.42,34.593l23.067,0c4.807,0 9.504,1.08 13.831,3.063c4.327,1.982 8.285,4.864 11.65,8.468c3.365,3.604 6.13,7.918 8.052,12.784c1.923,4.866 2.994,10.288 2.994,16.056c0,5.286 -0.966,10.445 -2.738,15.219c-1.775,4.775 -4.344,9.176 -7.589,12.899c-3.245,3.726 -7.163,6.777 -11.58,8.91c-4.416,2.133 -9.331,3.317 -14.62,3.317l-23.067,0l0,-80.716Zm419.15,78.821l0,26.913l-84.6,0l0,-132.641l30.764,0l0,105.723l53.837,0l-0.001,0.005Z" style="fill:#a0a0a0;fill-rule:nonzero;"/></g></svg>