<?xml version="1.0" encoding="UTF-8" standalone="no"?><!DOCTYPE svg PUBLIC "-//W3C//DTD SVG 1.1//EN" "http://www.w3.org/Graphics/SVG/1.1/DTD/svg11.dtd"><svg width="100%" height="100%" viewBox="0 0 540 200" version="1.1" xmlns="http://www.w3.org/2000/svg" xmlns:xlink="http://www.w3.org/1999/xlink" xml:space="preserve" xmlns:serif="http://www.serif.com/" style="fill-rule:evenodd;clip-rule:evenodd;stroke-linejoin:round;stroke-miterlimit:1.41421;"><g id="ogilvy"><path d="M158.355,81.314c0,27.445 -14.028,49.051 -34.487,49.051c-20.458,0 -35.071,-21.022 -35.071,-49.635c0,-27.445 14.028,-49.051 34.487,-49.051c20.458,0 35.071,21.022 35.071,49.635m22.797,-0.584c0,-30.949 -23.381,-55.475 -57.284,-55.475c-30.98,0 -57.868,22.19 -57.868,56.643c0,30.949 23.381,55.474 57.284,55.474c31.564,-0.584 57.868,-22.773 57.868,-56.642m50.269,11.095c0,11.095 -4.676,20.438 -12.859,20.438c-7.599,0 -13.445,-8.175 -13.445,-21.022c0,-10.511 4.677,-20.438 12.86,-20.438c7.599,0 13.444,8.175 13.444,21.022m53.192,-42.628c0,-7.591 -7.014,-13.431 -19.874,-13.431c-17.536,0 -31.564,11.679 -31.564,29.198c0,1.167 0,2.335 0,3.503c-4.092,-1.752 -8.768,-2.92 -14.613,-2.92c-14.029,0 -30.98,8.76 -30.98,26.862c0,8.759 4.676,16.35 13.444,21.022c-12.275,1.751 -19.29,8.175 -19.29,18.686c0,10.511 8.184,18.102 23.966,16.35l22.797,-2.92c11.106,-1.167 15.197,2.92 15.197,8.76c0,10.511 -9.352,18.686 -25.134,18.686c-12.275,0 -16.952,-4.088 -16.952,-10.511c0,-1.168 0,-2.336 0,-2.92c0,-3.504 -2.338,-6.423 -5.845,-6.423c-4.092,0 -7.014,2.919 -7.014,7.591c0,10.511 9.937,19.27 29.811,19.27c22.796,0 36.825,-14.599 36.825,-31.533c0,-13.431 -10.522,-20.438 -25.719,-18.686l-25.72,3.504c-8.767,1.168 -11.106,-1.752 -11.106,-5.84c0,-5.255 5.846,-9.343 25.135,-9.343l0.585,0c14.028,0 30.98,-8.759 30.98,-26.861c0,-5.84 -2.339,-11.095 -6.43,-15.767c-1.169,-2.919 -1.754,-5.839 -1.754,-9.343c0,-13.43 9.353,-21.605 18.705,-21.605c4.092,0 5.261,0.583 5.261,3.503c0,0.584 0,1.168 0,2.336c0,4.671 4.091,9.343 9.937,9.343c5.26,-1.168 9.352,-5.839 9.352,-10.511m47.931,81.168l-7.598,-0.584c-1.169,0 -1.754,-1.168 -1.754,-2.336l0,-107.445l-27.473,7.007l0,3.504l7.599,2.336c1.169,0.584 1.754,1.168 1.754,2.919l0,91.679c0,1.752 -1.169,2.92 -3.508,2.92l-7.014,0l-7.599,0c-1.753,0 -3.507,-1.168 -3.507,-2.92l0,-62.481l-27.473,7.007l0,3.503l7.599,2.336c1.169,0.584 1.754,1.168 1.754,2.92l0,46.715c0,1.168 -0.585,2.336 -1.754,2.336l-6.43,0.584l0,4.671l74.82,0l0,-4.671l0.584,0Zm141.456,-57.81l0,-4.672l-26.304,0l0,4.672l6.43,1.168c2.338,0.584 2.923,2.335 1.169,5.839l-14.029,34.453c-0.584,1.167 -1.169,1.167 -1.753,0l-13.444,-35.037c-1.169,-3.504 -0.585,-5.255 1.753,-5.839l6.43,-1.168l0,-4.672l-30.98,0l-2.922,0l-21.043,0l0,4.672l6.429,1.168c2.338,0.584 2.923,2.335 1.754,5.839l-14.029,36.204c-0.584,1.168 -1.169,1.168 -1.753,0l-15.198,-36.204c-1.169,-3.504 -0.584,-5.255 1.754,-5.839l6.429,-1.168l0,-4.672l-35.071,0l0,4.672l3.507,0.584c2.338,0.584 3.507,1.752 4.676,4.087l23.966,58.394l10.521,0l23.966,-58.394c1.169,-2.919 2.923,-4.087 5.261,-4.087l1.169,0c1.753,0 3.507,0.584 4.676,3.503l24.55,60.73l-6.43,15.767c-4.091,10.511 -7.599,12.263 -11.69,12.263c-1.754,0 -3.507,-0.584 -5.261,-0.584c-4.676,0 -7.599,3.503 -7.599,7.007c0,4.087 3.507,7.007 8.768,7.007c7.599,0 15.198,-6.423 21.628,-21.022l32.733,-78.248c1.754,-3.504 3.507,-5.255 7.014,-5.839l2.923,-0.584Z" style="fill:#a0a0a0;fill-rule:nonzero;"/></g></svg>