<?xml version="1.0" encoding="UTF-8" standalone="no"?><!DOCTYPE svg PUBLIC "-//W3C//DTD SVG 1.1//EN" "http://www.w3.org/Graphics/SVG/1.1/DTD/svg11.dtd"><svg width="100%" height="100%" viewBox="0 0 540 200" version="1.1" xmlns="http://www.w3.org/2000/svg" xmlns:xlink="http://www.w3.org/1999/xlink" xml:space="preserve" xmlns:serif="http://www.serif.com/" style="fill-rule:evenodd;clip-rule:evenodd;stroke-linejoin:round;stroke-miterlimit:1.41421;"><g id="plastic"><path d="M345.105,54.552c7.069,-18.853 9.357,-34.552 9.357,-34.552c7.475,2.981 9.254,9.576 8.685,16.444l0,0c0,0 -0.31,6.283 -3.101,16.687c12.773,-0.618 36.941,-2.405 61.01,-23.827c0,0 26.851,32.793 -64.583,35.18c-2.999,8.322 -7.333,18.078 -13.594,28.68c0,0 -13.063,21.756 -7.668,28.21c9.732,-1.345 24.446,-24.211 27.936,-28.187c2.487,-2.834 15.093,-20.26 15.093,-20.26l0.059,-0.033c5.014,-2.753 15.825,0.033 15.825,0.033c-12.189,22.426 -20.881,51.707 -17.231,50.146c2.3,-0.3 8.293,-4.99 23.206,-22.969c2.069,-2.673 4.006,-5.026 5.774,-7.075l0.001,-0.001l0,0c6.506,-7.539 10.718,-10.95 10.718,-10.95c8.241,-7.629 20.583,-6.813 20.609,-6.812c0.021,-0.001 13.266,-1.017 13.799,9.664l0,0c-0.084,6.364 -4.936,12.985 -5.999,14.135c-4.632,5.013 -13.325,6.698 -16.55,3.115c-3.138,-3.485 -1.16,-10.408 4.393,-15.663c-1.359,0.072 -2.345,0.493 -3.768,1.834c-5.88,5.539 -11.856,14.615 -14.125,29.3c0,0 -2.864,16.148 16.497,6.801c0,0 9.219,-5.463 11.411,-12.386c0,0 5.454,1.302 1.069,12.37c-2.356,5.945 -10.917,14.889 -24.231,14.889c0,0 -22.628,1.3 -22.324,-20.823c-10.429,21.021 -22.994,19.73 -22.994,19.73c-14.854,-1.854 -13.812,-17.966 -10.435,-30.925c-19.636,28.972 -31.7,28.2 -31.7,28.2c-13.528,0 -12.777,-13.814 -12.777,-13.814c0.037,-5.292 1.025,-10.085 2.544,-14.343c-10.343,13.118 -27.4,30.866 -43.985,30.882c0,0 -15.553,-0.431 -14.285,-10.636c0,0 0.307,-8.095 8.11,-8.095c0,0 1.483,-0.126 3.774,0.715l0,0l0.002,0.001c0.129,0.047 0.261,0.098 0.395,0.151c1.831,0.69 3.459,1.104 4.905,1.297l0.025,-0.014c3.181,0 6.495,-1.843 7.586,-4.296c2.733,-6.144 -0.768,-15.124 -3.289,-20.242c-32.252,43.728 -43.948,40.941 -43.948,40.941c-8.927,0 -9.718,-8.173 -8.823,-14.998c-13.553,15.303 -20.928,13.283 -20.928,13.283c-9.735,0 -12.297,-8.27 -12.784,-14.917c-12.571,17.42 -21.105,14.774 -21.105,14.774c-14.984,-2.531 -13.309,-16.574 -9.736,-27.119c-12.45,13.01 -29.218,27.447 -43.529,29.065c0,0 -4.434,0.418 -6.678,-2.719c0,0 -5.806,-8.411 -2.449,-8.862c0,0 13.23,-1.191 27.452,-19.636c4.168,-6.061 7.47,-12.534 7.47,-17.833c0,0 0.246,-5.373 -4.832,-5.819c-48.879,34.996 -42.755,96.727 -42.755,96.727c-13.639,-3.446 -13.604,-18.778 -13.604,-18.778c0,-31.392 30.509,-87.407 30.509,-87.407c8.832,-2.586 10.954,1.1 11.164,4.694c3.65,-3.032 8.471,-5.685 14.168,-5.685c0,0 17.176,-0.106 17.176,17.147c0,0 -0.08,7.885 -3.493,15.981c11.969,-11.743 29.95,-36.577 41.674,-85.952c0,0 20.589,-0.244 -0.497,48.625c0,0 -21.253,43.262 -19.96,54.567c8.857,-0.128 17.571,-15.069 17.571,-15.069c21.125,-37.378 38.049,-35.277 38.049,-35.277c7.24,0 11.476,2.947 13.954,6.369c1.499,-0.786 2.957,-1.935 3.48,-3.549l0.014,-0.044c0,0 6.796,0.759 9.984,4.054c0,0 3.436,3.147 0.175,10.398c-10.187,22.654 -18.821,31.19 -14.179,30.759c9.176,-5.072 28.785,-30.029 28.785,-30.029c19.638,-24.288 22.443,-21.911 22.443,-21.911c6.801,0 11.493,4.055 11.493,4.055l-0.147,0.209c-12.462,17.703 -11.699,23.157 -11.699,23.157c0,6.918 2.143,11.019 4.606,13.447c17.358,-10.231 29.048,-28.122 36.744,-45.253c-6.761,-0.085 -18.021,-0.227 -34.276,-0.424c0,0 -18.68,-0.864 -36.738,-3.089c0,0 -11.99,-2.884 -29.254,-0.749c0,0 -20.647,2.032 -32.534,16.394c0,0 -6.964,-26.581 54.807,-24.704c0,0 44.569,3.811 63.236,3.669c0,0 6.159,0.271 18.85,-1.053Zm-121.615,43.141c0,0 -15.548,20.069 -11.16,24.278c0,0 4.962,3.764 20.428,-16.689c0,0 13.207,-17.701 10.107,-20.135c0,0 -7.646,-2.355 -19.375,12.546Z" style="fill:#a0a0a0;"/></g></svg>