<?xml version="1.0" encoding="UTF-8" standalone="no"?><!DOCTYPE svg PUBLIC "-//W3C//DTD SVG 1.1//EN" "http://www.w3.org/Graphics/SVG/1.1/DTD/svg11.dtd"><svg width="100%" height="100%" viewBox="0 0 540 200" version="1.1" xmlns="http://www.w3.org/2000/svg" xmlns:xlink="http://www.w3.org/1999/xlink" xml:space="preserve" xmlns:serif="http://www.serif.com/" style="fill-rule:evenodd;clip-rule:evenodd;stroke-linejoin:round;stroke-miterlimit:1.41421;"><g id="reuters"><path id="path4285" d="M475.693,56l0,88c24.515,0 44.281,-19.61 44.281,-43.992c0,-24.204 -19.766,-44.008 -44.281,-44.008Zm10.263,63.099c-3.089,0 -5.799,2.531 -5.799,5.798c0,3.089 2.71,5.814 5.799,5.814c3.451,0 5.997,-2.725 5.997,-5.814c0,-3.267 -2.546,-5.798 -5.997,-5.798Zm-91.699,-47.013c-14.89,0 -23.987,5.966 -23.987,17.248c0,10.92 9.397,14.246 19.928,15.704c5.087,0.73 11.215,1.66 11.215,6.209c0,4.732 -5.584,5.81 -11.032,5.81c-4.359,0 -12.369,-2.318 -15.274,-5.046l-6.577,9.893c5.809,4.55 13.46,6.209 21.088,6.209c16.161,0 25.147,-5.984 25.147,-17.447c0,-11.647 -10.194,-14.265 -21.088,-15.903c-4.72,-0.728 -10.056,-1.262 -10.056,-5.811c0,-4.004 4.809,-6.009 10.437,-6.009c3.086,0 9.251,1.102 11.612,3.104l6.958,-8.915c-4.358,-3.82 -11.832,-5.046 -18.371,-5.046Zm-246.43,0.78l0,30.23c0,8.92 5.361,13.579 13.352,13.579c7.99,0 13.733,-4.659 13.733,-13.579l0,-30.23l13.153,0l0,30.047c0,15.288 -9.272,24.619 -26.886,24.619c-17.433,0 -26.886,-9.331 -26.886,-24.619l0,-30.047l13.534,0Zm-100.967,0c12.167,0 22.049,3.729 22.049,16.285c0,7.462 -4.222,13.252 -12.573,14.526l14.907,22.494l-15.67,0l-12.39,-21.133l-9.858,0l0,21.133l-13.351,0l0,-53.305l26.886,0Zm76.981,0l0,11.04l-30.549,0l0,9.695l23.011,0l0,11.055l-23.011,0l0,10.658l30.549,0l0,10.857l-43.702,0l0,-53.305l43.702,0Zm123.214,0l0,10.658l-19.333,0l0,42.647l-13.153,0l0,-42.647l-19.546,0l0,-10.658l52.032,0Zm52.033,0l0,11.04l-30.365,0l0,9.695l23.01,0l0,11.055l-23.01,0l0,10.658l30.365,0l0,10.857l-43.518,0l0,-53.305l43.518,0Zm38.498,0c11.984,0 22.049,3.729 22.049,16.285c0,7.462 -4.221,13.252 -12.574,14.526l14.893,22.494l-15.854,0l-12.192,-21.133l-9.872,0l0,21.133l-13.336,0l0,-53.305l26.886,0Zm148.37,29.6c-3.089,0 -5.799,2.709 -5.799,5.799c0,3.266 2.71,5.997 5.799,5.997c3.451,0 5.997,-2.731 5.997,-5.997c0,-3.09 -2.546,-5.799 -5.997,-5.799Zm16.251,0c-3.269,0 -5.798,2.709 -5.798,5.799c0,3.266 2.529,5.997 5.798,5.997c3.267,0 5.814,-2.731 5.814,-5.997c0,-3.09 -2.547,-5.799 -5.814,-5.799Zm-16.251,-16.633c-3.27,0 -5.799,2.711 -5.799,5.799c0,3.268 2.529,5.615 5.799,5.615c3.267,0 5.997,-2.347 5.997,-5.615c0,-3.088 -2.73,-5.799 -5.997,-5.799Zm16.251,0c-3.45,0 -5.798,2.711 -5.798,5.799c0,3.268 2.348,5.615 5.798,5.615c3.087,0 5.814,-2.347 5.814,-5.615c0,-3.088 -2.727,-5.799 -5.814,-5.799Zm-457.666,8.93c4.722,0 10.635,0.012 10.635,-5.811c0,-5.278 -5.334,-6.009 -10.056,-6.009l-11.795,0l0,11.82l11.216,0Zm290.527,0c4.723,0 10.834,0.012 10.834,-5.811c0,-5.278 -5.153,-6.009 -10.056,-6.009l-11.81,0l0,11.82l11.032,0Zm150.888,-25.563c-3.27,0 -5.799,2.531 -5.799,5.799c0,3.268 2.529,5.798 5.799,5.798c3.267,0 5.997,-2.53 5.997,-5.798c0,-3.268 -2.73,-5.799 -5.997,-5.799Z" style="fill:#a0a0a0;"/><path id="path2253" d="M466.179,69.322c-2.905,0 -5.447,2.543 -5.447,5.631c0,3.087 2.542,5.631 5.447,5.631c3.27,0 5.631,-2.544 5.631,-5.631c0,-3.088 -2.361,-5.631 -5.631,-5.631Zm-15.793,16.709c-3.087,0 -5.631,2.543 -5.631,5.631c0,3.088 2.544,5.448 5.631,5.448c3.086,0 5.615,-2.36 5.615,-5.448c0,-3.088 -2.529,-5.631 -5.615,-5.631Zm15.793,0c-3.086,0 -5.63,2.543 -5.63,5.631c0,3.088 2.544,5.448 5.63,5.448c3.27,0 5.631,-2.36 5.631,-5.448c0,-3.088 -2.361,-5.631 -5.631,-5.631Zm-15.793,16.71c-3.087,0 -5.631,2.357 -5.631,5.447c0,3.089 2.544,5.631 5.631,5.631c3.086,0 5.615,-2.542 5.615,-5.631c0,-3.09 -2.529,-5.447 -5.615,-5.447Zm15.977,0c-3.27,0 -5.631,2.357 -5.631,5.447c0,3.089 2.361,5.631 5.631,5.631c3.086,0 5.63,-2.542 5.63,-5.631c0,-3.09 -2.544,-5.447 -5.63,-5.447Zm0,16.694c-3.27,0 -5.631,2.373 -5.631,5.462c0,3.089 2.361,5.448 5.631,5.448c2.905,0 5.63,-2.359 5.63,-5.448c0,-3.089 -2.725,-5.462 -5.63,-5.462Z" style="fill:#a0a0a0;"/></g></svg>