<?xml version="1.0" encoding="UTF-8" standalone="no"?><!DOCTYPE svg PUBLIC "-//W3C//DTD SVG 1.1//EN" "http://www.w3.org/Graphics/SVG/1.1/DTD/svg11.dtd"><svg width="100%" height="100%" viewBox="0 0 540 200" version="1.1" xmlns="http://www.w3.org/2000/svg" xmlns:xlink="http://www.w3.org/1999/xlink" xml:space="preserve" xmlns:serif="http://www.serif.com/" style="fill-rule:evenodd;clip-rule:evenodd;stroke-linejoin:round;stroke-miterlimit:1.41421;"><g id="ufc"><g><path id="path11" d="M115.918,39.524l46.352,0l-24.323,82.148c-1.707,5.763 1.915,10.516 7.882,10.516c5.97,0 12.115,-4.753 13.82,-10.516l24.324,-82.148l41.103,-0.001l-28.085,105.012c-2.479,9.263 -12.33,16.844 -21.891,16.844l-71.114,0c-11.363,0 -18.25,-9.007 -15.305,-20.021l27.237,-101.834Z" style="fill:#a0a0a0;fill-rule:nonzero;"/><path id="polygon13" d="M276.632,84.396l0,0.001l47.6,0l-8.647,28.443l-47.616,0l-13.218,48.539l-44.749,0l21.881,-76.983l44.749,0Z" style="fill:#a0a0a0;fill-rule:nonzero;"/><path id="path15" d="M369.246,38.291l60.536,0c8.855,0 23.886,7.126 20.81,18.459l-1.212,4.462l-54.019,0c-2.775,0 -5.662,2.235 -6.412,4.965l-16.788,61.067c-0.75,2.731 0.906,4.964 3.681,4.964l54.264,0l-3.934,14.491c-2.278,8.395 -11.258,15.301 -20.109,15.301l-63.907,0c-11.264,0 -18.184,-8.761 -15.377,-19.466l23.57,-89.867c2.073,-7.908 10.577,-14.376 18.897,-14.376Z" style="fill:#a0a0a0;fill-rule:nonzero;"/><path id="path17" d="M329.009,67.796l-47.502,0l-0.024,0.082l-44.749,0l8.609,-29.878c30.746,0 61.492,0 92.236,0l-8.57,29.796Z" style="fill:#a0a0a0;fill-rule:nonzero;"/></g></g></svg>