<?xml version="1.0" encoding="UTF-8" standalone="no"?><!DOCTYPE svg PUBLIC "-//W3C//DTD SVG 1.1//EN" "http://www.w3.org/Graphics/SVG/1.1/DTD/svg11.dtd"><svg width="100%" height="100%" viewBox="0 0 540 200" version="1.1" xmlns="http://www.w3.org/2000/svg" xmlns:xlink="http://www.w3.org/1999/xlink" xml:space="preserve" xmlns:serif="http://www.serif.com/" style="fill-rule:evenodd;clip-rule:evenodd;stroke-linejoin:round;stroke-miterlimit:1.41421;"><g id="usa-today" serif:id="usa today"><circle cx="65" cy="100" r="45" style="fill:#a0a0a0;"/><g><path d="M130.67,107.256l0,-32.206l14.366,0l0,27.944c0,5.525 0.632,10.893 7.894,10.893c7.262,0 7.894,-5.368 7.894,-10.893l0,-27.944l14.366,0l0,32.048c0,12.472 -7.894,19.261 -22.26,19.261c-14.682,0.158 -22.26,-6.789 -22.26,-19.103Z" style="fill:#a0a0a0;fill-rule:nonzero;"/><path d="M178.979,119.097l6.947,-9.63c2.526,3.157 6.946,5.841 11.84,5.841c3.789,0 5.999,-1.579 5.999,-4.578c0,-3.474 -3.157,-4.579 -8.683,-6.158c-7.262,-2.21 -13.735,-5.999 -13.735,-14.682c0,-9.472 7.894,-15.945 18.945,-15.945c7.736,0 13.419,2.368 17.208,5.841l-6.472,9.631c-2.053,-2.369 -5.526,-4.421 -9.946,-4.421c-3.789,0 -5.368,1.579 -5.368,3.473c0,3.158 3.789,3.947 7.894,5.368c8.209,2.526 14.524,6.315 14.524,15.63c0,9.63 -6.947,16.892 -19.576,16.892c-9.315,0.158 -16.419,-3.789 -19.577,-7.262Z" style="fill:#a0a0a0;fill-rule:nonzero;"/><path d="M237.393,75.05l15.787,0l18.787,50.362l-14.998,0l-2.368,-7.262l-18.945,0l-2.368,7.262l-14.682,0c0.157,0 18.787,-50.362 18.787,-50.362Zm13.577,31.733l-3.947,-12.157c-0.789,-2.368 -1.421,-5.367 -1.737,-7.578l-0.473,0c-0.316,2.211 -0.948,5.21 -1.737,7.578l-3.947,12.157l11.841,0Z" style="fill:#a0a0a0;fill-rule:nonzero;"/><path d="M292.806,86.733l-12.472,0l0,-11.683l39.311,0l0,11.683l-12.472,0l0,38.679l-14.367,0l0,-38.679Z" style="fill:#a0a0a0;fill-rule:nonzero;"/><path d="M320.592,100.31c0,-12.472 8.841,-26.207 27.628,-26.207c18.787,0 27.628,13.893 27.628,26.207c0,12.314 -8.841,26.049 -27.628,26.049c-18.787,0.158 -27.628,-13.577 -27.628,-26.049Zm40.574,0c0,-8.999 -5.842,-13.735 -12.946,-13.735c-6.946,0 -12.788,4.736 -12.788,13.735c0,8.999 5.842,13.577 12.788,13.577c6.947,0 12.946,-4.578 12.946,-13.577Z" style="fill:#a0a0a0;fill-rule:nonzero;"/><path d="M381.058,75.05l18.629,0c17.84,0 27.944,9.472 27.944,25.26c0,15.472 -10.42,25.26 -27.944,25.26l-18.629,0l0,-50.52Zm14.524,38.837l3.158,0c9.314,0 14.209,-4.42 14.209,-13.577c0,-9.157 -4.895,-13.577 -14.209,-13.577l-3.158,0l0,27.154Z" style="fill:#a0a0a0;fill-rule:nonzero;"/><path d="M444.365,75.05l15.788,0l18.787,50.362l-14.998,0l-2.368,-7.262l-18.945,0l-2.368,7.262l-14.683,0c0.158,0 18.787,-50.362 18.787,-50.362Zm13.578,31.733l-3.947,-12.157c-0.79,-2.368 -1.421,-5.367 -1.737,-7.578l-0.473,0c-0.316,2.211 -0.948,5.21 -1.737,7.578l-3.947,12.157l11.841,0Z" style="fill:#a0a0a0;fill-rule:nonzero;"/><path d="M485.886,107.572l-18.787,-32.364l15.788,0l6.788,12.472c1.421,2.684 3.474,6.631 3.947,9.314l0.316,0c0.474,-2.683 2.368,-6.63 3.947,-9.314l6.788,-12.472l15.314,0l-18.787,32.364l0,17.998l-15.156,0l0,-17.998l-0.158,0Z" style="fill:#a0a0a0;fill-rule:nonzero;"/></g></g></svg>