<?xml version="1.0" encoding="UTF-8" standalone="no"?><!DOCTYPE svg PUBLIC "-//W3C//DTD SVG 1.1//EN" "http://www.w3.org/Graphics/SVG/1.1/DTD/svg11.dtd"><svg width="100%" height="100%" viewBox="0 0 540 200" version="1.1" xmlns="http://www.w3.org/2000/svg" xmlns:xlink="http://www.w3.org/1999/xlink" xml:space="preserve" xmlns:serif="http://www.serif.com/" style="fill-rule:evenodd;clip-rule:evenodd;stroke-linejoin:round;stroke-miterlimit:1.41421;"><g id="vice"><path id="vice1" serif:id="vice" d="M182.437,173.861c-16.943,-1.548 -28.173,-9.586 -30.463,-21.806c-0.48,-2.559 -0.387,-8.669 0.167,-10.977c0.147,-0.613 0.227,-1.114 0.177,-1.114c-0.049,0 -2.635,1.882 -5.746,4.183c-12.038,8.901 -21.945,15.156 -31.983,20.195c-11.581,5.812 -18.32,7.535 -29.544,7.553c-7.616,0.011 -12.293,-0.866 -17.258,-3.239c-7.674,-3.668 -11.262,-9.213 -11.262,-17.404c0,-4.002 0.366,-5.681 1.895,-8.693c0.727,-1.434 1.323,-2.75 1.323,-2.924c0,-0.175 -1.067,-2.258 -2.371,-4.631c-4.644,-8.452 -10.347,-21.143 -14.801,-32.939c-10.23,-27.093 1.826,-50.709 32.236,-63.15c2.092,-0.855 7.291,-3.263 11.554,-5.351c8.777,-4.298 9.584,-4.651 13.505,-5.918c7.728,-2.497 14.792,-1.704 20.524,2.303c3.11,2.174 6.187,6.909 6.921,10.646c0.186,0.948 0.427,2.076 0.536,2.505l0.198,0.782l2.34,-0.711c9.381,-2.849 20.16,-5.275 28.374,-6.387c5.839,-0.791 18.727,-0.968 23.458,-0.322l2.691,0.367l2.12,-1.394c11.287,-7.42 30.217,-7.641 57.697,-0.674c8.721,2.211 13.555,3.695 18.287,5.614c8.982,3.641 9.363,3.623 16.951,-0.816c7.376,-4.315 20.022,-9.138 30.146,-11.499c6.763,-1.576 11.058,-2.048 18.747,-2.06c8.63,-0.013 11.958,0.433 17.816,2.386c5.757,1.92 7.253,2.101 12.042,1.459c5.187,-0.695 20.611,-0.947 29.522,-0.482c21.508,1.12 36.524,3.356 75.03,11.171c16.995,3.449 30.531,6.036 36.125,6.903l1.609,0.25l-0.031,1.081c-0.018,0.595 -0.281,1.413 -0.585,1.818c-2.535,3.367 -13.978,17.672 -16.747,20.936c-4.649,5.479 -10.791,11.672 -15.035,15.16l-3.477,2.859l0.199,3.141c0.226,3.563 -0.194,7.891 -1,10.318l-0.527,1.588l2.454,3.197c2.66,3.464 4.918,7.075 5.917,9.459l0.63,1.505l-0.59,2.656c-3.958,17.826 -12.885,29.562 -27.594,36.28c-11.306,5.163 -42.459,12.297 -63.984,14.651c-11.788,1.289 -27.741,1.575 -35.394,0.634c-12.425,-1.528 -21.221,-4.356 -28.018,-9.008l-2.424,-1.658l-2.403,1.297c-7.431,4.013 -18.115,7.135 -30.045,8.781c-5.747,0.792 -19.618,1.119 -25.484,0.6c-13.838,-1.225 -25.771,-4.82 -33.653,-10.14c-0.961,-0.649 -1.821,-1.18 -1.911,-1.18c-0.089,0 -1.036,0.836 -2.103,1.858c-5.268,5.046 -13.311,8.515 -22.882,9.871c-3.915,0.555 -10.502,0.778 -13.876,0.47l0,0Zm12.301,-16.669c5.954,-0.687 10.305,-2.258 12.22,-4.413c1.465,-1.647 2.397,-3.378 4.305,-7.998c0.926,-2.241 3.137,-7.058 4.913,-10.706l3.229,-6.631l0.192,2.024c1.088,11.484 7.505,18.556 20.956,23.093c14.347,4.839 26.569,5.714 41.5,2.971c12.735,-2.34 27.072,-7.84 40.292,-15.457c1.809,-1.042 3.329,-1.895 3.377,-1.895c0.049,0 0.034,1.652 -0.032,3.67c-0.283,8.657 2.196,10.9 14.807,13.399c11.802,2.338 25.537,2.588 39.987,0.728c12.854,-1.655 42.5,-8.328 52.653,-11.851c12.926,-4.487 19.006,-10.402 21.69,-21.105l0.708,-2.824l-0.624,-0.517c-0.962,-0.797 -3.959,-1.625 -6.71,-1.855c-5.53,-0.461 -12.746,0.777 -26.765,4.593c-13.708,3.732 -20.127,4.909 -28.666,5.256c-9.133,0.371 -19.751,-1.551 -20.93,-3.789c-0.689,-1.309 -0.071,-3.229 1.39,-4.322c4.823,-3.606 12.365,-4.798 33.58,-5.306c21.78,-0.522 29.234,-2.05 35.67,-7.312c4.668,-3.816 7.393,-9.213 6.773,-13.414c-0.787,-5.335 -8.103,-8.629 -18.145,-8.17c-4.835,0.221 -8.27,0.868 -18.301,3.447c-4.424,1.137 -9.492,2.286 -11.262,2.552c-4.685,0.705 -13.836,0.627 -15.039,-0.128c-0.261,-0.165 -0.203,-0.48 0.228,-1.233c0.319,-0.557 1.063,-2.205 1.653,-3.663c1.138,-2.812 2.091,-4.528 2.888,-5.2c0.673,-0.567 10.808,-0.273 20.508,0.596c8.605,0.77 20.15,0.926 24.279,0.327c12.864,-1.865 22.374,-6.981 30.999,-16.675c1.214,-1.366 2.733,-3.001 3.375,-3.633c0.731,-0.721 1.166,-1.421 1.166,-1.874c0,-0.78 -0.234,-0.901 -2.34,-1.211c-3.033,-0.446 -13.161,-2.351 -23.693,-4.458c-25.107,-5.021 -36.596,-6.895 -51.337,-8.376c-7.321,-0.736 -28.347,-0.759 -33.827,-0.037c-5.206,0.686 -5.741,0.984 -12.38,6.896c-0.898,0.8 -1.709,1.377 -1.801,1.283c-0.092,-0.094 0.231,-1.484 0.718,-3.089c0.487,-1.605 0.975,-3.418 1.084,-4.028c0.238,-1.328 0.229,-1.333 -4.795,-2.636c-16.438,-4.262 -33.958,-1.012 -56.644,10.508c-20.666,10.494 -35.373,20.429 -48.705,32.901l-2.681,2.507l2.105,-3.548c5.018,-8.456 8.985,-14.088 16.46,-23.368c5.306,-6.589 5.628,-7.041 5.126,-7.221c-3.124,-1.124 -25.003,-6.434 -33.586,-8.152c-7.899,-1.582 -14.106,-2.172 -18.879,-1.796c-5.793,0.456 -9.035,1.779 -12.649,5.161c-3.764,3.522 -4.584,3.724 -9.737,2.396c-8.107,-2.088 -18.837,-1.738 -33.034,1.077c-20.188,4.003 -27.376,7.803 -28.001,14.804c-0.107,1.198 0.117,3.027 0.788,6.424c1.609,8.155 1.082,9.908 -6.702,22.278c-3.467,5.508 -5.325,7.927 -7.429,9.669c-1.824,1.51 -3.683,2.517 -4.018,2.177c-0.694,-0.705 -1.208,-7.768 -1.057,-14.512c0.203,-9.032 1.911,-19.788 5.618,-35.372c1.356,-5.7 1.683,-11.204 0.883,-14.856l-0.506,-2.315l-2.531,0.163c-3.814,0.245 -5.781,1.019 -13.793,5.429c-2.172,1.195 -6.647,3.267 -9.945,4.603c-13.263,5.374 -19.495,9.159 -23.612,14.342c-3.974,5.003 -5.578,10.333 -5.271,17.525c0.194,4.537 0.74,6.496 4.501,16.128c6.064,15.535 9.979,23.383 17.243,34.563c1.835,2.825 3.336,5.264 3.336,5.421c0,0.157 -1.555,1.859 -3.455,3.782c-2.688,2.719 -3.533,3.768 -3.803,4.719c-0.539,1.9 -0.435,2.376 0.734,3.355c1.925,1.613 4.069,2.163 9.073,2.33c10.693,0.357 19.226,-2.503 35.1,-11.766c17.357,-10.129 27.038,-18.961 47.784,-43.593c3.305,-3.923 7.176,-8.605 8.602,-10.403c3.286,-4.144 4.39,-5.343 5.908,-6.416l1.219,-0.862l0.347,1.558c0.191,0.857 0.412,3.498 0.491,5.868c0.25,7.463 -0.773,11.648 -5.721,23.39c-7.166,17.009 -10.201,29.838 -8.575,36.256c1.083,4.276 6.109,6.769 15.992,7.933c1.99,0.235 8.075,0.168 10.531,-0.116l0,0Zm78.979,-27.92c-6.057,-1.367 -9.32,-4.759 -9.302,-9.67c0.01,-2.638 0.409,-4.099 2.028,-7.419c3.137,-6.431 7.652,-12.046 17.427,-21.67c3.586,-3.531 7.632,-7.688 8.992,-9.239c1.36,-1.55 2.522,-2.768 2.583,-2.707c0.196,0.199 -1.598,6.649 -4.142,14.894c-2.203,7.14 -4.275,14.442 -4.277,15.069c0,0.643 9.543,0.015 23.84,-1.566c5.792,-0.641 11.819,-1.256 13.394,-1.368c2.641,-0.186 2.905,-0.262 3.403,-0.975c0.707,-1.01 1.886,-3.883 2.513,-6.123c0.275,-0.981 0.594,-1.887 0.709,-2.014c0.293,-0.323 1.593,2.209 2.407,4.689c0.881,2.685 0.985,8.802 0.18,10.627c-0.476,1.08 -0.538,1.114 -2.005,1.114c-5.82,0 -13.448,2.247 -22.941,6.756c-17.276,8.206 -21.214,9.518 -29.252,9.743c-2.413,0.067 -4.914,0.003 -5.557,-0.141Zm65.52,-55.217c0.115,-0.289 0.86,-2.398 1.654,-4.687c0.794,-2.288 1.656,-4.736 1.916,-5.438l0.472,-1.278l0.905,0.875c1.399,1.35 3.566,2.31 8.487,3.758c4.148,1.221 7.776,2.59 7.776,2.934c0,0.245 -2.895,0.787 -9.059,1.695c-5.775,0.85 -9.769,1.662 -11.523,2.342c-0.749,0.291 -0.816,0.269 -0.628,-0.201Z" style="fill:#a0a0a0;fill-rule:nonzero;"/></g></svg>